STARTFONT 2.1
COMMENT $Xorg: $
COMMENT ISO10646-1 extension by Markus Kuhn <mkuhn@acm.org>, 2001-03-20
FONT -B&H-LucidaTypewriter-Medium-R-Normal-Sans-24-240-75-75-M-140-ISO10646-1
SIZE 24 72 72
FONTBOUNDINGBOX 20 35 -4 -9
STARTPROPERTIES 22
FONTNAME_REGISTRY ""
FOUNDRY "B&H"
FAMILY_NAME "LucidaTypewriter"
WEIGHT_NAME "Medium"
SLANT "R"
SETWIDTH_NAME "Normal"
ADD_STYLE_NAME "Sans"
PIXEL_SIZE 24
POINT_SIZE 240
RESOLUTION_X 75
RESOLUTION_Y 75
SPACING "M"
AVERAGE_WIDTH 140
CHARSET_REGISTRY "ISO10646"
CHARSET_ENCODING "1"
FONT_ASCENT 22
FONT_DESCENT 5
DEFAULT_CHAR 0
COPYRIGHT "Copyright Bigelow & Holmes 1986, 1985."
FACE_NAME "Lucida Sans Typewriter"
X_HEIGHT 13
CAP_HEIGHT 17
ENDPROPERTIES
CHARS 873
STARTCHAR char0
ENCODING 0
SWIDTH 602 0
DWIDTH 14 0
BBX 11 17 2 0
BITMAP
AAA0
0000
8020
0000
8020
0000
8020
0000
8020
0000
8020
0000
8020
0000
8020
0000
AAA0
ENDCHAR
STARTCHAR space
ENCODING 32
SWIDTH 602 0
DWIDTH 14 0
BBX 1 1 0 0
BITMAP
00
ENDCHAR
STARTCHAR exclam
ENCODING 33
SWIDTH 602 0
DWIDTH 14 0
BBX 3 17 6 0
BITMAP
60
60
60
60
60
60
60
60
40
40
40
40
00
00
00
E0
E0
ENDCHAR
STARTCHAR quotedbl
ENCODING 34
SWIDTH 602 0
DWIDTH 14 0
BBX 10 5 2 12
BITMAP
C0C0
C0C0
C0C0
4080
4080
ENDCHAR
STARTCHAR numbersign
ENCODING 35
SWIDTH 602 0
DWIDTH 14 0
BBX 13 17 1 0
BITMAP
0220
0220
0420
0420
0440
0440
7FF8
0880
0880
0880
1880
FFF0
1100
1100
2100
2200
2200
ENDCHAR
STARTCHAR dollar
ENCODING 36
SWIDTH 602 0
DWIDTH 14 0
BBX 9 21 3 -2
BITMAP
0800
0800
3F00
6980
C800
C800
C800
E800
7800
3800
1E00
0F00
0B80
0980
0980
0980
8B80
EF00
7E00
0800
0800
ENDCHAR
STARTCHAR percent
ENCODING 37
SWIDTH 602 0
DWIDTH 14 0
BBX 14 17 0 0
BITMAP
380C
4418
8210
8220
8260
8240
4480
3900
0300
0270
0488
0904
1904
1104
2104
6088
C070
ENDCHAR
STARTCHAR ampersand
ENCODING 38
SWIDTH 602 0
DWIDTH 14 0
BBX 15 17 0 0
BITMAP
0780
0CC0
1860
1860
18E0
1CC0
0F00
0E00
3606
6706
C386
C1C4
C0EC
C07C
6038
307C
1FDE
ENDCHAR
STARTCHAR quotesingle
ENCODING 39
SWIDTH 602 0
DWIDTH 14 0
BBX 3 6 6 11
BITMAP
E0
E0
E0
40
40
40
ENDCHAR
STARTCHAR parenleft
ENCODING 40
SWIDTH 602 0
DWIDTH 14 0
BBX 8 21 4 -4
BITMAP
07
0F
3C
30
70
60
E0
C0
C0
C0
C0
C0
C0
C0
60
60
30
30
1C
0F
03
ENDCHAR
STARTCHAR parenright
ENCODING 41
SWIDTH 602 0
DWIDTH 14 0
BBX 8 21 2 -4
BITMAP
C0
F0
38
0C
0C
06
06
03
03
03
03
03
03
03
06
06
0E
0C
38
F0
C0
ENDCHAR
STARTCHAR asterisk
ENCODING 42
SWIDTH 602 0
DWIDTH 14 0
BBX 11 10 2 7
BITMAP
0E00
0E00
4420
E4E0
F1E0
0000
1B00
3B80
71C0
1100
ENDCHAR
STARTCHAR plus
ENCODING 43
SWIDTH 602 0
DWIDTH 14 0
BBX 11 13 2 0
BITMAP
0400
0400
0400
0400
0400
0400
FFE0
0400
0400
0400
0400
0400
0400
ENDCHAR
STARTCHAR comma
ENCODING 44
SWIDTH 602 0
DWIDTH 14 0
BBX 3 8 6 -4
BITMAP
E0
E0
E0
E0
20
60
40
C0
ENDCHAR
STARTCHAR hyphen
ENCODING 45
SWIDTH 602 0
DWIDTH 14 0
BBX 12 1 1 5
BITMAP
FFF0
ENDCHAR
STARTCHAR period
ENCODING 46
SWIDTH 602 0
DWIDTH 14 0
BBX 3 3 6 0
BITMAP
E0
E0
E0
ENDCHAR
STARTCHAR slash
ENCODING 47
SWIDTH 602 0
DWIDTH 14 0
BBX 13 21 1 -4
BITMAP
0018
0010
0020
0020
0040
0040
0080
0180
0100
0300
0200
0600
0400
0C00
0800
1000
1000
2000
2000
4000
C000
ENDCHAR
STARTCHAR zero
ENCODING 48
SWIDTH 602 0
DWIDTH 14 0
BBX 12 17 1 0
BITMAP
0F00
30C0
6060
6060
4020
C030
C030
C030
C030
C030
C030
C030
4020
6060
6060
30C0
0F00
ENDCHAR
STARTCHAR one
ENCODING 49
SWIDTH 602 0
DWIDTH 14 0
BBX 12 17 2 0
BITMAP
0200
1E00
F600
0600
0600
0600
0600
0600
0600
0600
0600
0600
0600
0600
0600
0600
FFF0
ENDCHAR
STARTCHAR two
ENCODING 50
SWIDTH 602 0
DWIDTH 14 0
BBX 9 17 2 0
BITMAP
7E00
C300
0180
0180
0180
0180
0100
0300
0200
0400
0800
1000
3000
6000
E000
E000
FF80
ENDCHAR
STARTCHAR three
ENCODING 51
SWIDTH 602 0
DWIDTH 14 0
BBX 9 17 3 0
BITMAP
FE00
8300
0180
0180
0180
0180
0700
7C00
0600
0300
0180
0180
0180
0180
0300
8700
FC00
ENDCHAR
STARTCHAR four
ENCODING 52
SWIDTH 602 0
DWIDTH 14 0
BBX 11 17 2 0
BITMAP
0180
0380
0380
0580
0D80
0980
1180
3180
2180
4180
C180
FFE0
0180
0180
0180
0180
0180
ENDCHAR
STARTCHAR five
ENCODING 53
SWIDTH 602 0
DWIDTH 14 0
BBX 9 17 3 0
BITMAP
FF80
8000
8000
8000
8000
8000
F800
0E00
0300
0180
0180
0180
0180
0180
0300
8600
FC00
ENDCHAR
STARTCHAR six
ENCODING 54
SWIDTH 602 0
DWIDTH 14 0
BBX 11 17 2 0
BITMAP
0FC0
1040
2000
6000
4000
C000
DF00
F1C0
E0C0
C060
C060
C060
C060
4060
60C0
3180
1F00
ENDCHAR
STARTCHAR seven
ENCODING 55
SWIDTH 602 0
DWIDTH 14 0
BBX 10 17 3 0
BITMAP
FFC0
FFC0
0080
0180
0100
0300
0200
0600
0400
0C00
0800
1800
1000
3000
3000
6000
6000
ENDCHAR
STARTCHAR eight
ENCODING 56
SWIDTH 602 0
DWIDTH 14 0
BBX 11 17 2 0
BITMAP
1F00
3080
6040
6040
6040
70C0
3D80
1F00
1F80
63C0
40E0
C060
C060
C060
E040
70C0
1F00
ENDCHAR
STARTCHAR nine
ENCODING 57
SWIDTH 602 0
DWIDTH 14 0
BBX 11 17 2 0
BITMAP
1F00
3180
60C0
C040
C060
C060
C060
C060
60E0
71E0
1F60
0060
0040
00C0
0080
4100
7E00
ENDCHAR
STARTCHAR colon
ENCODING 58
SWIDTH 602 0
DWIDTH 14 0
BBX 3 13 6 0
BITMAP
E0
E0
E0
00
00
00
00
00
00
00
E0
E0
E0
ENDCHAR
STARTCHAR semicolon
ENCODING 59
SWIDTH 602 0
DWIDTH 14 0
BBX 3 17 6 -4
BITMAP
E0
E0
E0
00
00
00
00
00
00
E0
E0
E0
E0
20
60
40
C0
ENDCHAR
STARTCHAR less
ENCODING 60
SWIDTH 602 0
DWIDTH 14 0
BBX 11 13 0 0
BITMAP
0020
0060
0180
0600
0C00
3000
C000
3000
0C00
0600
0180
0060
0020
ENDCHAR
STARTCHAR equal
ENCODING 61
SWIDTH 602 0
DWIDTH 14 0
BBX 12 7 1 3
BITMAP
FFF0
0000
0000
0000
0000
0000
FFF0
ENDCHAR
STARTCHAR greater
ENCODING 62
SWIDTH 602 0
DWIDTH 14 0
BBX 11 13 1 0
BITMAP
8000
C000
3000
0C00
0600
0180
0060
0180
0600
0C00
3000
C000
8000
ENDCHAR
STARTCHAR question
ENCODING 63
SWIDTH 602 0
DWIDTH 14 0
BBX 10 17 2 0
BITMAP
FF00
8180
80C0
00C0
00C0
0180
0300
0600
0C00
0800
1800
1800
0000
0000
0000
0C00
0C00
ENDCHAR
STARTCHAR at
ENCODING 64
SWIDTH 602 0
DWIDTH 14 0
BBX 14 17 1 0
BITMAP
07E0
1C10
3008
60F8
4108
C208
8208
8408
8408
8418
8438
8428
4268
41CC
2000
1810
07E0
ENDCHAR
STARTCHAR A
ENCODING 65
SWIDTH 602 0
DWIDTH 14 0
BBX 13 17 -1 0
BITMAP
0600
0700
0B00
0B00
0980
1180
1180
10C0
30C0
20C0
20E0
7FE0
4060
4030
8030
8030
8018
ENDCHAR
STARTCHAR B
ENCODING 66
SWIDTH 602 0
DWIDTH 14 0
BBX 11 17 2 0
BITMAP
FF00
C180
C0C0
C0C0
C0C0
C0C0
C180
C300
FF00
C3C0
C0C0
C060
C060
C060
C060
C0C0
FF80
ENDCHAR
STARTCHAR C
ENCODING 67
SWIDTH 602 0
DWIDTH 14 0
BBX 12 17 1 0
BITMAP
07F0
1830
3000
6000
6000
C000
C000
C000
C000
C000
C000
C000
6000
6000
3000
1C10
07F0
ENDCHAR
STARTCHAR D
ENCODING 68
SWIDTH 602 0
DWIDTH 14 0
BBX 12 17 2 0
BITMAP
FF00
C1C0
C0E0
C060
C030
C030
C030
C030
C030
C030
C030
C030
C060
C060
C0C0
C1C0
FF00
ENDCHAR
STARTCHAR E
ENCODING 69
SWIDTH 602 0
DWIDTH 14 0
BBX 10 17 3 0
BITMAP
FF80
C000
C000
C000
C000
C000
C000
FF00
C000
C000
C000
C000
C000
C000
C000
C000
FFC0
ENDCHAR
STARTCHAR F
ENCODING 70
SWIDTH 602 0
DWIDTH 14 0
BBX 10 17 3 0
BITMAP
FFC0
C000
C000
C000
C000
C000
C000
C000
FF80
C000
C000
C000
C000
C000
C000
C000
C000
ENDCHAR
STARTCHAR G
ENCODING 71
SWIDTH 602 0
DWIDTH 14 0
BBX 12 17 1 0
BITMAP
07F0
1810
3000
6000
6000
C000
C000
C000
C000
C000
C030
C030
6030
6030
3030
1C30
07E0
ENDCHAR
STARTCHAR H
ENCODING 72
SWIDTH 602 0
DWIDTH 14 0
BBX 11 17 2 0
BITMAP
C060
C060
C060
C060
C060
C060
C060
C060
FFE0
C060
C060
C060
C060
C060
C060
C060
C060
ENDCHAR
STARTCHAR I
ENCODING 73
SWIDTH 602 0
DWIDTH 14 0
BBX 10 17 2 0
BITMAP
FFC0
0C00
0C00
0C00
0C00
0C00
0C00
0C00
0C00
0C00
0C00
0C00
0C00
0C00
0C00
0C00
FFC0
ENDCHAR
STARTCHAR J
ENCODING 74
SWIDTH 602 0
DWIDTH 14 0
BBX 8 17 3 0
BITMAP
7F
03
03
03
03
03
03
03
03
03
03
03
03
03
03
86
FC
ENDCHAR
STARTCHAR K
ENCODING 75
SWIDTH 602 0
DWIDTH 14 0
BBX 12 17 2 0
BITMAP
C040
C080
C100
C300
C200
C400
C800
D000
F800
DC00
CC00
C600
C300
C380
C1C0
C0E0
C070
ENDCHAR
STARTCHAR L
ENCODING 76
SWIDTH 602 0
DWIDTH 14 0
BBX 10 17 3 0
BITMAP
C000
C000
C000
C000
C000
C000
C000
C000
C000
C000
C000
C000
C000
C000
C000
C000
FFC0
ENDCHAR
STARTCHAR M
ENCODING 77
SWIDTH 602 0
DWIDTH 14 0
BBX 12 17 1 0
BITMAP
C030
E070
E070
A050
A050
B0D0
9090
9090
9090
8910
8910
8910
8910
8610
8610
8610
8010
ENDCHAR
STARTCHAR N
ENCODING 78
SWIDTH 602 0
DWIDTH 14 0
BBX 11 17 2 0
BITMAP
C020
E020
E020
F020
B020
9820
9820
8C20
8E20
8620
8320
8320
81A0
81E0
80E0
8060
8060
ENDCHAR
STARTCHAR O
ENCODING 79
SWIDTH 602 0
DWIDTH 14 0
BBX 13 17 1 0
BITMAP
0F80
38E0
3060
6030
6030
C018
C018
C018
C018
C018
C018
C018
6030
6030
3060
38E0
0F80
ENDCHAR
STARTCHAR P
ENCODING 80
SWIDTH 602 0
DWIDTH 14 0
BBX 11 17 3 0
BITMAP
FF80
C0C0
C060
C060
C060
C060
C060
C0C0
C180
FE00
C000
C000
C000
C000
C000
C000
C000
ENDCHAR
STARTCHAR Q
ENCODING 81
SWIDTH 602 0
DWIDTH 14 0
BBX 14 21 1 -4
BITMAP
0F80
38C0
3060
6030
6030
C018
C018
C018
C018
C018
C018
C018
6038
6030
3070
38E0
0FE0
00C0
0070
003C
0018
ENDCHAR
STARTCHAR R
ENCODING 82
SWIDTH 602 0
DWIDTH 14 0
BBX 12 17 2 0
BITMAP
FF00
C180
C0C0
C0C0
C0C0
C0C0
C1C0
C380
FF00
C600
C700
C300
C180
C1C0
C0C0
C0E0
C070
ENDCHAR
STARTCHAR S
ENCODING 83
SWIDTH 602 0
DWIDTH 14 0
BBX 11 17 2 0
BITMAP
1FC0
6040
C000
C000
C000
E000
7000
3C00
0F00
03C0
00E0
0060
0060
0060
0040
80C0
7F00
ENDCHAR
STARTCHAR T
ENCODING 84
SWIDTH 602 0
DWIDTH 14 0
BBX 14 17 0 0
BITMAP
FFFC
0300
0300
0300
0300
0300
0300
0300
0300
0300
0300
0300
0300
0300
0300
0300
0300
ENDCHAR
STARTCHAR U
ENCODING 85
SWIDTH 602 0
DWIDTH 14 0
BBX 11 17 2 0
BITMAP
C020
C020
C020
C020
C020
C020
C020
C020
C020
C020
C020
C020
C020
C020
4040
60C0
3F80
ENDCHAR
STARTCHAR V
ENCODING 86
SWIDTH 602 0
DWIDTH 14 0
BBX 14 17 0 0
BITMAP
C00C
6008
6008
6010
3010
3010
3020
1820
1820
1840
0C40
0CC0
0E80
0680
0700
0700
0300
ENDCHAR
STARTCHAR W
ENCODING 87
SWIDTH 602 0
DWIDTH 14 0
BBX 14 17 0 0
BITMAP
8004
8604
860C
8708
CF08
CF08
CD08
C918
C998
5990
5890
5090
70F0
70F0
70E0
6060
6060
ENDCHAR
STARTCHAR X
ENCODING 88
SWIDTH 602 0
DWIDTH 14 0
BBX 13 17 -1 0
BITMAP
C010
6020
7060
3040
3880
1D80
0D00
0E00
0600
0700
0B80
1180
10C0
20E0
4060
4030
8038
ENDCHAR
STARTCHAR Y
ENCODING 89
SWIDTH 602 0
DWIDTH 14 0
BBX 13 17 0 0
BITMAP
E008
6018
3010
3820
1820
1C40
0CC0
0680
0700
0300
0300
0300
0300
0300
0300
0300
0300
ENDCHAR
STARTCHAR Z
ENCODING 90
SWIDTH 602 0
DWIDTH 14 0
BBX 12 17 1 0
BITMAP
7FF0
0070
0060
00C0
01C0
0180
0300
0700
0600
0E00
1C00
1800
3800
7000
6000
E000
FFF0
ENDCHAR
STARTCHAR bracketleft
ENCODING 91
SWIDTH 602 0
DWIDTH 14 0
BBX 6 21 6 -4
BITMAP
FC
80
80
80
80
80
80
80
80
80
80
80
80
80
80
80
80
80
80
80
FC
ENDCHAR
STARTCHAR backslash
ENCODING 92
SWIDTH 602 0
DWIDTH 14 0
BBX 13 21 1 -4
BITMAP
C000
4000
2000
2000
1000
1000
0800
0C00
0400
0600
0200
0300
0100
0180
0080
0040
0040
0020
0020
0010
0018
ENDCHAR
STARTCHAR bracketright
ENCODING 93
SWIDTH 602 0
DWIDTH 14 0
BBX 6 21 3 -4
BITMAP
FC
04
04
04
04
04
04
04
04
04
04
04
04
04
04
04
04
04
04
04
FC
ENDCHAR
STARTCHAR asciicircum
ENCODING 94
SWIDTH 602 0
DWIDTH 14 0
BBX 12 13 1 3
BITMAP
0200
0600
0600
0F00
0900
0900
1080
1080
2040
2040
6040
4020
C030
ENDCHAR
STARTCHAR underscore
ENCODING 95
SWIDTH 602 0
DWIDTH 14 0
BBX 14 1 0 -2
BITMAP
FFFC
ENDCHAR
STARTCHAR grave
ENCODING 96
SWIDTH 602 0
DWIDTH 14 0
BBX 5 3 5 14
BITMAP
E0
30
18
ENDCHAR
STARTCHAR a
ENCODING 97
SWIDTH 602 0
DWIDTH 14 0
BBX 12 13 2 0
BITMAP
3F80
41C0
00C0
00C0
00C0
1FC0
70C0
60C0
C0C0
C0C0
C0C0
63C0
3EF0
ENDCHAR
STARTCHAR b
ENCODING 98
SWIDTH 602 0
DWIDTH 14 0
BBX 11 17 2 0
BITMAP
C000
C000
C000
C000
CF00
F1C0
E0C0
C060
C060
C060
C060
C060
C060
C0C0
C0C0
F180
DF00
ENDCHAR
STARTCHAR c
ENCODING 99
SWIDTH 602 0
DWIDTH 14 0
BBX 11 13 2 0
BITMAP
0FE0
3860
6000
6000
C000
C000
C000
C000
C000
6000
6000
3820
0FE0
ENDCHAR
STARTCHAR d
ENCODING 100
SWIDTH 602 0
DWIDTH 14 0
BBX 11 17 2 0
BITMAP
0060
0060
0060
0060
1F60
31E0
6060
6060
C060
C060
C060
C060
C060
C060
60E0
71E0
1E60
ENDCHAR
STARTCHAR e
ENCODING 101
SWIDTH 602 0
DWIDTH 14 0
BBX 11 13 2 0
BITMAP
1F80
31C0
60C0
6060
C060
C060
FFE0
C000
C000
4000
6000
3020
0FE0
ENDCHAR
STARTCHAR f
ENCODING 102
SWIDTH 602 0
DWIDTH 14 0
BBX 12 19 2 0
BITMAP
07F0
0C10
1800
1800
1800
1800
FFF0
1800
1800
1800
1800
1800
1800
1800
1800
1800
1800
1800
1800
ENDCHAR
STARTCHAR g
ENCODING 103
SWIDTH 602 0
DWIDTH 14 0
BBX 11 18 2 -5
BITMAP
1FA0
31E0
60E0
4060
C060
C060
C060
C060
C060
C060
60E0
71E0
1E60
0060
0060
0040
4080
7F00
ENDCHAR
STARTCHAR h
ENCODING 104
SWIDTH 602 0
DWIDTH 14 0
BBX 10 17 2 0
BITMAP
C000
C000
C000
C000
CF00
DF80
F1C0
E0C0
C0C0
C0C0
C0C0
C0C0
C0C0
C0C0
C0C0
C0C0
C0C0
ENDCHAR
STARTCHAR i
ENCODING 105
SWIDTH 602 0
DWIDTH 14 0
BBX 7 17 2 0
BITMAP
06
06
00
00
FE
06
06
06
06
06
06
06
06
06
06
06
06
ENDCHAR
STARTCHAR j
ENCODING 106
SWIDTH 602 0
DWIDTH 14 0
BBX 8 22 2 -5
BITMAP
03
03
00
00
7F
03
03
03
03
03
03
03
03
03
03
03
03
03
03
03
86
FC
ENDCHAR
STARTCHAR k
ENCODING 107
SWIDTH 602 0
DWIDTH 14 0
BBX 11 17 3 0
BITMAP
C000
C000
C000
C000
C180
C100
C200
C400
C800
D000
F800
DC00
CE00
C700
C380
C180
C0E0
ENDCHAR
STARTCHAR l
ENCODING 108
SWIDTH 602 0
DWIDTH 14 0
BBX 7 17 2 0
BITMAP
FE
06
06
06
06
06
06
06
06
06
06
06
06
06
06
06
06
ENDCHAR
STARTCHAR m
ENCODING 109
SWIDTH 602 0
DWIDTH 14 0
BBX 13 13 1 0
BITMAP
9C70
A288
C308
8208
8208
8208
8208
8208
8208
8208
8208
8208
8208
ENDCHAR
STARTCHAR n
ENCODING 110
SWIDTH 602 0
DWIDTH 14 0
BBX 10 13 2 0
BITMAP
CF00
DF80
F1C0
E0C0
C0C0
C0C0
C0C0
C0C0
C0C0
C0C0
C0C0
C0C0
C0C0
ENDCHAR
STARTCHAR o
ENCODING 111
SWIDTH 602 0
DWIDTH 14 0
BBX 12 13 1 0
BITMAP
1F80
30C0
6060
6060
C030
C030
C030
C030
C030
6060
6060
30C0
1F80
ENDCHAR
STARTCHAR p
ENCODING 112
SWIDTH 602 0
DWIDTH 14 0
BBX 11 18 2 -5
BITMAP
CF00
F1C0
E0C0
C060
C060
C060
C060
C060
C060
C0C0
C0C0
F180
DF00
C000
C000
C000
C000
C000
ENDCHAR
STARTCHAR q
ENCODING 113
SWIDTH 602 0
DWIDTH 14 0
BBX 11 18 1 -5
BITMAP
1F60
31E0
6060
6060
C060
C060
C060
C060
C060
C060
60E0
71E0
1E60
0060
0060
0060
0060
0060
ENDCHAR
STARTCHAR r
ENCODING 114
SWIDTH 602 0
DWIDTH 14 0
BBX 9 13 4 0
BITMAP
CF80
F880
E080
C000
C000
C000
C000
C000
C000
C000
C000
C000
C000
ENDCHAR
STARTCHAR s
ENCODING 115
SWIDTH 602 0
DWIDTH 14 0
BBX 10 13 2 0
BITMAP
3F80
6080
C000
C000
E000
7C00
3F00
07C0
00C0
00C0
00C0
C180
FE00
ENDCHAR
STARTCHAR t
ENCODING 116
SWIDTH 602 0
DWIDTH 14 0
BBX 11 15 2 0
BITMAP
1800
1800
FFE0
1800
1800
1800
1800
1800
1800
1800
1800
1800
1800
0C00
07E0
ENDCHAR
STARTCHAR u
ENCODING 117
SWIDTH 602 0
DWIDTH 14 0
BBX 10 13 2 0
BITMAP
C0C0
C0C0
C0C0
C0C0
C0C0
C0C0
C0C0
C0C0
C0C0
C1C0
C3C0
7EC0
3CC0
ENDCHAR
STARTCHAR v
ENCODING 118
SWIDTH 602 0
DWIDTH 14 0
BBX 13 13 1 0
BITMAP
C018
6010
6020
3020
3020
3840
1840
1880
0C80
0D80
0F00
0700
0600
ENDCHAR
STARTCHAR w
ENCODING 119
SWIDTH 602 0
DWIDTH 14 0
BBX 14 13 0 0
BITMAP
C004
C304
C308
6308
6488
6488
6498
6490
6890
3850
3870
3870
3060
ENDCHAR
STARTCHAR x
ENCODING 120
SWIDTH 602 0
DWIDTH 14 0
BBX 12 13 1 0
BITMAP
E060
7040
3080
1880
1D00
0E00
0600
0F00
0B80
1180
30C0
20E0
4070
ENDCHAR
STARTCHAR y
ENCODING 121
SWIDTH 602 0
DWIDTH 14 0
BBX 13 18 1 -5
BITMAP
E018
6010
6030
3020
3020
3840
1840
1880
0C80
0D80
0F00
0700
0600
0200
0400
0400
0800
7000
ENDCHAR
STARTCHAR z
ENCODING 122
SWIDTH 602 0
DWIDTH 14 0
BBX 11 13 2 0
BITMAP
FFE0
0040
0080
0100
0300
0200
0400
0800
1000
3000
6000
4000
FFE0
ENDCHAR
STARTCHAR braceleft
ENCODING 123
SWIDTH 602 0
DWIDTH 14 0
BBX 9 21 3 -4
BITMAP
0780
0C00
1800
1800
1800
0C00
0C00
0400
0400
0800
F000
0800
0400
0400
0C00
0C00
1800
1800
1800
0C00
0780
ENDCHAR
STARTCHAR bar
ENCODING 124
SWIDTH 602 0
DWIDTH 14 0
BBX 1 21 7 -4
BITMAP
80
80
80
80
80
80
80
80
80
80
80
80
80
80
80
80
80
80
80
80
80
ENDCHAR
STARTCHAR braceright
ENCODING 125
SWIDTH 602 0
DWIDTH 14 0
BBX 9 21 3 -4
BITMAP
F800
0C00
0600
0600
0600
0C00
0C00
0800
0800
0C00
0780
0C00
0800
0800
0800
0C00
0600
0600
0600
0C00
F800
ENDCHAR
STARTCHAR asciitilde
ENCODING 126
SWIDTH 602 0
DWIDTH 14 0
BBX 12 5 1 4
BITMAP
3810
4C10
8610
8320
81C0
ENDCHAR
STARTCHAR space
ENCODING 160
SWIDTH 602 0
DWIDTH 14 0
BBX 1 1 0 0
BITMAP
00
ENDCHAR
STARTCHAR exclamdown
ENCODING 161
SWIDTH 602 0
DWIDTH 14 0
BBX 3 18 6 -5
BITMAP
E0
E0
00
00
00
40
40
40
40
40
60
60
60
60
60
60
60
60
ENDCHAR
STARTCHAR cent
ENCODING 162
SWIDTH 602 0
DWIDTH 14 0
BBX 10 17 2 0
BITMAP
0200
0200
0FC0
3E40
7200
6200
C200
C200
C200
C200
C200
4200
6240
3A40
0FC0
0200
0200
ENDCHAR
STARTCHAR sterling
ENCODING 163
SWIDTH 602 0
DWIDTH 14 0
BBX 9 17 3 0
BITMAP
0F80
1880
1000
3000
3000
3000
3000
3000
FC00
3000
3000
3000
3000
3000
6000
E000
FF80
ENDCHAR
STARTCHAR currency
ENCODING 164
SWIDTH 602 0
DWIDTH 14 0
BBX 11 12 2 3
BITMAP
C020
4060
7FC0
71C0
60C0
4040
4040
4040
60C0
71C0
FFE0
8000
ENDCHAR
STARTCHAR yen
ENCODING 165
SWIDTH 602 0
DWIDTH 14 0
BBX 13 17 1 0
BITMAP
E018
6010
7020
3060
3840
1880
1C80
0D00
0F00
0600
3FE0
0600
3FE0
0600
0600
0600
0600
ENDCHAR
STARTCHAR brokenbar
ENCODING 166
SWIDTH 602 0
DWIDTH 14 0
BBX 1 21 7 -4
BITMAP
80
80
80
80
80
80
80
80
00
00
00
00
00
80
80
80
80
80
80
80
80
ENDCHAR
STARTCHAR section
ENCODING 167
SWIDTH 602 0
DWIDTH 14 0
BBX 9 21 3 -4
BITMAP
3F00
4100
8000
8000
C000
F000
F800
DE00
8700
8300
8100
C100
7100
3E00
1F00
0780
0180
0180
0180
8300
FE00
ENDCHAR
STARTCHAR dieresis
ENCODING 168
SWIDTH 602 0
DWIDTH 14 0
BBX 7 1 4 16
BITMAP
C6
ENDCHAR
STARTCHAR copyright
ENCODING 169
SWIDTH 602 0
DWIDTH 14 0
BBX 13 17 1 0
BITMAP
0FC0
3060
4010
4010
87C8
9848
B008
A008
A008
A008
B008
9848
8FC8
4010
4010
3060
1F80
ENDCHAR
STARTCHAR ordfeminine
ENCODING 170
SWIDTH 602 0
DWIDTH 14 0
BBX 8 9 3 8
BITMAP
7C
C6
82
02
3E
42
82
86
7F
ENDCHAR
STARTCHAR guillemotleft
ENCODING 171
SWIDTH 602 0
DWIDTH 14 0
BBX 11 11 2 1
BITMAP
0420
0840
1080
3180
6300
C600
6300
3180
1080
0840
0C60
ENDCHAR
STARTCHAR logicalnot
ENCODING 172
SWIDTH 602 0
DWIDTH 14 0
BBX 12 7 1 3
BITMAP
FFF0
0010
0010
0010
0010
0010
0010
ENDCHAR
STARTCHAR hyphen
ENCODING 173
SWIDTH 602 0
DWIDTH 14 0
BBX 10 1 2 8
BITMAP
FFC0
ENDCHAR
STARTCHAR registered
ENCODING 174
SWIDTH 602 0
DWIDTH 14 0
BBX 10 10 2 7
BITMAP
1E00
6180
5E80
9240
9E40
9C40
9440
5280
6180
1E00
ENDCHAR
STARTCHAR macron
ENCODING 175
SWIDTH 602 0
DWIDTH 14 0
BBX 7 1 4 16
BITMAP
FE
ENDCHAR
STARTCHAR degree
ENCODING 176
SWIDTH 602 0
DWIDTH 14 0
BBX 4 3 5 14
BITMAP
60
90
60
ENDCHAR
STARTCHAR plusminus
ENCODING 177
SWIDTH 602 0
DWIDTH 14 0
BBX 11 13 2 0
BITMAP
0400
0400
0400
0400
FFE0
0400
0400
0400
0400
0400
0000
0000
FFE0
ENDCHAR
STARTCHAR twosuperior
ENCODING 178
SWIDTH 602 0
DWIDTH 14 0
BBX 5 9 -2 8
BITMAP
F0
88
08
08
10
20
40
C0
F8
ENDCHAR
STARTCHAR threesuperior
ENCODING 179
SWIDTH 602 0
DWIDTH 14 0
BBX 5 9 -2 8
BITMAP
F0
08
08
08
70
18
08
08
F0
ENDCHAR
STARTCHAR acute
ENCODING 180
SWIDTH 602 0
DWIDTH 14 0
BBX 5 3 4 14
BITMAP
38
60
C0
ENDCHAR
STARTCHAR mu
ENCODING 181
SWIDTH 602 0
DWIDTH 14 0
BBX 10 17 2 -4
BITMAP
C0C0
C0C0
C0C0
C0C0
C0C0
C0C0
C0C0
C0C0
C0C0
C1C0
C3C0
FEC0
FCC0
C000
C000
C000
C000
ENDCHAR
STARTCHAR paragraph
ENCODING 182
SWIDTH 602 0
DWIDTH 14 0
BBX 8 21 3 -4
BITMAP
7F
F9
F9
F9
F9
F9
79
79
19
09
09
09
09
09
09
09
09
09
09
09
09
ENDCHAR
STARTCHAR periodcentered
ENCODING 183
SWIDTH 602 0
DWIDTH 14 0
BBX 3 2 6 6
BITMAP
E0
E0
ENDCHAR
STARTCHAR cedilla
ENCODING 184
SWIDTH 602 0
DWIDTH 14 0
BBX 4 5 6 -5
BITMAP
E0
60
10
10
E0
ENDCHAR
STARTCHAR onesuperior
ENCODING 185
SWIDTH 602 0
DWIDTH 14 0
BBX 5 9 -2 8
BITMAP
60
E0
20
20
20
20
20
20
F8
ENDCHAR
STARTCHAR ordmasculine
ENCODING 186
SWIDTH 602 0
DWIDTH 14 0
BBX 9 9 3 8
BITMAP
3E00
6300
C180
C180
C180
C180
C180
6300
3E00
ENDCHAR
STARTCHAR guillemotright
ENCODING 187
SWIDTH 602 0
DWIDTH 14 0
BBX 11 11 2 1
BITMAP
C600
4200
2100
3180
18C0
0C60
18C0
3180
2100
4200
8400
ENDCHAR
STARTCHAR onequarter
ENCODING 188
SWIDTH 602 0
DWIDTH 14 0
BBX 14 17 2 0
BITMAP
600C
E018
2010
2020
2040
20C0
2080
2100
FB18
0218
0428
0828
0848
1088
20FC
6008
C008
ENDCHAR
STARTCHAR onehalf
ENCODING 189
SWIDTH 602 0
DWIDTH 14 0
BBX 14 17 2 0
BITMAP
600C
E018
2010
2020
2040
20C0
2080
2100
FB78
0244
0404
0804
0808
1010
2020
6060
C07C
ENDCHAR
STARTCHAR threequarters
ENCODING 190
SWIDTH 602 0
DWIDTH 14 0
BBX 14 17 2 0
BITMAP
F00C
0818
0810
0820
7040
18C0
0880
0900
F318
0218
0428
0828
0848
1088
20FC
6008
C008
ENDCHAR
STARTCHAR questiondown
ENCODING 191
SWIDTH 602 0
DWIDTH 14 0
BBX 10 18 2 -5
BITMAP
0C00
0C00
0000
0000
0000
0600
0600
0600
0400
0800
1000
6000
4000
C000
C000
C040
6040
3FC0
ENDCHAR
STARTCHAR Agrave
ENCODING 192
SWIDTH 602 0
DWIDTH 14 0
BBX 13 21 -1 0
BITMAP
0E00
0300
0180
0000
0600
0700
0B00
0B00
0980
1180
1180
10C0
30C0
20C0
20E0
7FE0
4060
4030
8030
8030
8018
ENDCHAR
STARTCHAR Aacute
ENCODING 193
SWIDTH 602 0
DWIDTH 14 0
BBX 13 21 -1 0
BITMAP
0700
0C00
1800
0000
0600
0700
0B00
0B00
0980
1180
1180
10C0
30C0
20C0
20E0
7FE0
4060
4030
8030
8030
8018
ENDCHAR
STARTCHAR Acircumflex
ENCODING 194
SWIDTH 602 0
DWIDTH 14 0
BBX 13 21 -1 0
BITMAP
0F00
1F80
39C0
0000
0600
0700
0B00
0B00
0980
1180
1180
10C0
30C0
20C0
20E0
7FE0
4060
4030
8030
8030
8018
ENDCHAR
STARTCHAR Atilde
ENCODING 195
SWIDTH 602 0
DWIDTH 14 0
BBX 13 20 -1 0
BITMAP
1EC0
3780
0000
0600
0700
0B00
0B00
0980
1180
1180
10C0
30C0
20C0
20E0
7FE0
4060
4030
8030
8030
8018
ENDCHAR
STARTCHAR Adieresis
ENCODING 196
SWIDTH 602 0
DWIDTH 14 0
BBX 13 19 -1 0
BITMAP
3180
0000
0600
0700
0B00
0B00
0980
1180
1180
10C0
30C0
20C0
20E0
7FE0
4060
4030
8030
8030
8018
ENDCHAR
STARTCHAR Aring
ENCODING 197
SWIDTH 602 0
DWIDTH 14 0
BBX 13 22 -1 0
BITMAP
0600
0900
0900
0600
0000
0600
0700
0B00
0B00
0980
1180
1180
10C0
30C0
20C0
20E0
7FE0
4060
4030
8030
8030
8018
ENDCHAR
STARTCHAR AE
ENCODING 198
SWIDTH 602 0
DWIDTH 14 0
BBX 12 17 -1 0
BITMAP
07E0
0700
0700
0B00
0B00
0B00
1300
1300
13E0
2300
2300
6300
7F00
4300
8300
8300
83F0
ENDCHAR
STARTCHAR Ccedilla
ENCODING 199
SWIDTH 602 0
DWIDTH 14 0
BBX 12 22 1 -5
BITMAP
07F0
1830
3000
6000
6000
C000
C000
C000
C000
C000
C000
C000
6000
6000
3000
1C10
07F0
0C00
0600
0100
0100
0E00
ENDCHAR
STARTCHAR Egrave
ENCODING 200
SWIDTH 602 0
DWIDTH 14 0
BBX 10 21 3 0
BITMAP
3800
0C00
0600
0000
FF80
C000
C000
C000
C000
C000
C000
FF00
C000
C000
C000
C000
C000
C000
C000
C000
FFC0
ENDCHAR
STARTCHAR Eacute
ENCODING 201
SWIDTH 602 0
DWIDTH 14 0
BBX 10 21 3 0
BITMAP
0E00
1800
3000
0000
FF80
C000
C000
C000
C000
C000
C000
FF00
C000
C000
C000
C000
C000
C000
C000
C000
FFC0
ENDCHAR
STARTCHAR Ecircumflex
ENCODING 202
SWIDTH 602 0
DWIDTH 14 0
BBX 10 21 3 0
BITMAP
1E00
3F00
7380
0000
FF80
C000
C000
C000
C000
C000
C000
FF00
C000
C000
C000
C000
C000
C000
C000
C000
FFC0
ENDCHAR
STARTCHAR Edieresis
ENCODING 203
SWIDTH 602 0
DWIDTH 14 0
BBX 10 19 3 0
BITMAP
6300
0000
FF80
C000
C000
C000
C000
C000
C000
FF00
C000
C000
C000
C000
C000
C000
C000
C000
FFC0
ENDCHAR
STARTCHAR Igrave
ENCODING 204
SWIDTH 602 0
DWIDTH 14 0
BBX 10 21 2 0
BITMAP
1C00
0600
0300
0000
FFC0
0C00
0C00
0C00
0C00
0C00
0C00
0C00
0C00
0C00
0C00
0C00
0C00
0C00
0C00
0C00
FFC0
ENDCHAR
STARTCHAR Iacute
ENCODING 205
SWIDTH 602 0
DWIDTH 14 0
BBX 10 21 2 0
BITMAP
0E00
1800
3000
0000
FFC0
0C00
0C00
0C00
0C00
0C00
0C00
0C00
0C00
0C00
0C00
0C00
0C00
0C00
0C00
0C00
FFC0
ENDCHAR
STARTCHAR Icircumflex
ENCODING 206
SWIDTH 602 0
DWIDTH 14 0
BBX 10 21 2 0
BITMAP
1E00
3F00
7380
0000
FFC0
0C00
0C00
0C00
0C00
0C00
0C00
0C00
0C00
0C00
0C00
0C00
0C00
0C00
0C00
0C00
FFC0
ENDCHAR
STARTCHAR Idieresis
ENCODING 207
SWIDTH 602 0
DWIDTH 14 0
BBX 10 19 2 0
BITMAP
6300
0000
FFC0
0C00
0C00
0C00
0C00
0C00
0C00
0C00
0C00
0C00
0C00
0C00
0C00
0C00
0C00
0C00
FFC0
ENDCHAR
STARTCHAR Eth
ENCODING 208
SWIDTH 602 0
DWIDTH 14 0
BBX 13 17 0 0
BITMAP
7F80
60E0
6070
6030
6018
6018
6018
FC18
6018
6018
6018
6018
6030
6030
6060
60E0
7F80
ENDCHAR
STARTCHAR Ntilde
ENCODING 209
SWIDTH 602 0
DWIDTH 14 0
BBX 11 20 2 0
BITMAP
1EC0
3780
0000
C020
E020
E020
F020
B020
9820
9820
8C20
8E20
8620
8320
8320
81A0
81E0
80E0
8060
8060
ENDCHAR
STARTCHAR Ograve
ENCODING 210
SWIDTH 602 0
DWIDTH 14 0
BBX 13 21 1 0
BITMAP
0E00
0300
0180
0000
0F80
38E0
3060
6030
6030
C018
C018
C018
C018
C018
C018
C018
6030
6030
3060
38E0
0F80
ENDCHAR
STARTCHAR Oacute
ENCODING 211
SWIDTH 602 0
DWIDTH 14 0
BBX 13 21 1 0
BITMAP
0380
0600
0C00
0000
0F80
38E0
3060
6030
6030
C018
C018
C018
C018
C018
C018
C018
6030
6030
3060
38E0
0F80
ENDCHAR
STARTCHAR Ocircumflex
ENCODING 212
SWIDTH 602 0
DWIDTH 14 0
BBX 13 21 1 0
BITMAP
0780
0FC0
1CE0
0000
0F80
38E0
3060
6030
6030
C018
C018
C018
C018
C018
C018
C018
6030
6030
3060
38E0
0F80
ENDCHAR
STARTCHAR Otilde
ENCODING 213
SWIDTH 602 0
DWIDTH 14 0
BBX 13 20 1 0
BITMAP
0F60
1BC0
0000
0F80
38E0
3060
6030
6030
C018
C018
C018
C018
C018
C018
C018
6030
6030
3060
38E0
0F80
ENDCHAR
STARTCHAR Odieresis
ENCODING 214
SWIDTH 602 0
DWIDTH 14 0
BBX 13 19 1 0
BITMAP
18C0
0000
0F80
38E0
3060
6030
6030
C018
C018
C018
C018
C018
C018
C018
6030
6030
3060
38E0
0F80
ENDCHAR
STARTCHAR multiply
ENCODING 215
SWIDTH 602 0
DWIDTH 14 0
BBX 12 13 1 0
BITMAP
C010
4030
2040
1080
1980
0F00
0600
0F00
1900
1080
2040
C020
8030
ENDCHAR
STARTCHAR Oslash
ENCODING 216
SWIDTH 602 0
DWIDTH 14 0
BBX 13 17 1 0
BITMAP
0FF8
3870
3030
6070
6078
C098
C118
C118
C218
C418
C418
C818
D030
7030
6060
78E0
FF80
ENDCHAR
STARTCHAR Ugrave
ENCODING 217
SWIDTH 602 0
DWIDTH 14 0
BBX 11 21 2 0
BITMAP
1C00
0600
0300
0000
C020
C020
C020
C020
C020
C020
C020
C020
C020
C020
C020
C020
C020
C020
4040
60C0
3F80
ENDCHAR
STARTCHAR Uacute
ENCODING 218
SWIDTH 602 0
DWIDTH 14 0
BBX 11 21 2 0
BITMAP
0700
0C00
1800
0000
C020
C020
C020
C020
C020
C020
C020
C020
C020
C020
C020
C020
C020
C020
4040
60C0
3F80
ENDCHAR
STARTCHAR Ucircumflex
ENCODING 219
SWIDTH 602 0
DWIDTH 14 0
BBX 11 21 2 0
BITMAP
1E00
3F00
7380
0000
C020
C020
C020
C020
C020
C020
C020
C020
C020
C020
C020
C020
C020
C020
4040
60C0
3F80
ENDCHAR
STARTCHAR Udieresis
ENCODING 220
SWIDTH 602 0
DWIDTH 14 0
BBX 11 19 2 0
BITMAP
3180
0000
C020
C020
C020
C020
C020
C020
C020
C020
C020
C020
C020
C020
C020
C020
4040
60C0
3F80
ENDCHAR
STARTCHAR Yacute
ENCODING 221
SWIDTH 602 0
DWIDTH 14 0
BBX 13 21 0 0
BITMAP
0380
0600
0C00
0000
E008
6018
3010
3820
1820
1C40
0CC0
0680
0700
0300
0300
0300
0300
0300
0300
0300
0300
ENDCHAR
STARTCHAR Thorn
ENCODING 222
SWIDTH 602 0
DWIDTH 14 0
BBX 11 17 3 0
BITMAP
C000
C000
C000
FF80
C0C0
C060
C060
C060
C060
C060
C0C0
C180
FE00
C000
C000
C000
C000
ENDCHAR
STARTCHAR germandbls
ENCODING 223
SWIDTH 602 0
DWIDTH 14 0
BBX 11 19 2 0
BITMAP
3C00
4700
C300
C300
C300
C600
C400
C800
C800
CC00
C600
C300
C1C0
C0E0
C060
C060
C060
C8C0
CF80
ENDCHAR
STARTCHAR agrave
ENCODING 224
SWIDTH 602 0
DWIDTH 14 0
BBX 12 17 2 0
BITMAP
1C00
0600
0300
0000
3F80
41C0
00C0
00C0
00C0
1FC0
70C0
60C0
C0C0
C0C0
C0C0
63C0
3EF0
ENDCHAR
STARTCHAR aacute
ENCODING 225
SWIDTH 602 0
DWIDTH 14 0
BBX 12 17 2 0
BITMAP
0700
0C00
1800
0000
3F80
41C0
00C0
00C0
00C0
1FC0
70C0
60C0
C0C0
C0C0
C0C0
63C0
3EF0
ENDCHAR
STARTCHAR acircumflex
ENCODING 226
SWIDTH 602 0
DWIDTH 14 0
BBX 12 17 2 0
BITMAP
0F00
1F80
39C0
0000
3F80
41C0
00C0
00C0
00C0
1FC0
70C0
60C0
C0C0
C0C0
C0C0
63C0
3EF0
ENDCHAR
STARTCHAR atilde
ENCODING 227
SWIDTH 602 0
DWIDTH 14 0
BBX 12 16 2 0
BITMAP
1EC0
3780
0000
3F80
41C0
00C0
00C0
00C0
1FC0
70C0
60C0
C0C0
C0C0
C0C0
63C0
3EF0
ENDCHAR
STARTCHAR adieresis
ENCODING 228
SWIDTH 602 0
DWIDTH 14 0
BBX 12 15 2 0
BITMAP
3180
0000
3F80
41C0
00C0
00C0
00C0
1FC0
70C0
60C0
C0C0
C0C0
C0C0
63C0
3EF0
ENDCHAR
STARTCHAR aring
ENCODING 229
SWIDTH 602 0
DWIDTH 14 0
BBX 12 18 2 0
BITMAP
0600
0900
0900
0600
0000
3F80
41C0
00C0
00C0
00C0
1FC0
70C0
60C0
C0C0
C0C0
C0C0
63C0
3EF0
ENDCHAR
STARTCHAR ae
ENCODING 230
SWIDTH 602 0
DWIDTH 14 0
BBX 14 13 0 0
BITMAP
7EF0
4398
030C
030C
030C
3FFC
6300
C300
C300
C300
C300
6784
3DFC
ENDCHAR
STARTCHAR ccedilla
ENCODING 231
SWIDTH 602 0
DWIDTH 14 0
BBX 11 18 2 -5
BITMAP
0FE0
3860
6000
6000
C000
C000
C000
C000
C000
6000
6000
3820
0FE0
0400
0600
0100
0100
0E00
ENDCHAR
STARTCHAR egrave
ENCODING 232
SWIDTH 602 0
DWIDTH 14 0
BBX 11 17 2 0
BITMAP
1C00
0600
0300
0000
1F80
31C0
60C0
6060
C060
C060
FFE0
C000
C000
4000
6000
3020
0FE0
ENDCHAR
STARTCHAR eacute
ENCODING 233
SWIDTH 602 0
DWIDTH 14 0
BBX 11 17 2 0
BITMAP
0700
0C00
1800
0000
1F80
31C0
60C0
6060
C060
C060
FFE0
C000
C000
4000
6000
3020
0FE0
ENDCHAR
STARTCHAR ecircumflex
ENCODING 234
SWIDTH 602 0
DWIDTH 14 0
BBX 11 17 2 0
BITMAP
1E00
3F00
7380
0000
1F80
31C0
60C0
6060
C060
C060
FFE0
C000
C000
4000
6000
3020
0FE0
ENDCHAR
STARTCHAR edieresis
ENCODING 235
SWIDTH 602 0
DWIDTH 14 0
BBX 11 15 2 0
BITMAP
3180
0000
1F80
31C0
60C0
6060
C060
C060
FFE0
C000
C000
4000
6000
3020
0FE0
ENDCHAR
STARTCHAR igrave
ENCODING 236
SWIDTH 602 0
DWIDTH 14 0
BBX 8 17 2 0
BITMAP
1C
06
03
00
FE
06
06
06
06
06
06
06
06
06
06
06
06
ENDCHAR
STARTCHAR iacute
ENCODING 237
SWIDTH 602 0
DWIDTH 14 0
BBX 7 17 2 0
BITMAP
0E
18
30
00
FE
06
06
06
06
06
06
06
06
06
06
06
06
ENDCHAR
STARTCHAR icircumflex
ENCODING 238
SWIDTH 602 0
DWIDTH 14 0
BBX 9 17 2 0
BITMAP
1E00
3F00
7380
0000
FE00
0600
0600
0600
0600
0600
0600
0600
0600
0600
0600
0600
0600
ENDCHAR
STARTCHAR idieresis
ENCODING 239
SWIDTH 602 0
DWIDTH 14 0
BBX 9 15 2 0
BITMAP
3180
0000
FE00
0600
0600
0600
0600
0600
0600
0600
0600
0600
0600
0600
0600
ENDCHAR
STARTCHAR eth
ENCODING 240
SWIDTH 602 0
DWIDTH 14 0
BBX 12 17 1 0
BITMAP
FF00
1F80
7300
0180
0FC0
30E0
6060
6070
C030
C030
C030
C030
C030
6060
6060
30C0
1F80
ENDCHAR
STARTCHAR ntilde
ENCODING 241
SWIDTH 602 0
DWIDTH 14 0
BBX 10 16 2 0
BITMAP
3D80
6F00
0000
CF00
DF80
F1C0
E0C0
C0C0
C0C0
C0C0
C0C0
C0C0
C0C0
C0C0
C0C0
C0C0
ENDCHAR
STARTCHAR ograve
ENCODING 242
SWIDTH 602 0
DWIDTH 14 0
BBX 12 17 1 0
BITMAP
0E00
0300
0180
0000
1F80
30C0
6060
6060
C030
C030
C030
C030
C030
6060
6060
30C0
1F80
ENDCHAR
STARTCHAR oacute
ENCODING 243
SWIDTH 602 0
DWIDTH 14 0
BBX 12 17 1 0
BITMAP
0700
0C00
1800
0000
1F80
30C0
6060
6060
C030
C030
C030
C030
C030
6060
6060
30C0
1F80
ENDCHAR
STARTCHAR ocircumflex
ENCODING 244
SWIDTH 602 0
DWIDTH 14 0
BBX 12 17 1 0
BITMAP
0F00
1F80
39C0
0000
1F80
30C0
6060
6060
C030
C030
C030
C030
C030
6060
6060
30C0
1F80
ENDCHAR
STARTCHAR otilde
ENCODING 245
SWIDTH 602 0
DWIDTH 14 0
BBX 12 16 1 0
BITMAP
1EC0
3780
0000
1F80
30C0
6060
6060
C030
C030
C030
C030
C030
6060
6060
30C0
1F80
ENDCHAR
STARTCHAR odieresis
ENCODING 246
SWIDTH 602 0
DWIDTH 14 0
BBX 12 15 1 0
BITMAP
3180
0000
1F80
30C0
6060
6060
C030
C030
C030
C030
C030
6060
6060
30C0
1F80
ENDCHAR
STARTCHAR divide
ENCODING 247
SWIDTH 602 0
DWIDTH 14 0
BBX 12 13 1 0
BITMAP
0600
0600
0000
0000
0000
0000
FFF0
0000
0000
0000
0000
0600
0600
ENDCHAR
STARTCHAR oslash
ENCODING 248
SWIDTH 602 0
DWIDTH 14 0
BBX 12 13 1 0
BITMAP
1FF0
30E0
60E0
60F0
C130
C230
C630
C430
C830
F060
7060
70C0
FF80
ENDCHAR
STARTCHAR ugrave
ENCODING 249
SWIDTH 602 0
DWIDTH 14 0
BBX 10 17 2 0
BITMAP
1C00
0600
0300
0000
C0C0
C0C0
C0C0
C0C0
C0C0
C0C0
C0C0
C0C0
C0C0
C1C0
C3C0
7EC0
3CC0
ENDCHAR
STARTCHAR uacute
ENCODING 250
SWIDTH 602 0
DWIDTH 14 0
BBX 10 17 2 0
BITMAP
0E00
1800
3000
0000
C0C0
C0C0
C0C0
C0C0
C0C0
C0C0
C0C0
C0C0
C0C0
C1C0
C3C0
7EC0
3CC0
ENDCHAR
STARTCHAR ucircumflex
ENCODING 251
SWIDTH 602 0
DWIDTH 14 0
BBX 10 17 2 0
BITMAP
1E00
3F00
7380
0000
C0C0
C0C0
C0C0
C0C0
C0C0
C0C0
C0C0
C0C0
C0C0
C1C0
C3C0
7EC0
3CC0
ENDCHAR
STARTCHAR udieresis
ENCODING 252
SWIDTH 602 0
DWIDTH 14 0
BBX 10 15 2 0
BITMAP
3180
0000
C0C0
C0C0
C0C0
C0C0
C0C0
C0C0
C0C0
C0C0
C0C0
C1C0
C3C0
7EC0
3CC0
ENDCHAR
STARTCHAR yacute
ENCODING 253
SWIDTH 602 0
DWIDTH 14 0
BBX 13 22 1 -5
BITMAP
0380
0600
0C00
0000
E018
6010
6030
3020
3020
3840
1840
1880
0C80
0D80
0F00
0700
0600
0200
0400
0400
0800
7000
ENDCHAR
STARTCHAR thorn
ENCODING 254
SWIDTH 602 0
DWIDTH 14 0
BBX 11 21 2 -5
BITMAP
C000
C000
C000
CF00
F1C0
E0C0
C060
C060
C060
C060
C060
C060
C0C0
C0C0
F180
DF00
C000
C000
C000
C000
C000
ENDCHAR
STARTCHAR ydieresis
ENCODING 255
SWIDTH 602 0
DWIDTH 14 0
BBX 13 20 1 -5
BITMAP
18C0
0000
E018
6010
6030
3020
3020
3840
1840
1880
0C80
0D80
0F00
0700
0600
0200
0400
0400
0800
7000
ENDCHAR
STARTCHAR Amacron
ENCODING 256
SWIDTH 602 0
DWIDTH 14 0
BBX 13 19 -1 0
BITMAP
1FC0
0000
0600
0700
0B00
0B00
0980
1180
1180
10C0
30C0
20C0
20E0
7FE0
4060
4030
8030
8030
8018
ENDCHAR
STARTCHAR amacron
ENCODING 257
SWIDTH 602 0
DWIDTH 14 0
BBX 12 15 2 0
BITMAP
1FC0
0000
3F80
41C0
00C0
00C0
00C0
1FC0
70C0
60C0
C0C0
C0C0
C0C0
63C0
3EF0
ENDCHAR
STARTCHAR Abreve
ENCODING 258
SWIDTH 602 0
DWIDTH 14 0
BBX 13 21 -1 0
BITMAP
30C0
1980
0F00
0000
0600
0700
0B00
0B00
0980
1180
1180
10C0
30C0
20C0
20E0
7FE0
4060
4030
8030
8030
8018
ENDCHAR
STARTCHAR abreve
ENCODING 259
SWIDTH 602 0
DWIDTH 14 0
BBX 12 17 2 0
BITMAP
1860
0CC0
0780
0000
3F80
41C0
00C0
00C0
00C0
1FC0
70C0
60C0
C0C0
C0C0
C0C0
63C0
3EF0
ENDCHAR
STARTCHAR Aogonek
ENCODING 260
SWIDTH 602 0
DWIDTH 14 0
BBX 13 22 -1 -5
BITMAP
0600
0700
0B00
0B00
0980
1180
1180
10C0
30C0
20C0
20E0
7FE0
4060
4030
8030
8030
8018
0180
0300
0300
0300
01C0
ENDCHAR
STARTCHAR aogonek
ENCODING 261
SWIDTH 602 0
DWIDTH 14 0
BBX 12 18 2 -5
BITMAP
3F80
41C0
00C0
00C0
00C0
1FC0
70C0
60C0
C0C0
C0C0
C0C0
63C0
3EF0
0600
0C00
0C00
0C00
0700
ENDCHAR
STARTCHAR Cacute
ENCODING 262
SWIDTH 602 0
DWIDTH 14 0
BBX 12 21 1 0
BITMAP
01C0
0300
0600
0000
07F0
1830
3000
6000
6000
C000
C000
C000
C000
C000
C000
C000
6000
6000
3000
1C10
07F0
ENDCHAR
STARTCHAR cacute
ENCODING 263
SWIDTH 602 0
DWIDTH 14 0
BBX 11 17 2 0
BITMAP
0380
0600
0C00
0000
0FE0
3860
6000
6000
C000
C000
C000
C000
C000
6000
6000
3820
0FE0
ENDCHAR
STARTCHAR Ccircumflex
ENCODING 264
SWIDTH 602 0
DWIDTH 14 0
BBX 12 21 1 0
BITMAP
0F00
1F80
39C0
0000
07F0
1830
3000
6000
6000
C000
C000
C000
C000
C000
C000
C000
6000
6000
3000
1C10
07F0
ENDCHAR
STARTCHAR ccircumflex
ENCODING 265
SWIDTH 602 0
DWIDTH 14 0
BBX 11 17 2 0
BITMAP
0F00
1F80
39C0
0000
0FE0
3860
6000
6000
C000
C000
C000
C000
C000
6000
6000
3820
0FE0
ENDCHAR
STARTCHAR Cdotaccent
ENCODING 266
SWIDTH 602 0
DWIDTH 14 0
BBX 12 20 1 0
BITMAP
0600
0600
0000
07F0
1830
3000
6000
6000
C000
C000
C000
C000
C000
C000
C000
6000
6000
3000
1C10
07F0
ENDCHAR
STARTCHAR cdotaccent
ENCODING 267
SWIDTH 602 0
DWIDTH 14 0
BBX 11 16 2 0
BITMAP
0600
0600
0000
0FE0
3860
6000
6000
C000
C000
C000
C000
C000
6000
6000
3820
0FE0
ENDCHAR
STARTCHAR Ccaron
ENCODING 268
SWIDTH 602 0
DWIDTH 14 0
BBX 12 21 1 0
BITMAP
39C0
1F80
0F00
0000
07F0
1830
3000
6000
6000
C000
C000
C000
C000
C000
C000
C000
6000
6000
3000
1C10
07F0
ENDCHAR
STARTCHAR ccaron
ENCODING 269
SWIDTH 602 0
DWIDTH 14 0
BBX 11 17 2 0
BITMAP
39C0
1F80
0F00
0000
0FE0
3860
6000
6000
C000
C000
C000
C000
C000
6000
6000
3820
0FE0
ENDCHAR
STARTCHAR Dcaron
ENCODING 270
SWIDTH 602 0
DWIDTH 14 0
BBX 12 21 2 0
BITMAP
7380
3F00
1E00
0000
FF00
C1C0
C0E0
C060
C030
C030
C030
C030
C030
C030
C030
C030
C060
C060
C0C0
C1C0
FF00
ENDCHAR
STARTCHAR dcaron
ENCODING 271
SWIDTH 602 0
DWIDTH 14 0
BBX 12 21 2 0
BITMAP
0E70
07E0
03C0
0000
0060
0060
0060
0060
1F60
31E0
6060
6060
C060
C060
C060
C060
C060
C060
60E0
71E0
1E60
ENDCHAR
STARTCHAR Dcroat
ENCODING 272
SWIDTH 602 0
DWIDTH 14 0
BBX 13 17 0 0
BITMAP
7F80
60E0
6070
6030
6018
6018
6018
FC18
6018
6018
6018
6018
6030
6030
6060
60E0
7F80
ENDCHAR
STARTCHAR dcroat
ENCODING 273
SWIDTH 602 0
DWIDTH 14 0
BBX 13 17 2 0
BITMAP
0060
0060
1FF8
0060
1F60
31E0
6060
6060
C060
C060
C060
C060
C060
C060
60E0
71E0
1E60
ENDCHAR
STARTCHAR Emacron
ENCODING 274
SWIDTH 602 0
DWIDTH 14 0
BBX 10 19 3 0
BITMAP
FE00
0000
FF80
C000
C000
C000
C000
C000
C000
FF00
C000
C000
C000
C000
C000
C000
C000
C000
FFC0
ENDCHAR
STARTCHAR emacron
ENCODING 275
SWIDTH 602 0
DWIDTH 14 0
BBX 11 15 2 0
BITMAP
3F80
0000
1F80
31C0
60C0
6060
C060
C060
FFE0
C000
C000
4000
6000
3020
0FE0
ENDCHAR
STARTCHAR Ebreve
ENCODING 276
SWIDTH 602 0
DWIDTH 14 0
BBX 10 21 3 0
BITMAP
C300
6600
3C00
0000
FF80
C000
C000
C000
C000
C000
C000
FF00
C000
C000
C000
C000
C000
C000
C000
C000
FFC0
ENDCHAR
STARTCHAR ebreve
ENCODING 277
SWIDTH 602 0
DWIDTH 14 0
BBX 11 17 2 0
BITMAP
30C0
1980
0F00
0000
1F80
31C0
60C0
6060
C060
C060
FFE0
C000
C000
4000
6000
3020
0FE0
ENDCHAR
STARTCHAR Edotaccent
ENCODING 278
SWIDTH 602 0
DWIDTH 14 0
BBX 10 20 3 0
BITMAP
1800
1800
0000
FF80
C000
C000
C000
C000
C000
C000
FF00
C000
C000
C000
C000
C000
C000
C000
C000
FFC0
ENDCHAR
STARTCHAR edotaccent
ENCODING 279
SWIDTH 602 0
DWIDTH 14 0
BBX 11 16 2 0
BITMAP
0600
0600
0000
1F80
31C0
60C0
6060
C060
C060
FFE0
C000
C000
4000
6000
3020
0FE0
ENDCHAR
STARTCHAR Eogonek
ENCODING 280
SWIDTH 602 0
DWIDTH 14 0
BBX 10 22 3 -5
BITMAP
FF80
C000
C000
C000
C000
C000
C000
FF00
C000
C000
C000
C000
C000
C000
C000
C000
FFC0
1800
3000
3000
3000
1C00
ENDCHAR
STARTCHAR eogonek
ENCODING 281
SWIDTH 602 0
DWIDTH 14 0
BBX 11 18 2 -5
BITMAP
1F80
31C0
60C0
6060
C060
C060
FFE0
C000
C000
4000
6000
3020
0FE0
0600
0C00
0C00
0C00
0700
ENDCHAR
STARTCHAR Ecaron
ENCODING 282
SWIDTH 602 0
DWIDTH 14 0
BBX 10 21 3 0
BITMAP
E700
7E00
3C00
0000
FF80
C000
C000
C000
C000
C000
C000
FF00
C000
C000
C000
C000
C000
C000
C000
C000
FFC0
ENDCHAR
STARTCHAR ecaron
ENCODING 283
SWIDTH 602 0
DWIDTH 14 0
BBX 11 17 2 0
BITMAP
39C0
1F80
0F00
0000
1F80
31C0
60C0
6060
C060
C060
FFE0
C000
C000
4000
6000
3020
0FE0
ENDCHAR
STARTCHAR Gcircumflex
ENCODING 284
SWIDTH 602 0
DWIDTH 14 0
BBX 12 21 1 0
BITMAP
0F00
1F80
39C0
0000
07F0
1810
3000
6000
6000
C000
C000
C000
C000
C000
C030
C030
6030
6030
3030
1C30
07E0
ENDCHAR
STARTCHAR gcircumflex
ENCODING 285
SWIDTH 602 0
DWIDTH 14 0
BBX 11 22 2 -5
BITMAP
0F00
1F80
39C0
0000
1FA0
31E0
60E0
4060
C060
C060
C060
C060
C060
C060
60E0
71E0
1E60
0060
0060
0040
4080
7F00
ENDCHAR
STARTCHAR Gbreve
ENCODING 286
SWIDTH 602 0
DWIDTH 14 0
BBX 12 21 1 0
BITMAP
30C0
1980
0F00
0000
07F0
1810
3000
6000
6000
C000
C000
C000
C000
C000
C030
C030
6030
6030
3030
1C30
07E0
ENDCHAR
STARTCHAR gbreve
ENCODING 287
SWIDTH 602 0
DWIDTH 14 0
BBX 11 22 2 -5
BITMAP
30C0
1980
0F00
0000
1FA0
31E0
60E0
4060
C060
C060
C060
C060
C060
C060
60E0
71E0
1E60
0060
0060
0040
4080
7F00
ENDCHAR
STARTCHAR Gdotaccent
ENCODING 288
SWIDTH 602 0
DWIDTH 14 0
BBX 12 20 1 0
BITMAP
0600
0600
0000
07F0
1810
3000
6000
6000
C000
C000
C000
C000
C000
C030
C030
6030
6030
3030
1C30
07E0
ENDCHAR
STARTCHAR gdotaccent
ENCODING 289
SWIDTH 602 0
DWIDTH 14 0
BBX 11 21 2 -5
BITMAP
0600
0600
0000
1FA0
31E0
60E0
4060
C060
C060
C060
C060
C060
C060
60E0
71E0
1E60
0060
0060
0040
4080
7F00
ENDCHAR
STARTCHAR Gcommaaccent
ENCODING 290
SWIDTH 602 0
DWIDTH 14 0
BBX 12 26 1 -9
BITMAP
07F0
1810
3000
6000
6000
C000
C000
C000
C000
C000
C030
C030
6030
6030
3030
1C30
07E0
0000
0700
0700
0700
0700
0100
0300
0200
0600
ENDCHAR
STARTCHAR gcommaaccent
ENCODING 291
SWIDTH 602 0
DWIDTH 14 0
BBX 11 25 2 -5
BITMAP
0300
0600
0400
0700
0700
0700
0000
1FA0
31E0
60E0
4060
C060
C060
C060
C060
C060
C060
60E0
71E0
1E60
0060
0060
0040
4080
7F00
ENDCHAR
STARTCHAR Hcircumflex
ENCODING 292
SWIDTH 602 0
DWIDTH 14 0
BBX 11 21 2 0
BITMAP
0F00
1F80
39C0
0000
C060
C060
C060
C060
C060
C060
C060
C060
FFE0
C060
C060
C060
C060
C060
C060
C060
C060
ENDCHAR
STARTCHAR hcircumflex
ENCODING 293
SWIDTH 602 0
DWIDTH 14 0
BBX 11 21 1 0
BITMAP
3C00
7E00
E700
0000
6000
6000
6000
6000
6780
6FC0
78E0
7060
6060
6060
6060
6060
6060
6060
6060
6060
6060
ENDCHAR
STARTCHAR Hbar
ENCODING 294
SWIDTH 602 0
DWIDTH 14 0
BBX 11 17 2 0
BITMAP
C060
C060
C060
FFE0
C060
C060
C060
C060
FFE0
C060
C060
C060
C060
C060
C060
C060
C060
ENDCHAR
STARTCHAR hbar
ENCODING 295
SWIDTH 602 0
DWIDTH 14 0
BBX 12 17 0 0
BITMAP
3000
3000
FFC0
3000
33C0
37E0
3C70
3830
3030
3030
3030
3030
3030
3030
3030
3030
3030
ENDCHAR
STARTCHAR Itilde
ENCODING 296
SWIDTH 602 0
DWIDTH 14 0
BBX 10 20 2 0
BITMAP
3D80
6F00
0000
FFC0
0C00
0C00
0C00
0C00
0C00
0C00
0C00
0C00
0C00
0C00
0C00
0C00
0C00
0C00
0C00
FFC0
ENDCHAR
STARTCHAR itilde
ENCODING 297
SWIDTH 602 0
DWIDTH 14 0
BBX 8 16 2 0
BITMAP
7B
DE
00
FE
06
06
06
06
06
06
06
06
06
06
06
06
ENDCHAR
STARTCHAR Imacron
ENCODING 298
SWIDTH 602 0
DWIDTH 14 0
BBX 10 19 2 0
BITMAP
3F80
0000
FFC0
0C00
0C00
0C00
0C00
0C00
0C00
0C00
0C00
0C00
0C00
0C00
0C00
0C00
0C00
0C00
FFC0
ENDCHAR
STARTCHAR imacron
ENCODING 299
SWIDTH 602 0
DWIDTH 14 0
BBX 8 15 2 0
BITMAP
7F
00
FE
06
06
06
06
06
06
06
06
06
06
06
06
ENDCHAR
STARTCHAR Ibreve
ENCODING 300
SWIDTH 602 0
DWIDTH 14 0
BBX 10 21 2 0
BITMAP
6180
3300
1E00
0000
FFC0
0C00
0C00
0C00
0C00
0C00
0C00
0C00
0C00
0C00
0C00
0C00
0C00
0C00
0C00
0C00
FFC0
ENDCHAR
STARTCHAR ibreve
ENCODING 301
SWIDTH 602 0
DWIDTH 14 0
BBX 8 17 2 0
BITMAP
C3
66
3C
00
FE
06
06
06
06
06
06
06
06
06
06
06
06
ENDCHAR
STARTCHAR Iogonek
ENCODING 302
SWIDTH 602 0
DWIDTH 14 0
BBX 10 22 2 -5
BITMAP
FFC0
0C00
0C00
0C00
0C00
0C00
0C00
0C00
0C00
0C00
0C00
0C00
0C00
0C00
0C00
0C00
FFC0
0C00
1800
1800
1800
0E00
ENDCHAR
STARTCHAR iogonek
ENCODING 303
SWIDTH 602 0
DWIDTH 14 0
BBX 8 22 2 -5
BITMAP
06
06
00
00
FE
06
06
06
06
06
06
06
06
06
06
06
06
06
0C
0C
0C
07
ENDCHAR
STARTCHAR Idotaccent
ENCODING 304
SWIDTH 602 0
DWIDTH 14 0
BBX 10 20 2 0
BITMAP
0C00
0C00
0000
FFC0
0C00
0C00
0C00
0C00
0C00
0C00
0C00
0C00
0C00
0C00
0C00
0C00
0C00
0C00
0C00
FFC0
ENDCHAR
STARTCHAR dotlessi
ENCODING 305
SWIDTH 602 0
DWIDTH 14 0
BBX 7 13 2 0
BITMAP
FE
06
06
06
06
06
06
06
06
06
06
06
06
ENDCHAR
STARTCHAR IJ
ENCODING 306
SWIDTH 602 0
DWIDTH 14 0
BBX 13 17 2 0
BITMAP
FFF8
0C18
0C18
0C18
0C18
0C18
0C18
0C18
0C18
0C18
0C18
0C18
0C18
0C18
0C18
0C30
FFE0
ENDCHAR
STARTCHAR ij
ENCODING 307
SWIDTH 602 0
DWIDTH 14 0
BBX 10 22 2 -5
BITMAP
06C0
06C0
0000
0000
FFC0
06C0
06C0
06C0
06C0
06C0
06C0
06C0
06C0
06C0
06C0
06C0
06C0
00C0
00C0
00C0
2180
3F00
ENDCHAR
STARTCHAR Jcircumflex
ENCODING 308
SWIDTH 602 0
DWIDTH 14 0
BBX 9 21 3 0
BITMAP
1E00
3F00
7380
0000
7F00
0300
0300
0300
0300
0300
0300
0300
0300
0300
0300
0300
0300
0300
0300
8600
FC00
ENDCHAR
STARTCHAR jcircumflex
ENCODING 309
SWIDTH 602 0
DWIDTH 14 0
BBX 9 22 2 -5
BITMAP
1E00
3F00
7380
0000
7F00
0300
0300
0300
0300
0300
0300
0300
0300
0300
0300
0300
0300
0300
0300
0300
8600
FC00
ENDCHAR
STARTCHAR Kcommaaccent
ENCODING 310
SWIDTH 602 0
DWIDTH 14 0
BBX 12 26 2 -9
BITMAP
C040
C080
C100
C300
C200
C400
C800
D000
F800
DC00
CC00
C600
C300
C380
C1C0
C0E0
C070
0000
0E00
0E00
0E00
0E00
0200
0600
0400
0C00
ENDCHAR
STARTCHAR kcommaaccent
ENCODING 311
SWIDTH 602 0
DWIDTH 14 0
BBX 11 26 3 -9
BITMAP
C000
C000
C000
C000
C180
C100
C200
C400
C800
D000
F800
DC00
CE00
C700
C380
C180
C0E0
0000
1C00
1C00
1C00
1C00
0400
0C00
0800
1800
ENDCHAR
STARTCHAR kgreenlandic
ENCODING 312
SWIDTH 602 0
DWIDTH 14 0
BBX 11 13 3 0
BITMAP
C180
C100
C200
C400
C800
D000
F800
DC00
CE00
C700
C380
C180
C0E0
ENDCHAR
STARTCHAR Lacute
ENCODING 313
SWIDTH 602 0
DWIDTH 14 0
BBX 10 21 3 0
BITMAP
1C00
3000
6000
0000
C000
C000
C000
C000
C000
C000
C000
C000
C000
C000
C000
C000
C000
C000
C000
C000
FFC0
ENDCHAR
STARTCHAR lacute
ENCODING 314
SWIDTH 602 0
DWIDTH 14 0
BBX 8 21 2 0
BITMAP
07
0C
18
00
FE
06
06
06
06
06
06
06
06
06
06
06
06
06
06
06
06
ENDCHAR
STARTCHAR Lcommaaccent
ENCODING 315
SWIDTH 602 0
DWIDTH 14 0
BBX 10 26 3 -9
BITMAP
C000
C000
C000
C000
C000
C000
C000
C000
C000
C000
C000
C000
C000
C000
C000
C000
FFC0
0000
3800
3800
3800
3800
0800
1800
1000
3000
ENDCHAR
STARTCHAR lcommaaccent
ENCODING 316
SWIDTH 602 0
DWIDTH 14 0
BBX 7 26 2 -9
BITMAP
FE
06
06
06
06
06
06
06
06
06
06
06
06
06
06
06
06
00
0E
0E
0E
0E
02
06
04
0C
ENDCHAR
STARTCHAR Lcaron
ENCODING 317
SWIDTH 602 0
DWIDTH 14 0
BBX 12 21 1 0
BITMAP
E700
7E00
3C00
0000
3000
3000
3000
3000
3000
3000
3000
3000
3000
3000
3000
3000
3000
3000
3000
3000
3FF0
ENDCHAR
STARTCHAR lcaron
ENCODING 318
SWIDTH 602 0
DWIDTH 14 0
BBX 8 21 2 0
BITMAP
E7
7E
3C
00
FE
06
06
06
06
06
06
06
06
06
06
06
06
06
06
06
06
ENDCHAR
STARTCHAR Ldot
ENCODING 319
SWIDTH 602 0
DWIDTH 14 0
BBX 10 17 3 0
BITMAP
C000
C000
C000
C000
C000
C000
C000
C000
C000
C700
C700
C000
C000
C000
C000
C000
FFC0
ENDCHAR
STARTCHAR ldot
ENCODING 320
SWIDTH 602 0
DWIDTH 14 0
BBX 10 17 2 0
BITMAP
FE00
0600
0600
0600
0600
0600
0600
0600
0600
07C0
07C0
0600
0600
0600
0600
0600
0600
ENDCHAR
STARTCHAR Lslash
ENCODING 321
SWIDTH 602 0
DWIDTH 14 0
BBX 13 17 0 0
BITMAP
1800
1800
1800
1800
1800
1800
1900
1E00
1800
7800
D800
1800
1800
1800
1800
1800
1FF8
ENDCHAR
STARTCHAR lslash
ENCODING 322
SWIDTH 602 0
DWIDTH 14 0
BBX 10 17 2 0
BITMAP
FE00
0600
0600
0600
0640
06C0
0780
0600
0E00
3600
2600
0600
0600
0600
0600
0600
0600
ENDCHAR
STARTCHAR Nacute
ENCODING 323
SWIDTH 602 0
DWIDTH 14 0
BBX 11 21 2 0
BITMAP
0700
0C00
1800
0000
C020
E020
E020
F020
B020
9820
9820
8C20
8E20
8620
8320
8320
81A0
81E0
80E0
8060
8060
ENDCHAR
STARTCHAR nacute
ENCODING 324
SWIDTH 602 0
DWIDTH 14 0
BBX 10 17 2 0
BITMAP
0700
0C00
1800
0000
CF00
DF80
F1C0
E0C0
C0C0
C0C0
C0C0
C0C0
C0C0
C0C0
C0C0
C0C0
C0C0
ENDCHAR
STARTCHAR Ncommaaccent
ENCODING 325
SWIDTH 602 0
DWIDTH 14 0
BBX 11 26 2 -9
BITMAP
C020
E020
E020
F020
B020
9820
9820
8C20
8E20
8620
8320
8320
81A0
81E0
80E0
8060
8060
0000
0700
0700
0700
0700
0100
0300
0200
0600
ENDCHAR
STARTCHAR ncommaaccent
ENCODING 326
SWIDTH 602 0
DWIDTH 14 0
BBX 10 22 2 -9
BITMAP
CF00
DF80
F1C0
E0C0
C0C0
C0C0
C0C0
C0C0
C0C0
C0C0
C0C0
C0C0
C0C0
0000
0E00
0E00
0E00
0E00
0200
0600
0400
0C00
ENDCHAR
STARTCHAR Ncaron
ENCODING 327
SWIDTH 602 0
DWIDTH 14 0
BBX 11 21 2 0
BITMAP
E700
7E00
3C00
0000
C020
E020
E020
F020
B020
9820
9820
8C20
8E20
8620
8320
8320
81A0
81E0
80E0
8060
8060
ENDCHAR
STARTCHAR ncaron
ENCODING 328
SWIDTH 602 0
DWIDTH 14 0
BBX 10 17 2 0
BITMAP
7380
3F00
1E00
0000
CF00
DF80
F1C0
E0C0
C0C0
C0C0
C0C0
C0C0
C0C0
C0C0
C0C0
C0C0
C0C0
ENDCHAR
STARTCHAR napostrophe
ENCODING 329
SWIDTH 602 0
DWIDTH 14 0
BBX 12 17 0 0
BITMAP
E000
E000
2000
6000
F3C0
B7E0
3C70
3830
3030
3030
3030
3030
3030
3030
3030
3030
3030
ENDCHAR
STARTCHAR Eng
ENCODING 330
SWIDTH 602 0
DWIDTH 14 0
BBX 11 22 2 -5
BITMAP
C020
E020
E020
F020
B020
9820
9820
8C20
8E20
8620
8320
8360
81E0
81E0
80E0
8060
8060
0060
0060
0060
10C0
1F80
ENDCHAR
STARTCHAR eng
ENCODING 331
SWIDTH 602 0
DWIDTH 14 0
BBX 10 18 2 -5
BITMAP
CF00
DF80
F1C0
E0C0
C0C0
C0C0
C0C0
C0C0
C0C0
C0C0
C0C0
C0C0
C0C0
00C0
00C0
00C0
2180
3F00
ENDCHAR
STARTCHAR Omacron
ENCODING 332
SWIDTH 602 0
DWIDTH 14 0
BBX 13 19 1 0
BITMAP
1FC0
0000
0F80
38E0
3060
6030
6030
C018
C018
C018
C018
C018
C018
C018
6030
6030
3060
38E0
0F80
ENDCHAR
STARTCHAR omacron
ENCODING 333
SWIDTH 602 0
DWIDTH 14 0
BBX 12 15 1 0
BITMAP
1FC0
0000
1F80
30C0
6060
6060
C030
C030
C030
C030
C030
6060
6060
30C0
1F80
ENDCHAR
STARTCHAR Obreve
ENCODING 334
SWIDTH 602 0
DWIDTH 14 0
BBX 13 21 1 0
BITMAP
1860
0CC0
0780
0000
0F80
38E0
3060
6030
6030
C018
C018
C018
C018
C018
C018
C018
6030
6030
3060
38E0
0F80
ENDCHAR
STARTCHAR obreve
ENCODING 335
SWIDTH 602 0
DWIDTH 14 0
BBX 12 17 1 0
BITMAP
30C0
1980
0F00
0000
1F80
30C0
6060
6060
C030
C030
C030
C030
C030
6060
6060
30C0
1F80
ENDCHAR
STARTCHAR Ohungarumlaut
ENCODING 336
SWIDTH 602 0
DWIDTH 14 0
BBX 13 21 1 0
BITMAP
0330
0640
0C80
0000
0F80
38E0
3060
6030
6030
C018
C018
C018
C018
C018
C018
C018
6030
6030
3060
38E0
0F80
ENDCHAR
STARTCHAR ohungarumlaut
ENCODING 337
SWIDTH 602 0
DWIDTH 14 0
BBX 12 17 1 0
BITMAP
0660
0C80
1900
0000
1F80
30C0
6060
6060
C030
C030
C030
C030
C030
6060
6060
30C0
1F80
ENDCHAR
STARTCHAR OE
ENCODING 338
SWIDTH 602 0
DWIDTH 14 0
BBX 14 17 1 0
BITMAP
3FF8
6380
6180
C180
C180
C180
C180
C1F8
C180
C180
C180
C180
C180
4180
6180
6380
1FFC
ENDCHAR
STARTCHAR oe
ENCODING 339
SWIDTH 602 0
DWIDTH 14 0
BBX 13 13 1 0
BITMAP
3DE0
6790
6718
C318
C318
C3F8
C300
C300
C300
C300
4300
6788
3DF8
ENDCHAR
STARTCHAR Racute
ENCODING 340
SWIDTH 602 0
DWIDTH 14 0
BBX 12 21 2 0
BITMAP
0380
0600
0C00
0000
FF00
C180
C0C0
C0C0
C0C0
C0C0
C1C0
C380
FF00
C600
C700
C300
C180
C1C0
C0C0
C0E0
C070
ENDCHAR
STARTCHAR racute
ENCODING 341
SWIDTH 602 0
DWIDTH 14 0
BBX 9 17 4 0
BITMAP
0E00
1800
3000
0000
CF80
F880
E080
C000
C000
C000
C000
C000
C000
C000
C000
C000
C000
ENDCHAR
STARTCHAR Rcommaaccent
ENCODING 342
SWIDTH 602 0
DWIDTH 14 0
BBX 12 26 2 -9
BITMAP
FF00
C180
C0C0
C0C0
C0C0
C0C0
C1C0
C380
FF00
C600
C700
C300
C180
C1C0
C0C0
C0E0
C070
0000
0E00
0E00
0E00
0E00
0200
0600
0400
0C00
ENDCHAR
STARTCHAR rcommaaccent
ENCODING 343
SWIDTH 602 0
DWIDTH 14 0
BBX 9 22 4 -9
BITMAP
CF80
F880
E080
C000
C000
C000
C000
C000
C000
C000
C000
C000
C000
0000
7000
7000
7000
7000
1000
3000
2000
6000
ENDCHAR
STARTCHAR Rcaron
ENCODING 344
SWIDTH 602 0
DWIDTH 14 0
BBX 12 21 2 0
BITMAP
7380
3F00
1E00
0000
FF00
C180
C0C0
C0C0
C0C0
C0C0
C1C0
C380
FF00
C600
C700
C300
C180
C1C0
C0C0
C0E0
C070
ENDCHAR
STARTCHAR rcaron
ENCODING 345
SWIDTH 602 0
DWIDTH 14 0
BBX 9 17 4 0
BITMAP
E700
7E00
3C00
0000
CF80
F880
E080
C000
C000
C000
C000
C000
C000
C000
C000
C000
C000
ENDCHAR
STARTCHAR Sacute
ENCODING 346
SWIDTH 602 0
DWIDTH 14 0
BBX 11 21 2 0
BITMAP
0700
0C00
1800
0000
1FC0
6040
C000
C000
C000
E000
7000
3C00
0F00
03C0
00E0
0060
0060
0060
0040
80C0
7F00
ENDCHAR
STARTCHAR sacute
ENCODING 347
SWIDTH 602 0
DWIDTH 14 0
BBX 10 17 2 0
BITMAP
0700
0C00
1800
0000
3F80
6080
C000
C000
E000
7C00
3F00
07C0
00C0
00C0
00C0
C180
FE00
ENDCHAR
STARTCHAR Scircumflex
ENCODING 348
SWIDTH 602 0
DWIDTH 14 0
BBX 11 21 2 0
BITMAP
1E00
3F00
7380
0000
1FC0
6040
C000
C000
C000
E000
7000
3C00
0F00
03C0
00E0
0060
0060
0060
0040
80C0
7F00
ENDCHAR
STARTCHAR scircumflex
ENCODING 349
SWIDTH 602 0
DWIDTH 14 0
BBX 10 17 2 0
BITMAP
3C00
7E00
E700
0000
3F80
6080
C000
C000
E000
7C00
3F00
07C0
00C0
00C0
00C0
C180
FE00
ENDCHAR
STARTCHAR Scedilla
ENCODING 350
SWIDTH 602 0
DWIDTH 14 0
BBX 11 22 2 -5
BITMAP
1FC0
6040
C000
C000
C000
E000
7000
3C00
0F00
03C0
00E0
0060
0060
0060
0040
80C0
7F00
0E00
0600
0100
0100
0E00
ENDCHAR
STARTCHAR scedilla
ENCODING 351
SWIDTH 602 0
DWIDTH 14 0
BBX 10 18 2 -5
BITMAP
3F80
6080
C000
C000
E000
7C00
3F00
07C0
00C0
00C0
00C0
C180
FE00
1C00
0C00
0200
0200
1C00
ENDCHAR
STARTCHAR Scaron
ENCODING 352
SWIDTH 602 0
DWIDTH 14 0
BBX 11 21 2 0
BITMAP
7380
3F00
1E00
0000
1FC0
6040
C000
C000
C000
E000
7000
3C00
0F00
03C0
00E0
0060
0060
0060
0040
80C0
7F00
ENDCHAR
STARTCHAR scaron
ENCODING 353
SWIDTH 602 0
DWIDTH 14 0
BBX 10 17 2 0
BITMAP
7380
3F00
1E00
0000
3F80
6080
C000
C000
E000
7C00
3F00
07C0
00C0
00C0
00C0
C180
FE00
ENDCHAR
STARTCHAR Tcommaaccent
ENCODING 354
SWIDTH 602 0
DWIDTH 14 0
BBX 14 22 0 -5
BITMAP
FFFC
0300
0300
0300
0300
0300
0300
0300
0300
0300
0300
0300
0300
0300
0300
0300
0300
0700
0300
0080
0080
0700
ENDCHAR
STARTCHAR tcommaaccent
ENCODING 355
SWIDTH 602 0
DWIDTH 14 0
BBX 11 20 2 -5
BITMAP
1800
1800
FFE0
1800
1800
1800
1800
1800
1800
1800
1800
1800
1800
0C00
07E0
0E00
0600
0100
0100
0E00
ENDCHAR
STARTCHAR Tcaron
ENCODING 356
SWIDTH 602 0
DWIDTH 14 0
BBX 14 21 0 0
BITMAP
1CE0
0FC0
0780
0000
FFFC
0300
0300
0300
0300
0300
0300
0300
0300
0300
0300
0300
0300
0300
0300
0300
0300
ENDCHAR
STARTCHAR tcaron
ENCODING 357
SWIDTH 602 0
DWIDTH 14 0
BBX 11 19 2 0
BITMAP
7380
3F00
1E00
0000
1800
1800
FFE0
1800
1800
1800
1800
1800
1800
1800
1800
1800
1800
0C00
07E0
ENDCHAR
STARTCHAR Tbar
ENCODING 358
SWIDTH 602 0
DWIDTH 14 0
BBX 14 17 0 0
BITMAP
FFFC
0300
0300
0300
0300
0300
0300
0300
3FF0
0300
0300
0300
0300
0300
0300
0300
0300
ENDCHAR
STARTCHAR tbar
ENCODING 359
SWIDTH 602 0
DWIDTH 14 0
BBX 11 15 2 0
BITMAP
1800
1800
FFE0
1800
1800
1800
1800
7FE0
1800
1800
1800
1800
1800
0C00
07E0
ENDCHAR
STARTCHAR Utilde
ENCODING 360
SWIDTH 602 0
DWIDTH 14 0
BBX 11 20 2 0
BITMAP
3D80
6F00
0000
C020
C020
C020
C020
C020
C020
C020
C020
C020
C020
C020
C020
C020
C020
4040
60C0
3F80
ENDCHAR
STARTCHAR utilde
ENCODING 361
SWIDTH 602 0
DWIDTH 14 0
BBX 10 16 2 0
BITMAP
3D80
6F00
0000
C0C0
C0C0
C0C0
C0C0
C0C0
C0C0
C0C0
C0C0
C0C0
C1C0
C3C0
7EC0
3CC0
ENDCHAR
STARTCHAR Umacron
ENCODING 362
SWIDTH 602 0
DWIDTH 14 0
BBX 11 19 2 0
BITMAP
7F00
0000
C020
C020
C020
C020
C020
C020
C020
C020
C020
C020
C020
C020
C020
C020
4040
60C0
3F80
ENDCHAR
STARTCHAR umacron
ENCODING 363
SWIDTH 602 0
DWIDTH 14 0
BBX 10 15 2 0
BITMAP
3F80
0000
C0C0
C0C0
C0C0
C0C0
C0C0
C0C0
C0C0
C0C0
C0C0
C1C0
C3C0
7EC0
3CC0
ENDCHAR
STARTCHAR Ubreve
ENCODING 364
SWIDTH 602 0
DWIDTH 14 0
BBX 11 21 2 0
BITMAP
6180
3300
1E00
0000
C020
C020
C020
C020
C020
C020
C020
C020
C020
C020
C020
C020
C020
C020
4040
60C0
3F80
ENDCHAR
STARTCHAR ubreve
ENCODING 365
SWIDTH 602 0
DWIDTH 14 0
BBX 10 17 2 0
BITMAP
6180
3300
1E00
0000
C0C0
C0C0
C0C0
C0C0
C0C0
C0C0
C0C0
C0C0
C0C0
C1C0
C3C0
7EC0
3CC0
ENDCHAR
STARTCHAR Uring
ENCODING 366
SWIDTH 602 0
DWIDTH 14 0
BBX 11 22 2 0
BITMAP
0C00
1200
1200
0C00
0000
C020
C020
C020
C020
C020
C020
C020
C020
C020
C020
C020
C020
C020
C020
4040
60C0
3F80
ENDCHAR
STARTCHAR uring
ENCODING 367
SWIDTH 602 0
DWIDTH 14 0
BBX 10 18 2 0
BITMAP
0C00
1200
1200
0C00
0000
C0C0
C0C0
C0C0
C0C0
C0C0
C0C0
C0C0
C0C0
C0C0
C1C0
C3C0
7EC0
3CC0
ENDCHAR
STARTCHAR Uhungarumlaut
ENCODING 368
SWIDTH 602 0
DWIDTH 14 0
BBX 11 21 2 0
BITMAP
0CC0
1900
3200
0000
C020
C020
C020
C020
C020
C020
C020
C020
C020
C020
C020
C020
C020
C020
4040
60C0
3F80
ENDCHAR
STARTCHAR uhungarumlaut
ENCODING 369
SWIDTH 602 0
DWIDTH 14 0
BBX 10 17 2 0
BITMAP
0CC0
1900
3200
0000
C0C0
C0C0
C0C0
C0C0
C0C0
C0C0
C0C0
C0C0
C0C0
C1C0
C3C0
7EC0
3CC0
ENDCHAR
STARTCHAR Uogonek
ENCODING 370
SWIDTH 602 0
DWIDTH 14 0
BBX 11 22 2 -5
BITMAP
C020
C020
C020
C020
C020
C020
C020
C020
C020
C020
C020
C020
C020
C020
4040
60C0
3F80
0600
0C00
0C00
0C00
0700
ENDCHAR
STARTCHAR uogonek
ENCODING 371
SWIDTH 602 0
DWIDTH 14 0
BBX 10 18 2 -5
BITMAP
C0C0
C0C0
C0C0
C0C0
C0C0
C0C0
C0C0
C0C0
C0C0
C1C0
C3C0
7EC0
3CC0
0600
0C00
0C00
0C00
0700
ENDCHAR
STARTCHAR Wcircumflex
ENCODING 372
SWIDTH 602 0
DWIDTH 14 0
BBX 14 21 0 0
BITMAP
0780
0FC0
1CE0
0000
8004
8604
860C
8708
CF08
CF08
CD08
C918
C998
5990
5890
5090
70F0
70F0
70E0
6060
6060
ENDCHAR
STARTCHAR wcircumflex
ENCODING 373
SWIDTH 602 0
DWIDTH 14 0
BBX 14 17 0 0
BITMAP
0F00
1F80
39C0
0000
C004
C304
C308
6308
6488
6488
6498
6490
6890
3850
3870
3870
3060
ENDCHAR
STARTCHAR Ycircumflex
ENCODING 374
SWIDTH 602 0
DWIDTH 14 0
BBX 13 21 0 0
BITMAP
0F00
1F80
39C0
0000
E008
6018
3010
3820
1820
1C40
0CC0
0680
0700
0300
0300
0300
0300
0300
0300
0300
0300
ENDCHAR
STARTCHAR ycircumflex
ENCODING 375
SWIDTH 602 0
DWIDTH 14 0
BBX 13 22 1 -5
BITMAP
0F00
1F80
39C0
0000
E018
6010
6030
3020
3020
3840
1840
1880
0C80
0D80
0F00
0700
0600
0200
0400
0400
0800
7000
ENDCHAR
STARTCHAR Ydieresis
ENCODING 376
SWIDTH 602 0
DWIDTH 14 0
BBX 13 19 0 0
BITMAP
18C0
0000
E008
6018
3010
3820
1820
1C40
0CC0
0680
0700
0300
0300
0300
0300
0300
0300
0300
0300
ENDCHAR
STARTCHAR Zacute
ENCODING 377
SWIDTH 602 0
DWIDTH 14 0
BBX 12 21 1 0
BITMAP
00E0
0180
0300
0000
7FF0
0070
0060
00C0
01C0
0180
0300
0700
0600
0E00
1C00
1800
3800
7000
6000
E000
FFF0
ENDCHAR
STARTCHAR zacute
ENCODING 378
SWIDTH 602 0
DWIDTH 14 0
BBX 11 17 2 0
BITMAP
0380
0600
0C00
0000
FFE0
0040
0080
0100
0300
0200
0400
0800
1000
3000
6000
4000
FFE0
ENDCHAR
STARTCHAR Zdotaccent
ENCODING 379
SWIDTH 602 0
DWIDTH 14 0
BBX 12 20 1 0
BITMAP
0300
0300
0000
7FF0
0070
0060
00C0
01C0
0180
0300
0700
0600
0E00
1C00
1800
3800
7000
6000
E000
FFF0
ENDCHAR
STARTCHAR zdotaccent
ENCODING 380
SWIDTH 602 0
DWIDTH 14 0
BBX 11 16 2 0
BITMAP
0600
0600
0000
FFE0
0040
0080
0100
0300
0200
0400
0800
1000
3000
6000
4000
FFE0
ENDCHAR
STARTCHAR Zcaron
ENCODING 381
SWIDTH 602 0
DWIDTH 14 0
BBX 12 21 1 0
BITMAP
39C0
1F80
0F00
0000
7FF0
0070
0060
00C0
01C0
0180
0300
0700
0600
0E00
1C00
1800
3800
7000
6000
E000
FFF0
ENDCHAR
STARTCHAR zcaron
ENCODING 382
SWIDTH 602 0
DWIDTH 14 0
BBX 11 17 2 0
BITMAP
39C0
1F80
0F00
0000
FFE0
0040
0080
0100
0300
0200
0400
0800
1000
3000
6000
4000
FFE0
ENDCHAR
STARTCHAR uni0186
ENCODING 390
SWIDTH 602 0
DWIDTH 14 0
BBX 12 17 1 0
BITMAP
FE00
8380
00C0
0060
0060
0030
0030
0030
0030
0030
0030
0030
0060
0060
00C0
C180
FE00
ENDCHAR
STARTCHAR uni0189
ENCODING 393
SWIDTH 602 0
DWIDTH 14 0
BBX 13 17 0 0
BITMAP
7F80
60E0
6070
6030
6018
6018
6018
FC18
6018
6018
6018
6018
6030
6030
6060
60E0
7F80
ENDCHAR
STARTCHAR uni018E
ENCODING 398
SWIDTH 602 0
DWIDTH 14 0
BBX 10 17 3 0
BITMAP
FFC0
00C0
00C0
00C0
00C0
00C0
00C0
00C0
00C0
3FC0
00C0
00C0
00C0
00C0
00C0
00C0
7FC0
ENDCHAR
STARTCHAR florin
ENCODING 402
SWIDTH 602 0
DWIDTH 14 0
BBX 11 21 3 -4
BITMAP
03E0
0600
0C00
0C00
0C00
1800
1800
FE00
3000
3000
3000
6000
6000
6000
6000
6000
6000
6000
C000
C000
C000
ENDCHAR
STARTCHAR uni0197
ENCODING 407
SWIDTH 602 0
DWIDTH 14 0
BBX 10 17 2 0
BITMAP
FFC0
0C00
0C00
0C00
0C00
0C00
0C00
0C00
FFC0
0C00
0C00
0C00
0C00
0C00
0C00
0C00
FFC0
ENDCHAR
STARTCHAR uni019A
ENCODING 410
SWIDTH 602 0
DWIDTH 14 0
BBX 10 17 1 0
BITMAP
7F00
0300
0300
0300
0300
0300
0300
0300
FFC0
0300
0300
0300
0300
0300
0300
0300
0300
ENDCHAR
STARTCHAR uni019D
ENCODING 413
SWIDTH 602 0
DWIDTH 14 0
BBX 17 22 -4 -5
BITMAP
030080
038080
038080
03C080
02C080
026080
026080
023080
023880
021880
020C80
030C80
030680
030780
030380
030180
030180
030000
030000
030000
860000
FC0000
ENDCHAR
STARTCHAR uni019F
ENCODING 415
SWIDTH 602 0
DWIDTH 14 0
BBX 13 17 1 0
BITMAP
0F80
38E0
3060
6030
6030
C018
C018
C018
FFF8
C018
C018
C018
6030
6030
3060
38E0
0F80
ENDCHAR
STARTCHAR Ohorn
ENCODING 416
SWIDTH 602 0
DWIDTH 14 0
BBX 15 17 1 0
BITMAP
0F8E
38EE
3062
6036
603C
C018
C018
C018
C018
C018
C018
C018
6030
6030
3060
38E0
0F80
ENDCHAR
STARTCHAR ohorn
ENCODING 417
SWIDTH 602 0
DWIDTH 14 0
BBX 14 13 1 0
BITMAP
1F9C
30DC
6064
606C
C038
C030
C030
C030
C030
6060
6060
30C0
1F80
ENDCHAR
STARTCHAR uni01A7
ENCODING 423
SWIDTH 602 0
DWIDTH 14 0
BBX 11 17 2 0
BITMAP
7F00
40C0
0060
0060
0060
00E0
01C0
0780
1E00
7800
E000
C000
C000
C000
4000
6020
1FC0
ENDCHAR
STARTCHAR uni01A8
ENCODING 424
SWIDTH 602 0
DWIDTH 14 0
BBX 10 13 2 0
BITMAP
7F00
4180
00C0
00C0
01C0
0F80
3F00
F800
C000
C000
C000
60C0
1FC0
ENDCHAR
STARTCHAR uni01AE
ENCODING 430
SWIDTH 602 0
DWIDTH 14 0
BBX 14 22 0 -5
BITMAP
FFFC
0300
0300
0300
0300
0300
0300
0300
0300
0300
0300
0300
0300
0300
0300
0300
0300
0300
0300
0300
0184
00FC
ENDCHAR
STARTCHAR Uhorn
ENCODING 431
SWIDTH 602 0
DWIDTH 14 0
BBX 13 17 2 0
BITMAP
C038
C038
C028
C038
C030
C020
C020
C020
C020
C020
C020
C020
C020
C020
4040
60C0
3F80
ENDCHAR
STARTCHAR uhorn
ENCODING 432
SWIDTH 602 0
DWIDTH 14 0
BBX 12 13 2 0
BITMAP
C0F0
C0F0
C0D0
C0F0
C0E0
C0C0
C0C0
C0C0
C0C0
C1C0
C3C0
7EC0
3CC0
ENDCHAR
STARTCHAR uni01B5
ENCODING 437
SWIDTH 602 0
DWIDTH 14 0
BBX 12 17 1 0
BITMAP
7FF0
0070
0060
00C0
01C0
0180
0300
0700
7FE0
0E00
1C00
1800
3800
7000
6000
E000
FFF0
ENDCHAR
STARTCHAR uni01B6
ENCODING 438
SWIDTH 602 0
DWIDTH 14 0
BBX 11 13 2 0
BITMAP
FFE0
0040
0080
0100
0300
0200
7FE0
0800
1000
3000
6000
4000
FFE0
ENDCHAR
STARTCHAR uni01BB
ENCODING 443
SWIDTH 602 0
DWIDTH 14 0
BBX 9 17 2 0
BITMAP
7E00
C300
0180
0180
0180
0180
0100
0300
FF80
0400
0800
1000
3000
6000
E000
E000
FF80
ENDCHAR
STARTCHAR uni01BC
ENCODING 444
SWIDTH 602 0
DWIDTH 14 0
BBX 9 17 3 0
BITMAP
FF80
8000
8000
8000
8000
8000
F800
0E00
0300
0180
0180
0180
0180
0180
0300
8600
FC00
ENDCHAR
STARTCHAR uni01C0
ENCODING 448
SWIDTH 602 0
DWIDTH 14 0
BBX 1 21 7 -4
BITMAP
80
80
80
80
80
80
80
80
80
80
80
80
80
80
80
80
80
80
80
80
80
ENDCHAR
STARTCHAR uni01C2
ENCODING 450
SWIDTH 602 0
DWIDTH 14 0
BBX 12 21 1 -4
BITMAP
0200
0200
0200
0200
0200
0200
0200
FFF0
0200
0200
0200
0200
0200
FFF0
0200
0200
0200
0200
0200
0200
0200
ENDCHAR
STARTCHAR uni01C3
ENCODING 451
SWIDTH 602 0
DWIDTH 14 0
BBX 3 17 6 0
BITMAP
60
60
60
60
60
60
60
60
40
40
40
40
00
00
00
E0
E0
ENDCHAR
STARTCHAR uni01CD
ENCODING 461
SWIDTH 602 0
DWIDTH 14 0
BBX 13 21 -1 0
BITMAP
39C0
1F80
0F00
0000
0600
0700
0B00
0B00
0980
1180
1180
10C0
30C0
20C0
20E0
7FE0
4060
4030
8030
8030
8018
ENDCHAR
STARTCHAR uni01CE
ENCODING 462
SWIDTH 602 0
DWIDTH 14 0
BBX 12 17 2 0
BITMAP
1CE0
0FC0
0780
0000
3F80
41C0
00C0
00C0
00C0
1FC0
70C0
60C0
C0C0
C0C0
C0C0
63C0
3EF0
ENDCHAR
STARTCHAR uni01CF
ENCODING 463
SWIDTH 602 0
DWIDTH 14 0
BBX 10 21 2 0
BITMAP
7380
3F00
1E00
0000
FFC0
0C00
0C00
0C00
0C00
0C00
0C00
0C00
0C00
0C00
0C00
0C00
0C00
0C00
0C00
0C00
FFC0
ENDCHAR
STARTCHAR uni01D0
ENCODING 464
SWIDTH 602 0
DWIDTH 14 0
BBX 8 17 2 0
BITMAP
E7
7E
3C
00
FE
06
06
06
06
06
06
06
06
06
06
06
06
ENDCHAR
STARTCHAR uni01D1
ENCODING 465
SWIDTH 602 0
DWIDTH 14 0
BBX 13 21 1 0
BITMAP
1CE0
0FC0
0780
0000
0F80
38E0
3060
6030
6030
C018
C018
C018
C018
C018
C018
C018
6030
6030
3060
38E0
0F80
ENDCHAR
STARTCHAR uni01D2
ENCODING 466
SWIDTH 602 0
DWIDTH 14 0
BBX 12 17 1 0
BITMAP
39C0
1F80
0F00
0000
1F80
30C0
6060
6060
C030
C030
C030
C030
C030
6060
6060
30C0
1F80
ENDCHAR
STARTCHAR uni01D3
ENCODING 467
SWIDTH 602 0
DWIDTH 14 0
BBX 11 21 2 0
BITMAP
7380
3F00
1E00
0000
C020
C020
C020
C020
C020
C020
C020
C020
C020
C020
C020
C020
C020
C020
4040
60C0
3F80
ENDCHAR
STARTCHAR uni01D4
ENCODING 468
SWIDTH 602 0
DWIDTH 14 0
BBX 10 17 2 0
BITMAP
7380
3F00
1E00
0000
C0C0
C0C0
C0C0
C0C0
C0C0
C0C0
C0C0
C0C0
C0C0
C1C0
C3C0
7EC0
3CC0
ENDCHAR
STARTCHAR uni01D5
ENCODING 469
SWIDTH 602 0
DWIDTH 14 0
BBX 11 21 2 0
BITMAP
7F00
0000
3180
0000
C020
C020
C020
C020
C020
C020
C020
C020
C020
C020
C020
C020
C020
C020
4040
60C0
3F80
ENDCHAR
STARTCHAR uni01D6
ENCODING 470
SWIDTH 602 0
DWIDTH 14 0
BBX 10 17 2 0
BITMAP
3F80
0000
3180
0000
C0C0
C0C0
C0C0
C0C0
C0C0
C0C0
C0C0
C0C0
C0C0
C1C0
C3C0
7EC0
3CC0
ENDCHAR
STARTCHAR uni01D7
ENCODING 471
SWIDTH 602 0
DWIDTH 14 0
BBX 11 23 2 0
BITMAP
0700
0C00
1800
0000
3180
0000
C020
C020
C020
C020
C020
C020
C020
C020
C020
C020
C020
C020
C020
C020
4040
60C0
3F80
ENDCHAR
STARTCHAR uni01D8
ENCODING 472
SWIDTH 602 0
DWIDTH 14 0
BBX 10 19 2 0
BITMAP
0380
0600
0C00
0000
3180
0000
C0C0
C0C0
C0C0
C0C0
C0C0
C0C0
C0C0
C0C0
C0C0
C1C0
C3C0
7EC0
3CC0
ENDCHAR
STARTCHAR uni01D9
ENCODING 473
SWIDTH 602 0
DWIDTH 14 0
BBX 11 23 2 0
BITMAP
7380
3F00
1E00
0000
3180
0000
C020
C020
C020
C020
C020
C020
C020
C020
C020
C020
C020
C020
C020
C020
4040
60C0
3F80
ENDCHAR
STARTCHAR uni01DA
ENCODING 474
SWIDTH 602 0
DWIDTH 14 0
BBX 10 19 2 0
BITMAP
7380
3F00
1E00
0000
3180
0000
C0C0
C0C0
C0C0
C0C0
C0C0
C0C0
C0C0
C0C0
C0C0
C1C0
C3C0
7EC0
3CC0
ENDCHAR
STARTCHAR uni01DB
ENCODING 475
SWIDTH 602 0
DWIDTH 14 0
BBX 11 23 2 0
BITMAP
7000
1800
0C00
0000
3180
0000
C020
C020
C020
C020
C020
C020
C020
C020
C020
C020
C020
C020
C020
C020
4040
60C0
3F80
ENDCHAR
STARTCHAR uni01DC
ENCODING 476
SWIDTH 602 0
DWIDTH 14 0
BBX 10 19 2 0
BITMAP
3800
0C00
0600
0000
3180
0000
C0C0
C0C0
C0C0
C0C0
C0C0
C0C0
C0C0
C0C0
C0C0
C1C0
C3C0
7EC0
3CC0
ENDCHAR
STARTCHAR uni01DD
ENCODING 477
SWIDTH 602 0
DWIDTH 14 0
BBX 11 13 2 0
BITMAP
FE00
8180
00C0
0040
0060
0060
FFE0
C060
C060
C0C0
60C0
7180
3F00
ENDCHAR
STARTCHAR uni01DE
ENCODING 478
SWIDTH 602 0
DWIDTH 14 0
BBX 13 21 -1 0
BITMAP
1FC0
0000
3180
0000
0600
0700
0B00
0B00
0980
1180
1180
10C0
30C0
20C0
20E0
7FE0
4060
4030
8030
8030
8018
ENDCHAR
STARTCHAR uni01DF
ENCODING 479
SWIDTH 602 0
DWIDTH 14 0
BBX 12 17 2 0
BITMAP
3F80
0000
3180
0000
3F80
41C0
00C0
00C0
00C0
1FC0
70C0
60C0
C0C0
C0C0
C0C0
63C0
3EF0
ENDCHAR
STARTCHAR uni01E0
ENCODING 480
SWIDTH 602 0
DWIDTH 14 0
BBX 13 22 -1 0
BITMAP
1FC0
0000
0600
0600
0000
0600
0700
0B00
0B00
0980
1180
1180
10C0
30C0
20C0
20E0
7FE0
4060
4030
8030
8030
8018
ENDCHAR
STARTCHAR uni01E1
ENCODING 481
SWIDTH 602 0
DWIDTH 14 0
BBX 12 18 2 0
BITMAP
1FC0
0000
0300
0300
0000
3F80
41C0
00C0
00C0
00C0
1FC0
70C0
60C0
C0C0
C0C0
C0C0
63C0
3EF0
ENDCHAR
STARTCHAR uni01E2
ENCODING 482
SWIDTH 602 0
DWIDTH 14 0
BBX 12 19 -1 0
BITMAP
1FC0
0000
07E0
0700
0700
0B00
0B00
0B00
1300
1300
13E0
2300
2300
6300
7F00
4300
8300
8300
83F0
ENDCHAR
STARTCHAR uni01E3
ENCODING 483
SWIDTH 602 0
DWIDTH 14 0
BBX 14 15 0 0
BITMAP
0FE0
0000
7EF0
4398
030C
030C
030C
3FFC
6300
C300
C300
C300
C300
6784
3DFC
ENDCHAR
STARTCHAR uni01E4
ENCODING 484
SWIDTH 602 0
DWIDTH 14 0
BBX 15 17 1 0
BITMAP
07F0
1810
3000
6000
6000
C000
C000
C000
C000
C000
C030
C7FE
6030
6030
3030
1C30
07E0
ENDCHAR
STARTCHAR uni01E5
ENCODING 485
SWIDTH 602 0
DWIDTH 14 0
BBX 11 18 2 -5
BITMAP
1FA0
31E0
60E0
4060
C060
C060
C060
C060
C060
C060
60E0
71E0
1E60
FFE0
0060
0040
4080
7F00
ENDCHAR
STARTCHAR Gcaron
ENCODING 486
SWIDTH 602 0
DWIDTH 14 0
BBX 12 21 1 0
BITMAP
39C0
1F80
0F00
0000
07F0
1810
3000
6000
6000
C000
C000
C000
C000
C000
C030
C030
6030
6030
3030
1C30
07E0
ENDCHAR
STARTCHAR gcaron
ENCODING 487
SWIDTH 602 0
DWIDTH 14 0
BBX 11 22 2 -5
BITMAP
39C0
1F80
0F00
0000
1FA0
31E0
60E0
4060
C060
C060
C060
C060
C060
C060
60E0
71E0
1E60
0060
0060
0040
4080
7F00
ENDCHAR
STARTCHAR uni01E8
ENCODING 488
SWIDTH 602 0
DWIDTH 14 0
BBX 12 21 2 0
BITMAP
E700
7E00
3C00
0000
C040
C080
C100
C300
C200
C400
C800
D000
F800
DC00
CC00
C600
C300
C380
C1C0
C0E0
C070
ENDCHAR
STARTCHAR uni01E9
ENCODING 489
SWIDTH 602 0
DWIDTH 14 0
BBX 12 21 2 0
BITMAP
E700
7E00
3C00
0000
6000
6000
6000
6000
60C0
6080
6100
6200
6400
6800
7C00
6E00
6700
6380
61C0
60C0
6070
ENDCHAR
STARTCHAR uni01EA
ENCODING 490
SWIDTH 602 0
DWIDTH 14 0
BBX 13 22 1 -5
BITMAP
0F80
38E0
3060
6030
6030
C018
C018
C018
C018
C018
C018
C018
6030
6030
3060
38E0
0F80
0300
0600
0600
0600
0380
ENDCHAR
STARTCHAR uni01EB
ENCODING 491
SWIDTH 602 0
DWIDTH 14 0
BBX 12 18 1 -5
BITMAP
1F80
30C0
6060
6060
C030
C030
C030
C030
C030
6060
6060
30C0
1F80
0600
0C00
0C00
0C00
0700
ENDCHAR
STARTCHAR uni01EC
ENCODING 492
SWIDTH 602 0
DWIDTH 14 0
BBX 13 24 1 -5
BITMAP
1FC0
0000
0F80
38E0
3060
6030
6030
C018
C018
C018
C018
C018
C018
C018
6030
6030
3060
38E0
0F80
0300
0600
0600
0600
0380
ENDCHAR
STARTCHAR uni01ED
ENCODING 493
SWIDTH 602 0
DWIDTH 14 0
BBX 12 20 1 -5
BITMAP
1FC0
0000
1F80
30C0
6060
6060
C030
C030
C030
C030
C030
6060
6060
30C0
1F80
0600
0C00
0C00
0C00
0700
ENDCHAR
STARTCHAR uni01F0
ENCODING 496
SWIDTH 602 0
DWIDTH 14 0
BBX 9 22 2 -5
BITMAP
7380
3F00
1E00
0000
7F00
0300
0300
0300
0300
0300
0300
0300
0300
0300
0300
0300
0300
0300
0300
0300
8600
FC00
ENDCHAR
STARTCHAR uni01F4
ENCODING 500
SWIDTH 602 0
DWIDTH 14 0
BBX 12 21 1 0
BITMAP
0380
0600
0C00
0000
07F0
1810
3000
6000
6000
C000
C000
C000
C000
C000
C030
C030
6030
6030
3030
1C30
07E0
ENDCHAR
STARTCHAR uni01F5
ENCODING 501
SWIDTH 602 0
DWIDTH 14 0
BBX 11 22 2 -5
BITMAP
01C0
0300
0600
0000
1FA0
31E0
60E0
4060
C060
C060
C060
C060
C060
C060
60E0
71E0
1E60
0060
0060
0040
4080
7F00
ENDCHAR
STARTCHAR uni01F8
ENCODING 504
SWIDTH 602 0
DWIDTH 14 0
BBX 11 21 2 0
BITMAP
7000
1800
0C00
0000
C020
E020
E020
F020
B020
9820
9820
8C20
8E20
8620
8320
8320
81A0
81E0
80E0
8060
8060
ENDCHAR
STARTCHAR uni01F9
ENCODING 505
SWIDTH 602 0
DWIDTH 14 0
BBX 10 17 2 0
BITMAP
7000
1800
0C00
0000
CF00
DF80
F1C0
E0C0
C0C0
C0C0
C0C0
C0C0
C0C0
C0C0
C0C0
C0C0
C0C0
ENDCHAR
STARTCHAR Aringacute
ENCODING 506
SWIDTH 602 0
DWIDTH 14 0
BBX 13 26 -1 0
BITMAP
01C0
0300
0600
0000
0600
0900
0900
0600
0000
0600
0700
0B00
0B00
0980
1180
1180
10C0
30C0
20C0
20E0
7FE0
4060
4030
8030
8030
8018
ENDCHAR
STARTCHAR aringacute
ENCODING 507
SWIDTH 602 0
DWIDTH 14 0
BBX 12 22 2 0
BITMAP
01C0
0300
0600
0000
0600
0900
0900
0600
0000
3F80
41C0
00C0
00C0
00C0
1FC0
70C0
60C0
C0C0
C0C0
C0C0
63C0
3EF0
ENDCHAR
STARTCHAR AEacute
ENCODING 508
SWIDTH 602 0
DWIDTH 14 0
BBX 12 21 -1 0
BITMAP
01C0
0300
0600
0000
07E0
0700
0700
0B00
0B00
0B00
1300
1300
13E0
2300
2300
6300
7F00
4300
8300
8300
83F0
ENDCHAR
STARTCHAR aeacute
ENCODING 509
SWIDTH 602 0
DWIDTH 14 0
BBX 14 17 0 0
BITMAP
00E0
0180
0300
0000
7EF0
4398
030C
030C
030C
3FFC
6300
C300
C300
C300
C300
6784
3DFC
ENDCHAR
STARTCHAR Oslashacute
ENCODING 510
SWIDTH 602 0
DWIDTH 14 0
BBX 13 21 1 0
BITMAP
00E0
0180
0300
0000
0FF8
3870
3030
6070
6078
C098
C118
C118
C218
C418
C418
C818
D030
7030
6060
78E0
FF80
ENDCHAR
STARTCHAR oslashacute
ENCODING 511
SWIDTH 602 0
DWIDTH 14 0
BBX 12 17 1 0
BITMAP
01C0
0300
0600
0000
1FF0
30E0
60E0
60F0
C130
C230
C630
C430
C830
F060
7060
70C0
FF80
ENDCHAR
STARTCHAR uni0200
ENCODING 512
SWIDTH 602 0
DWIDTH 14 0
BBX 13 21 -1 0
BITMAP
6600
1300
0980
0000
0600
0700
0B00
0B00
0980
1180
1180
10C0
30C0
20C0
20E0
7FE0
4060
4030
8030
8030
8018
ENDCHAR
STARTCHAR uni0201
ENCODING 513
SWIDTH 602 0
DWIDTH 14 0
BBX 12 17 2 0
BITMAP
6600
1300
0980
0000
3F80
41C0
00C0
00C0
00C0
1FC0
70C0
60C0
C0C0
C0C0
C0C0
63C0
3EF0
ENDCHAR
STARTCHAR uni0202
ENCODING 514
SWIDTH 602 0
DWIDTH 14 0
BBX 13 21 -1 0
BITMAP
0F00
1980
30C0
0000
0600
0700
0B00
0B00
0980
1180
1180
10C0
30C0
20C0
20E0
7FE0
4060
4030
8030
8030
8018
ENDCHAR
STARTCHAR uni0203
ENCODING 515
SWIDTH 602 0
DWIDTH 14 0
BBX 12 17 2 0
BITMAP
0780
0CC0
1860
0000
3F80
41C0
00C0
00C0
00C0
1FC0
70C0
60C0
C0C0
C0C0
C0C0
63C0
3EF0
ENDCHAR
STARTCHAR uni0204
ENCODING 516
SWIDTH 602 0
DWIDTH 14 0
BBX 12 21 1 0
BITMAP
CC00
2600
1300
0000
3FE0
3000
3000
3000
3000
3000
3000
3FC0
3000
3000
3000
3000
3000
3000
3000
3000
3FF0
ENDCHAR
STARTCHAR uni0205
ENCODING 517
SWIDTH 602 0
DWIDTH 14 0
BBX 11 17 2 0
BITMAP
6600
1300
0980
0000
1F80
31C0
60C0
6060
C060
C060
FFE0
C000
C000
4000
6000
3020
0FE0
ENDCHAR
STARTCHAR uni0206
ENCODING 518
SWIDTH 602 0
DWIDTH 14 0
BBX 10 21 3 0
BITMAP
3C00
6600
C300
0000
FF80
C000
C000
C000
C000
C000
C000
FF00
C000
C000
C000
C000
C000
C000
C000
C000
FFC0
ENDCHAR
STARTCHAR uni0207
ENCODING 519
SWIDTH 602 0
DWIDTH 14 0
BBX 11 17 2 0
BITMAP
0F00
1980
30C0
0000
1F80
31C0
60C0
6060
C060
C060
FFE0
C000
C000
4000
6000
3020
0FE0
ENDCHAR
STARTCHAR uni0208
ENCODING 520
SWIDTH 602 0
DWIDTH 14 0
BBX 10 21 2 0
BITMAP
CC00
2600
1300
0000
FFC0
0C00
0C00
0C00
0C00
0C00
0C00
0C00
0C00
0C00
0C00
0C00
0C00
0C00
0C00
0C00
FFC0
ENDCHAR
STARTCHAR uni0209
ENCODING 521
SWIDTH 602 0
DWIDTH 14 0
BBX 8 17 1 0
BITMAP
CC
26
13
00
7F
03
03
03
03
03
03
03
03
03
03
03
03
ENDCHAR
STARTCHAR uni020A
ENCODING 522
SWIDTH 602 0
DWIDTH 14 0
BBX 10 21 2 0
BITMAP
1E00
3300
6180
0000
FFC0
0C00
0C00
0C00
0C00
0C00
0C00
0C00
0C00
0C00
0C00
0C00
0C00
0C00
0C00
0C00
FFC0
ENDCHAR
STARTCHAR uni020B
ENCODING 523
SWIDTH 602 0
DWIDTH 14 0
BBX 8 17 2 0
BITMAP
3C
66
C3
00
FE
06
06
06
06
06
06
06
06
06
06
06
06
ENDCHAR
STARTCHAR uni020C
ENCODING 524
SWIDTH 602 0
DWIDTH 14 0
BBX 13 21 1 0
BITMAP
6600
1300
0980
0000
0F80
38E0
3060
6030
6030
C018
C018
C018
C018
C018
C018
C018
6030
6030
3060
38E0
0F80
ENDCHAR
STARTCHAR uni020D
ENCODING 525
SWIDTH 602 0
DWIDTH 14 0
BBX 12 17 1 0
BITMAP
6600
1300
0980
0000
1F80
30C0
6060
6060
C030
C030
C030
C030
C030
6060
6060
30C0
1F80
ENDCHAR
STARTCHAR uni020E
ENCODING 526
SWIDTH 602 0
DWIDTH 14 0
BBX 13 21 1 0
BITMAP
0780
0CC0
1860
0000
0F80
38E0
3060
6030
6030
C018
C018
C018
C018
C018
C018
C018
6030
6030
3060
38E0
0F80
ENDCHAR
STARTCHAR uni020F
ENCODING 527
SWIDTH 602 0
DWIDTH 14 0
BBX 12 17 1 0
BITMAP
0F00
1980
30C0
0000
1F80
30C0
6060
6060
C030
C030
C030
C030
C030
6060
6060
30C0
1F80
ENDCHAR
STARTCHAR uni0210
ENCODING 528
SWIDTH 602 0
DWIDTH 14 0
BBX 12 21 2 0
BITMAP
CC00
2600
1300
0000
FF00
C180
C0C0
C0C0
C0C0
C0C0
C1C0
C380
FF00
C600
C700
C300
C180
C1C0
C0C0
C0E0
C070
ENDCHAR
STARTCHAR uni0211
ENCODING 529
SWIDTH 602 0
DWIDTH 14 0
BBX 10 17 3 0
BITMAP
CC00
2600
1300
0000
67C0
7C40
7040
6000
6000
6000
6000
6000
6000
6000
6000
6000
6000
ENDCHAR
STARTCHAR uni0212
ENCODING 530
SWIDTH 602 0
DWIDTH 14 0
BBX 12 21 2 0
BITMAP
1E00
3300
6180
0000
FF00
C180
C0C0
C0C0
C0C0
C0C0
C1C0
C380
FF00
C600
C700
C300
C180
C1C0
C0C0
C0E0
C070
ENDCHAR
STARTCHAR uni0213
ENCODING 531
SWIDTH 602 0
DWIDTH 14 0
BBX 9 17 4 0
BITMAP
3C00
6600
C300
0000
CF80
F880
E080
C000
C000
C000
C000
C000
C000
C000
C000
C000
C000
ENDCHAR
STARTCHAR uni0214
ENCODING 532
SWIDTH 602 0
DWIDTH 14 0
BBX 12 21 1 0
BITMAP
CC00
2600
1300
0000
6010
6010
6010
6010
6010
6010
6010
6010
6010
6010
6010
6010
6010
6010
2020
3060
1FC0
ENDCHAR
STARTCHAR uni0215
ENCODING 533
SWIDTH 602 0
DWIDTH 14 0
BBX 10 17 2 0
BITMAP
CC00
2600
1300
0000
C0C0
C0C0
C0C0
C0C0
C0C0
C0C0
C0C0
C0C0
C0C0
C1C0
C3C0
7EC0
3CC0
ENDCHAR
STARTCHAR uni0216
ENCODING 534
SWIDTH 602 0
DWIDTH 14 0
BBX 11 21 2 0
BITMAP
1E00
3300
6180
0000
C020
C020
C020
C020
C020
C020
C020
C020
C020
C020
C020
C020
C020
C020
4040
60C0
3F80
ENDCHAR
STARTCHAR uni0217
ENCODING 535
SWIDTH 602 0
DWIDTH 14 0
BBX 10 17 2 0
BITMAP
1E00
3300
6180
0000
C0C0
C0C0
C0C0
C0C0
C0C0
C0C0
C0C0
C0C0
C0C0
C1C0
C3C0
7EC0
3CC0
ENDCHAR
STARTCHAR Scommaaccent
ENCODING 536
SWIDTH 602 0
DWIDTH 14 0
BBX 11 26 2 -9
BITMAP
1FC0
6040
C000
C000
C000
E000
7000
3C00
0F00
03C0
00E0
0060
0060
0060
0040
80C0
7F00
0000
0700
0700
0700
0700
0100
0300
0200
0600
ENDCHAR
STARTCHAR scommaaccent
ENCODING 537
SWIDTH 602 0
DWIDTH 14 0
BBX 10 22 2 -9
BITMAP
3F80
6080
C000
C000
E000
7C00
3F00
07C0
00C0
00C0
00C0
C180
FE00
0000
0E00
0E00
0E00
0E00
0200
0600
0400
0C00
ENDCHAR
STARTCHAR Tcommaaccent
ENCODING 538
SWIDTH 602 0
DWIDTH 14 0
BBX 14 26 0 -9
BITMAP
FFFC
0300
0300
0300
0300
0300
0300
0300
0300
0300
0300
0300
0300
0300
0300
0300
0300
0000
0380
0380
0380
0380
0080
0180
0100
0300
ENDCHAR
STARTCHAR tcommaaccent
ENCODING 539
SWIDTH 602 0
DWIDTH 14 0
BBX 11 24 2 -9
BITMAP
1800
1800
FFE0
1800
1800
1800
1800
1800
1800
1800
1800
1800
1800
0C00
07E0
0000
0E00
0E00
0E00
0E00
0200
0600
0400
0C00
ENDCHAR
STARTCHAR uni021E
ENCODING 542
SWIDTH 602 0
DWIDTH 14 0
BBX 11 21 2 0
BITMAP
39C0
1F80
0F00
0000
C060
C060
C060
C060
C060
C060
C060
C060
FFE0
C060
C060
C060
C060
C060
C060
C060
C060
ENDCHAR
STARTCHAR uni021F
ENCODING 543
SWIDTH 602 0
DWIDTH 14 0
BBX 11 21 1 0
BITMAP
E700
7E00
3C00
0000
6000
6000
6000
6000
6780
6FC0
78E0
7060
6060
6060
6060
6060
6060
6060
6060
6060
6060
ENDCHAR
STARTCHAR uni0226
ENCODING 550
SWIDTH 602 0
DWIDTH 14 0
BBX 13 20 -1 0
BITMAP
0600
0600
0000
0600
0700
0B00
0B00
0980
1180
1180
10C0
30C0
20C0
20E0
7FE0
4060
4030
8030
8030
8018
ENDCHAR
STARTCHAR uni0227
ENCODING 551
SWIDTH 602 0
DWIDTH 14 0
BBX 12 16 2 0
BITMAP
0300
0300
0000
3F80
41C0
00C0
00C0
00C0
1FC0
70C0
60C0
C0C0
C0C0
C0C0
63C0
3EF0
ENDCHAR
STARTCHAR uni0228
ENCODING 552
SWIDTH 602 0
DWIDTH 14 0
BBX 10 22 3 -5
BITMAP
FF80
C000
C000
C000
C000
C000
C000
FF00
C000
C000
C000
C000
C000
C000
C000
C000
FFC0
3800
1800
0400
0400
3800
ENDCHAR
STARTCHAR uni0229
ENCODING 553
SWIDTH 602 0
DWIDTH 14 0
BBX 11 18 2 -5
BITMAP
1F80
31C0
60C0
6060
C060
C060
FFE0
C000
C000
4000
6000
3020
0FE0
0E00
0600
0100
0100
0E00
ENDCHAR
STARTCHAR uni022A
ENCODING 554
SWIDTH 602 0
DWIDTH 14 0
BBX 13 21 1 0
BITMAP
1FC0
0000
18C0
0000
0F80
38E0
3060
6030
6030
C018
C018
C018
C018
C018
C018
C018
6030
6030
3060
38E0
0F80
ENDCHAR
STARTCHAR uni022B
ENCODING 555
SWIDTH 602 0
DWIDTH 14 0
BBX 12 17 1 0
BITMAP
3F80
0000
3180
0000
1F80
30C0
6060
6060
C030
C030
C030
C030
C030
6060
6060
30C0
1F80
ENDCHAR
STARTCHAR uni022C
ENCODING 556
SWIDTH 602 0
DWIDTH 14 0
BBX 13 22 1 0
BITMAP
1FC0
0000
0F60
1BC0
0000
0F80
38E0
3060
6030
6030
C018
C018
C018
C018
C018
C018
C018
6030
6030
3060
38E0
0F80
ENDCHAR
STARTCHAR uni022D
ENCODING 557
SWIDTH 602 0
DWIDTH 14 0
BBX 12 18 1 0
BITMAP
1FC0
0000
1EC0
3780
0000
1F80
30C0
6060
6060
C030
C030
C030
C030
C030
6060
6060
30C0
1F80
ENDCHAR
STARTCHAR uni022E
ENCODING 558
SWIDTH 602 0
DWIDTH 14 0
BBX 13 20 1 0
BITMAP
0300
0300
0000
0F80
38E0
3060
6030
6030
C018
C018
C018
C018
C018
C018
C018
6030
6030
3060
38E0
0F80
ENDCHAR
STARTCHAR uni022F
ENCODING 559
SWIDTH 602 0
DWIDTH 14 0
BBX 12 16 1 0
BITMAP
0600
0600
0000
1F80
30C0
6060
6060
C030
C030
C030
C030
C030
6060
6060
30C0
1F80
ENDCHAR
STARTCHAR uni0230
ENCODING 560
SWIDTH 602 0
DWIDTH 14 0
BBX 13 22 1 0
BITMAP
1FC0
0000
0300
0300
0000
0F80
38E0
3060
6030
6030
C018
C018
C018
C018
C018
C018
C018
6030
6030
3060
38E0
0F80
ENDCHAR
STARTCHAR uni0231
ENCODING 561
SWIDTH 602 0
DWIDTH 14 0
BBX 12 18 1 0
BITMAP
1FC0
0000
0600
0600
0000
1F80
30C0
6060
6060
C030
C030
C030
C030
C030
6060
6060
30C0
1F80
ENDCHAR
STARTCHAR uni0232
ENCODING 562
SWIDTH 602 0
DWIDTH 14 0
BBX 13 19 0 0
BITMAP
3F80
0000
E008
6018
3010
3820
1820
1C40
0CC0
0680
0700
0300
0300
0300
0300
0300
0300
0300
0300
ENDCHAR
STARTCHAR uni0233
ENCODING 563
SWIDTH 602 0
DWIDTH 14 0
BBX 13 20 1 -5
BITMAP
3F80
0000
E018
6010
6030
3020
3020
3840
1840
1880
0C80
0D80
0F00
0700
0600
0200
0400
0400
0800
7000
ENDCHAR
STARTCHAR uni0250
ENCODING 592
SWIDTH 602 0
DWIDTH 14 0
BBX 12 13 2 0
BITMAP
F7C0
3C60
3030
3030
3030
3060
30E0
3F80
3000
3000
3000
3820
1FC0
ENDCHAR
STARTCHAR uni0254
ENCODING 596
SWIDTH 602 0
DWIDTH 14 0
BBX 11 13 2 0
BITMAP
FE00
C380
00C0
00C0
0060
0060
0060
0060
0060
00C0
00C0
8380
FE00
ENDCHAR
STARTCHAR uni0258
ENCODING 600
SWIDTH 602 0
DWIDTH 14 0
BBX 11 13 2 0
BITMAP
3F00
7180
60C0
C0C0
C060
C060
FFE0
0060
0060
0040
00C0
8180
FE00
ENDCHAR
STARTCHAR uni0259
ENCODING 601
SWIDTH 602 0
DWIDTH 14 0
BBX 11 13 2 0
BITMAP
FE00
8180
00C0
0040
0060
0060
FFE0
C060
C060
C0C0
60C0
7180
3F00
ENDCHAR
STARTCHAR uni025F
ENCODING 607
SWIDTH 602 0
DWIDTH 14 0
BBX 12 19 2 -6
BITMAP
0180
0180
0180
0180
0180
0180
0180
0180
0180
0180
0180
0180
FFF0
0180
0180
0180
0180
8300
FE00
ENDCHAR
STARTCHAR uni0265
ENCODING 613
SWIDTH 602 0
DWIDTH 14 0
BBX 10 17 2 -4
BITMAP
C0C0
C0C0
C0C0
C0C0
C0C0
C0C0
C0C0
C0C0
C0C0
C1C0
E3C0
7EC0
3CC0
00C0
00C0
00C0
00C0
ENDCHAR
STARTCHAR uni0275
ENCODING 629
SWIDTH 602 0
DWIDTH 14 0
BBX 12 13 1 0
BITMAP
1F80
30C0
6060
6060
C030
C030
FFF0
C030
C030
6060
6060
30C0
1F80
ENDCHAR
STARTCHAR uni0279
ENCODING 633
SWIDTH 602 0
DWIDTH 14 0
BBX 9 13 4 0
BITMAP
0180
0180
0180
0180
0180
0180
0180
0180
0180
0180
8380
8F80
F980
ENDCHAR
STARTCHAR uni0287
ENCODING 647
SWIDTH 602 0
DWIDTH 14 0
BBX 11 15 2 0
BITMAP
FC00
0600
0300
0300
0300
0300
0300
0300
0300
0300
0300
0300
FFE0
0300
0300
ENDCHAR
STARTCHAR uni0288
ENCODING 648
SWIDTH 602 0
DWIDTH 14 0
BBX 11 20 2 -5
BITMAP
1800
1800
FFE0
1800
1800
1800
1800
1800
1800
1800
1800
1800
1800
1800
1800
1800
1800
1800
0C20
07E0
ENDCHAR
STARTCHAR uni0289
ENCODING 649
SWIDTH 602 0
DWIDTH 14 0
BBX 10 13 2 0
BITMAP
C0C0
C0C0
C0C0
C0C0
C0C0
C0C0
FFC0
C0C0
C0C0
C1C0
C3C0
7EC0
3CC0
ENDCHAR
STARTCHAR uni028C
ENCODING 652
SWIDTH 602 0
DWIDTH 14 0
BBX 13 13 1 0
BITMAP
0300
0700
0780
0D80
0980
08C0
10C0
10E0
2060
2060
2030
4030
C018
ENDCHAR
STARTCHAR uni028D
ENCODING 653
SWIDTH 602 0
DWIDTH 14 0
BBX 14 13 0 0
BITMAP
1830
3870
3870
2870
2458
2498
6498
4498
4498
4318
430C
830C
800C
ENDCHAR
STARTCHAR uni028E
ENCODING 654
SWIDTH 602 0
DWIDTH 14 0
BBX 13 18 1 0
BITMAP
0070
0080
0100
0100
0200
0300
0700
0780
0D80
0980
08C0
10C0
10E0
2060
2060
6030
4030
C038
ENDCHAR
STARTCHAR uni029E
ENCODING 670
SWIDTH 602 0
DWIDTH 14 0
BBX 11 17 3 -4
BITMAP
E060
3060
3860
1C60
0E60
0760
03E0
0160
0260
0460
0860
1060
3060
0060
0060
0060
0060
ENDCHAR
STARTCHAR uni02BB
ENCODING 699
SWIDTH 602 0
DWIDTH 14 0
BBX 3 6 6 11
BITMAP
60
C0
80
E0
E0
E0
ENDCHAR
STARTCHAR afii57929
ENCODING 700
SWIDTH 602 0
DWIDTH 14 0
BBX 3 6 6 11
BITMAP
E0
E0
20
60
C0
80
ENDCHAR
STARTCHAR afii64937
ENCODING 701
SWIDTH 602 0
DWIDTH 14 0
BBX 3 6 6 11
BITMAP
E0
E0
80
C0
60
20
ENDCHAR
STARTCHAR circumflex
ENCODING 710
SWIDTH 602 0
DWIDTH 14 0
BBX 8 3 3 14
BITMAP
3C
7E
E7
ENDCHAR
STARTCHAR caron
ENCODING 711
SWIDTH 602 0
DWIDTH 14 0
BBX 8 3 3 14
BITMAP
E7
7E
3C
ENDCHAR
STARTCHAR uni02C8
ENCODING 712
SWIDTH 602 0
DWIDTH 14 0
BBX 3 6 6 11
BITMAP
E0
E0
E0
40
40
40
ENDCHAR
STARTCHAR macron
ENCODING 713
SWIDTH 602 0
DWIDTH 14 0
BBX 7 1 4 16
BITMAP
FE
ENDCHAR
STARTCHAR uni02CA
ENCODING 714
SWIDTH 602 0
DWIDTH 14 0
BBX 5 3 4 14
BITMAP
38
60
C0
ENDCHAR
STARTCHAR uni02CB
ENCODING 715
SWIDTH 602 0
DWIDTH 14 0
BBX 5 3 5 14
BITMAP
E0
30
18
ENDCHAR
STARTCHAR uni02CD
ENCODING 717
SWIDTH 602 0
DWIDTH 14 0
BBX 7 1 4 -2
BITMAP
FE
ENDCHAR
STARTCHAR uni02CE
ENCODING 718
SWIDTH 602 0
DWIDTH 14 0
BBX 5 3 5 -4
BITMAP
E0
30
18
ENDCHAR
STARTCHAR uni02CF
ENCODING 719
SWIDTH 602 0
DWIDTH 14 0
BBX 5 3 4 -4
BITMAP
38
60
C0
ENDCHAR
STARTCHAR breve
ENCODING 728
SWIDTH 602 0
DWIDTH 14 0
BBX 8 3 3 14
BITMAP
C3
66
3C
ENDCHAR
STARTCHAR dotaccent
ENCODING 729
SWIDTH 602 0
DWIDTH 14 0
BBX 2 2 6 15
BITMAP
C0
C0
ENDCHAR
STARTCHAR ring
ENCODING 730
SWIDTH 602 0
DWIDTH 14 0
BBX 4 4 5 15
BITMAP
60
90
90
60
ENDCHAR
STARTCHAR ogonek
ENCODING 731
SWIDTH 602 0
DWIDTH 14 0
BBX 4 5 5 -5
BITMAP
60
C0
C0
C0
70
ENDCHAR
STARTCHAR tilde
ENCODING 732
SWIDTH 602 0
DWIDTH 14 0
BBX 8 2 3 15
BITMAP
7B
DE
ENDCHAR
STARTCHAR hungarumlaut
ENCODING 733
SWIDTH 602 0
DWIDTH 14 0
BBX 8 3 3 14
BITMAP
33
64
C8
ENDCHAR
STARTCHAR uni02EE
ENCODING 750
SWIDTH 602 0
DWIDTH 14 0
BBX 9 5 3 12
BITMAP
C180
C180
4080
4080
C180
ENDCHAR
STARTCHAR uni037E
ENCODING 894
SWIDTH 602 0
DWIDTH 14 0
BBX 3 17 6 -4
BITMAP
E0
E0
E0
00
00
00
00
00
00
E0
E0
E0
E0
20
60
40
C0
ENDCHAR
STARTCHAR tonos
ENCODING 900
SWIDTH 602 0
DWIDTH 14 0
BBX 5 3 4 14
BITMAP
38
60
C0
ENDCHAR
STARTCHAR dieresistonos
ENCODING 901
SWIDTH 602 0
DWIDTH 14 0
BBX 7 5 4 16
BITMAP
0E
18
30
00
C6
ENDCHAR
STARTCHAR anoteleia
ENCODING 903
SWIDTH 602 0
DWIDTH 14 0
BBX 3 2 6 6
BITMAP
E0
E0
ENDCHAR
STARTCHAR mu
ENCODING 956
SWIDTH 602 0
DWIDTH 14 0
BBX 10 17 2 -4
BITMAP
C0C0
C0C0
C0C0
C0C0
C0C0
C0C0
C0C0
C0C0
C0C0
C1C0
C3C0
FEC0
FCC0
C000
C000
C000
C000
ENDCHAR
STARTCHAR uni1E00
ENCODING 7680
SWIDTH 602 0
DWIDTH 14 0
BBX 13 22 -1 -5
BITMAP
0600
0700
0B00
0B00
0980
1180
1180
10C0
30C0
20C0
20E0
7FE0
4060
4030
8030
8030
8018
0000
0300
0480
0480
0300
ENDCHAR
STARTCHAR uni1E01
ENCODING 7681
SWIDTH 602 0
DWIDTH 14 0
BBX 12 18 2 -5
BITMAP
3F80
41C0
00C0
00C0
00C0
1FC0
70C0
60C0
C0C0
C0C0
C0C0
63C0
3EF0
0000
0600
0900
0900
0600
ENDCHAR
STARTCHAR uni1E02
ENCODING 7682
SWIDTH 602 0
DWIDTH 14 0
BBX 11 20 2 0
BITMAP
0C00
0C00
0000
FF00
C180
C0C0
C0C0
C0C0
C0C0
C180
C300
FF00
C3C0
C0C0
C060
C060
C060
C060
C0C0
FF80
ENDCHAR
STARTCHAR uni1E03
ENCODING 7683
SWIDTH 602 0
DWIDTH 14 0
BBX 11 20 2 0
BITMAP
3000
3000
0000
C000
C000
C000
C000
CF00
F1C0
E0C0
C060
C060
C060
C060
C060
C060
C0C0
C0C0
F180
DF00
ENDCHAR
STARTCHAR uni1E04
ENCODING 7684
SWIDTH 602 0
DWIDTH 14 0
BBX 11 20 2 -3
BITMAP
FF00
C180
C0C0
C0C0
C0C0
C0C0
C180
C300
FF00
C3C0
C0C0
C060
C060
C060
C060
C0C0
FF80
0000
0C00
0C00
ENDCHAR
STARTCHAR uni1E05
ENCODING 7685
SWIDTH 602 0
DWIDTH 14 0
BBX 11 20 2 -3
BITMAP
C000
C000
C000
C000
CF00
F1C0
E0C0
C060
C060
C060
C060
C060
C060
C0C0
C0C0
F180
DF00
0000
0C00
0C00
ENDCHAR
STARTCHAR uni1E06
ENCODING 7686
SWIDTH 602 0
DWIDTH 14 0
BBX 11 19 2 -2
BITMAP
FF00
C180
C0C0
C0C0
C0C0
C0C0
C180
C300
FF00
C3C0
C0C0
C060
C060
C060
C060
C0C0
FF80
0000
3F80
ENDCHAR
STARTCHAR uni1E07
ENCODING 7687
SWIDTH 602 0
DWIDTH 14 0
BBX 11 19 2 -2
BITMAP
C000
C000
C000
C000
CF00
F1C0
E0C0
C060
C060
C060
C060
C060
C060
C0C0
C0C0
F180
DF00
0000
7F00
ENDCHAR
STARTCHAR uni1E08
ENCODING 7688
SWIDTH 602 0
DWIDTH 14 0
BBX 12 26 1 -5
BITMAP
0380
0600
0C00
0000
07F0
1830
3000
6000
6000
C000
C000
C000
C000
C000
C000
C000
6000
6000
3000
1C10
07F0
0C00
0600
0100
0100
0E00
ENDCHAR
STARTCHAR uni1E09
ENCODING 7689
SWIDTH 602 0
DWIDTH 14 0
BBX 11 22 2 -5
BITMAP
0380
0600
0C00
0000
0FE0
3860
6000
6000
C000
C000
C000
C000
C000
6000
6000
3820
0FE0
0400
0600
0100
0100
0E00
ENDCHAR
STARTCHAR uni1E0A
ENCODING 7690
SWIDTH 602 0
DWIDTH 14 0
BBX 12 20 2 0
BITMAP
0C00
0C00
0000
FF00
C1C0
C0E0
C060
C030
C030
C030
C030
C030
C030
C030
C030
C060
C060
C0C0
C1C0
FF00
ENDCHAR
STARTCHAR uni1E0B
ENCODING 7691
SWIDTH 602 0
DWIDTH 14 0
BBX 11 20 2 0
BITMAP
0180
0180
0000
0060
0060
0060
0060
1F60
31E0
6060
6060
C060
C060
C060
C060
C060
C060
60E0
71E0
1E60
ENDCHAR
STARTCHAR uni1E0C
ENCODING 7692
SWIDTH 602 0
DWIDTH 14 0
BBX 12 20 2 -3
BITMAP
FF00
C1C0
C0E0
C060
C030
C030
C030
C030
C030
C030
C030
C030
C060
C060
C0C0
C1C0
FF00
0000
0C00
0C00
ENDCHAR
STARTCHAR uni1E0D
ENCODING 7693
SWIDTH 602 0
DWIDTH 14 0
BBX 11 20 2 -3
BITMAP
0060
0060
0060
0060
1F60
31E0
6060
6060
C060
C060
C060
C060
C060
C060
60E0
71E0
1E60
0000
0600
0600
ENDCHAR
STARTCHAR uni1E0E
ENCODING 7694
SWIDTH 602 0
DWIDTH 14 0
BBX 12 19 2 -2
BITMAP
FF00
C1C0
C0E0
C060
C030
C030
C030
C030
C030
C030
C030
C030
C060
C060
C0C0
C1C0
FF00
0000
3F80
ENDCHAR
STARTCHAR uni1E0F
ENCODING 7695
SWIDTH 602 0
DWIDTH 14 0
BBX 11 19 2 -2
BITMAP
0060
0060
0060
0060
1F60
31E0
6060
6060
C060
C060
C060
C060
C060
C060
60E0
71E0
1E60
0000
3F80
ENDCHAR
STARTCHAR uni1E10
ENCODING 7696
SWIDTH 602 0
DWIDTH 14 0
BBX 12 22 2 -5
BITMAP
FF00
C1C0
C0E0
C060
C030
C030
C030
C030
C030
C030
C030
C030
C060
C060
C0C0
C1C0
FF00
1C00
0C00
0200
0200
1C00
ENDCHAR
STARTCHAR uni1E11
ENCODING 7697
SWIDTH 602 0
DWIDTH 14 0
BBX 11 22 2 -5
BITMAP
0060
0060
0060
0060
1F60
31E0
6060
6060
C060
C060
C060
C060
C060
C060
60E0
71E0
1E60
0E00
0600
0100
0100
0E00
ENDCHAR
STARTCHAR uni1E12
ENCODING 7698
SWIDTH 602 0
DWIDTH 14 0
BBX 12 21 2 -4
BITMAP
FF00
C1C0
C0E0
C060
C030
C030
C030
C030
C030
C030
C030
C030
C060
C060
C0C0
C1C0
FF00
0000
1E00
3F00
7380
ENDCHAR
STARTCHAR uni1E13
ENCODING 7699
SWIDTH 602 0
DWIDTH 14 0
BBX 11 21 2 -4
BITMAP
0060
0060
0060
0060
1F60
31E0
6060
6060
C060
C060
C060
C060
C060
C060
60E0
71E0
1E60
0000
0F00
1F80
39C0
ENDCHAR
STARTCHAR uni1E14
ENCODING 7700
SWIDTH 602 0
DWIDTH 14 0
BBX 10 23 3 0
BITMAP
E000
3000
1800
0000
FE00
0000
FF80
C000
C000
C000
C000
C000
C000
FF00
C000
C000
C000
C000
C000
C000
C000
C000
FFC0
ENDCHAR
STARTCHAR uni1E15
ENCODING 7701
SWIDTH 602 0
DWIDTH 14 0
BBX 11 19 2 0
BITMAP
3800
0C00
0600
0000
3F80
0000
1F80
31C0
60C0
6060
C060
C060
FFE0
C000
C000
4000
6000
3020
0FE0
ENDCHAR
STARTCHAR uni1E16
ENCODING 7702
SWIDTH 602 0
DWIDTH 14 0
BBX 10 23 3 0
BITMAP
0E00
1800
3000
0000
FE00
0000
FF80
C000
C000
C000
C000
C000
C000
FF00
C000
C000
C000
C000
C000
C000
C000
C000
FFC0
ENDCHAR
STARTCHAR uni1E17
ENCODING 7703
SWIDTH 602 0
DWIDTH 14 0
BBX 11 19 2 0
BITMAP
0380
0600
0C00
0000
3F80
0000
1F80
31C0
60C0
6060
C060
C060
FFE0
C000
C000
4000
6000
3020
0FE0
ENDCHAR
STARTCHAR uni1E18
ENCODING 7704
SWIDTH 602 0
DWIDTH 14 0
BBX 10 21 3 -4
BITMAP
FF80
C000
C000
C000
C000
C000
C000
FF00
C000
C000
C000
C000
C000
C000
C000
C000
FFC0
0000
3C00
7E00
E700
ENDCHAR
STARTCHAR uni1E19
ENCODING 7705
SWIDTH 602 0
DWIDTH 14 0
BBX 11 17 2 -4
BITMAP
1F80
31C0
60C0
6060
C060
C060
FFE0
C000
C000
4000
6000
3020
0FE0
0000
0F00
1F80
39C0
ENDCHAR
STARTCHAR uni1E1A
ENCODING 7706
SWIDTH 602 0
DWIDTH 14 0
BBX 10 20 3 -3
BITMAP
FF80
C000
C000
C000
C000
C000
C000
FF00
C000
C000
C000
C000
C000
C000
C000
C000
FFC0
0000
7B00
DE00
ENDCHAR
STARTCHAR uni1E1B
ENCODING 7707
SWIDTH 602 0
DWIDTH 14 0
BBX 11 16 2 -3
BITMAP
1F80
31C0
60C0
6060
C060
C060
FFE0
C000
C000
4000
6000
3020
0FE0
0000
3D80
6F00
ENDCHAR
STARTCHAR uni1E1C
ENCODING 7708
SWIDTH 602 0
DWIDTH 14 0
BBX 11 26 2 -5
BITMAP
C300
6600
3C00
0000
7FC0
6000
6000
6000
6000
6000
6000
7F80
6000
6000
6000
6000
6000
6000
6000
6000
7FE0
1C00
0C00
0200
0200
1C00
ENDCHAR
STARTCHAR uni1E1D
ENCODING 7709
SWIDTH 602 0
DWIDTH 14 0
BBX 11 22 2 -5
BITMAP
30C0
1980
0F00
0000
1F80
31C0
60C0
6060
C060
C060
FFE0
C000
C000
4000
6000
3020
0FE0
0E00
0600
0100
0100
0E00
ENDCHAR
STARTCHAR uni1E1E
ENCODING 7710
SWIDTH 602 0
DWIDTH 14 0
BBX 10 20 3 0
BITMAP
1800
1800
0000
FFC0
C000
C000
C000
C000
C000
C000
C000
FF80
C000
C000
C000
C000
C000
C000
C000
C000
ENDCHAR
STARTCHAR uni1E1F
ENCODING 7711
SWIDTH 602 0
DWIDTH 14 0
BBX 12 22 2 0
BITMAP
0600
0600
0000
07F0
0C10
1800
1800
1800
1800
FFF0
1800
1800
1800
1800
1800
1800
1800
1800
1800
1800
1800
1800
ENDCHAR
STARTCHAR uni1E20
ENCODING 7712
SWIDTH 602 0
DWIDTH 14 0
BBX 12 19 1 0
BITMAP
3F80
0000
07F0
1810
3000
6000
6000
C000
C000
C000
C000
C000
C030
C030
6030
6030
3030
1C30
07E0
ENDCHAR
STARTCHAR uni1E21
ENCODING 7713
SWIDTH 602 0
DWIDTH 14 0
BBX 11 20 2 -5
BITMAP
1FC0
0000
1FA0
31E0
60E0
4060
C060
C060
C060
C060
C060
C060
60E0
71E0
1E60
0060
0060
0040
4080
7F00
ENDCHAR
STARTCHAR uni1E22
ENCODING 7714
SWIDTH 602 0
DWIDTH 14 0
BBX 11 20 2 0
BITMAP
0600
0600
0000
C060
C060
C060
C060
C060
C060
C060
C060
FFE0
C060
C060
C060
C060
C060
C060
C060
C060
ENDCHAR
STARTCHAR uni1E23
ENCODING 7715
SWIDTH 602 0
DWIDTH 14 0
BBX 10 20 2 0
BITMAP
3000
3000
0000
C000
C000
C000
C000
CF00
DF80
F1C0
E0C0
C0C0
C0C0
C0C0
C0C0
C0C0
C0C0
C0C0
C0C0
C0C0
ENDCHAR
STARTCHAR uni1E24
ENCODING 7716
SWIDTH 602 0
DWIDTH 14 0
BBX 11 20 2 -3
BITMAP
C060
C060
C060
C060
C060
C060
C060
C060
FFE0
C060
C060
C060
C060
C060
C060
C060
C060
0000
0600
0600
ENDCHAR
STARTCHAR uni1E25
ENCODING 7717
SWIDTH 602 0
DWIDTH 14 0
BBX 10 20 2 -3
BITMAP
C000
C000
C000
C000
CF00
DF80
F1C0
E0C0
C0C0
C0C0
C0C0
C0C0
C0C0
C0C0
C0C0
C0C0
C0C0
0000
0C00
0C00
ENDCHAR
STARTCHAR uni1E26
ENCODING 7718
SWIDTH 602 0
DWIDTH 14 0
BBX 11 19 2 0
BITMAP
3180
0000
C060
C060
C060
C060
C060
C060
C060
C060
FFE0
C060
C060
C060
C060
C060
C060
C060
C060
ENDCHAR
STARTCHAR uni1E27
ENCODING 7719
SWIDTH 602 0
DWIDTH 14 0
BBX 10 19 2 0
BITMAP
C600
0000
C000
C000
C000
C000
CF00
DF80
F1C0
E0C0
C0C0
C0C0
C0C0
C0C0
C0C0
C0C0
C0C0
C0C0
C0C0
ENDCHAR
STARTCHAR uni1E28
ENCODING 7720
SWIDTH 602 0
DWIDTH 14 0
BBX 11 22 2 -5
BITMAP
C060
C060
C060
C060
C060
C060
C060
C060
FFE0
C060
C060
C060
C060
C060
C060
C060
C060
0E00
0600
0100
0100
0E00
ENDCHAR
STARTCHAR uni1E29
ENCODING 7721
SWIDTH 602 0
DWIDTH 14 0
BBX 10 22 2 -5
BITMAP
C000
C000
C000
C000
CF00
DF80
F1C0
E0C0
C0C0
C0C0
C0C0
C0C0
C0C0
C0C0
C0C0
C0C0
C0C0
1C00
0C00
0200
0200
1C00
ENDCHAR
STARTCHAR uni1E2A
ENCODING 7722
SWIDTH 602 0
DWIDTH 14 0
BBX 11 21 2 -4
BITMAP
C060
C060
C060
C060
C060
C060
C060
C060
FFE0
C060
C060
C060
C060
C060
C060
C060
C060
0000
30C0
1980
0F00
ENDCHAR
STARTCHAR uni1E2B
ENCODING 7723
SWIDTH 602 0
DWIDTH 14 0
BBX 10 21 2 -4
BITMAP
C000
C000
C000
C000
CF00
DF80
F1C0
E0C0
C0C0
C0C0
C0C0
C0C0
C0C0
C0C0
C0C0
C0C0
C0C0
0000
6180
3300
1E00
ENDCHAR
STARTCHAR uni1E2C
ENCODING 7724
SWIDTH 602 0
DWIDTH 14 0
BBX 10 20 2 -3
BITMAP
FFC0
0C00
0C00
0C00
0C00
0C00
0C00
0C00
0C00
0C00
0C00
0C00
0C00
0C00
0C00
0C00
FFC0
0000
3D80
6F00
ENDCHAR
STARTCHAR uni1E2D
ENCODING 7725
SWIDTH 602 0
DWIDTH 14 0
BBX 9 20 2 -3
BITMAP
0600
0600
0000
0000
FE00
0600
0600
0600
0600
0600
0600
0600
0600
0600
0600
0600
0600
0000
3D80
6F00
ENDCHAR
STARTCHAR uni1E2E
ENCODING 7726
SWIDTH 602 0
DWIDTH 14 0
BBX 10 23 2 0
BITMAP
0700
0C00
1800
0000
6300
0000
FFC0
0C00
0C00
0C00
0C00
0C00
0C00
0C00
0C00
0C00
0C00
0C00
0C00
0C00
0C00
0C00
FFC0
ENDCHAR
STARTCHAR uni1E2F
ENCODING 7727
SWIDTH 602 0
DWIDTH 14 0
BBX 9 19 2 0
BITMAP
0700
0C00
1800
0000
3180
0000
FE00
0600
0600
0600
0600
0600
0600
0600
0600
0600
0600
0600
0600
ENDCHAR
STARTCHAR uni1E30
ENCODING 7728
SWIDTH 602 0
DWIDTH 14 0
BBX 12 21 2 0
BITMAP
0700
0C00
1800
0000
C040
C080
C100
C300
C200
C400
C800
D000
F800
DC00
CC00
C600
C300
C380
C1C0
C0E0
C070
ENDCHAR
STARTCHAR uni1E31
ENCODING 7729
SWIDTH 602 0
DWIDTH 14 0
BBX 11 21 3 0
BITMAP
0E00
1800
3000
0000
C000
C000
C000
C000
C180
C100
C200
C400
C800
D000
F800
DC00
CE00
C700
C380
C180
C0E0
ENDCHAR
STARTCHAR uni1E32
ENCODING 7730
SWIDTH 602 0
DWIDTH 14 0
BBX 12 20 2 -3
BITMAP
C040
C080
C100
C300
C200
C400
C800
D000
F800
DC00
CC00
C600
C300
C380
C1C0
C0E0
C070
0000
0600
0600
ENDCHAR
STARTCHAR uni1E33
ENCODING 7731
SWIDTH 602 0
DWIDTH 14 0
BBX 11 20 3 -3
BITMAP
C000
C000
C000
C000
C180
C100
C200
C400
C800
D000
F800
DC00
CE00
C700
C380
C180
C0E0
0000
0C00
0C00
ENDCHAR
STARTCHAR uni1E34
ENCODING 7732
SWIDTH 602 0
DWIDTH 14 0
BBX 12 19 2 -2
BITMAP
C040
C080
C100
C300
C200
C400
C800
D000
F800
DC00
CC00
C600
C300
C380
C1C0
C0E0
C070
0000
3F80
ENDCHAR
STARTCHAR uni1E35
ENCODING 7733
SWIDTH 602 0
DWIDTH 14 0
BBX 11 19 3 -2
BITMAP
C000
C000
C000
C000
C180
C100
C200
C400
C800
D000
F800
DC00
CE00
C700
C380
C180
C0E0
0000
7F00
ENDCHAR
STARTCHAR uni1E36
ENCODING 7734
SWIDTH 602 0
DWIDTH 14 0
BBX 10 20 3 -3
BITMAP
C000
C000
C000
C000
C000
C000
C000
C000
C000
C000
C000
C000
C000
C000
C000
C000
FFC0
0000
1800
1800
ENDCHAR
STARTCHAR uni1E37
ENCODING 7735
SWIDTH 602 0
DWIDTH 14 0
BBX 7 20 2 -3
BITMAP
FE
06
06
06
06
06
06
06
06
06
06
06
06
06
06
06
06
00
0C
0C
ENDCHAR
STARTCHAR uni1E38
ENCODING 7736
SWIDTH 602 0
DWIDTH 14 0
BBX 11 22 2 -3
BITMAP
FE00
0000
6000
6000
6000
6000
6000
6000
6000
6000
6000
6000
6000
6000
6000
6000
6000
6000
7FE0
0000
0C00
0C00
ENDCHAR
STARTCHAR uni1E39
ENCODING 7737
SWIDTH 602 0
DWIDTH 14 0
BBX 8 22 2 -3
BITMAP
7F
00
FE
06
06
06
06
06
06
06
06
06
06
06
06
06
06
06
06
00
0C
0C
ENDCHAR
STARTCHAR uni1E3A
ENCODING 7738
SWIDTH 602 0
DWIDTH 14 0
BBX 10 19 3 -2
BITMAP
C000
C000
C000
C000
C000
C000
C000
C000
C000
C000
C000
C000
C000
C000
C000
C000
FFC0
0000
FE00
ENDCHAR
STARTCHAR uni1E3B
ENCODING 7739
SWIDTH 602 0
DWIDTH 14 0
BBX 9 19 2 -2
BITMAP
FE00
0600
0600
0600
0600
0600
0600
0600
0600
0600
0600
0600
0600
0600
0600
0600
0600
0000
3F80
ENDCHAR
STARTCHAR uni1E3C
ENCODING 7740
SWIDTH 602 0
DWIDTH 14 0
BBX 10 21 3 -4
BITMAP
C000
C000
C000
C000
C000
C000
C000
C000
C000
C000
C000
C000
C000
C000
C000
C000
FFC0
0000
3C00
7E00
E700
ENDCHAR
STARTCHAR uni1E3D
ENCODING 7741
SWIDTH 602 0
DWIDTH 14 0
BBX 9 21 2 -4
BITMAP
FE00
0600
0600
0600
0600
0600
0600
0600
0600
0600
0600
0600
0600
0600
0600
0600
0600
0000
1E00
3F00
7380
ENDCHAR
STARTCHAR uni1E3E
ENCODING 7742
SWIDTH 602 0
DWIDTH 14 0
BBX 12 21 1 0
BITMAP
01C0
0300
0600
0000
C030
E070
E070
A050
A050
B0D0
9090
9090
9090
8910
8910
8910
8910
8610
8610
8610
8010
ENDCHAR
STARTCHAR uni1E3F
ENCODING 7743
SWIDTH 602 0
DWIDTH 14 0
BBX 13 17 1 0
BITMAP
01C0
0300
0600
0000
9C70
A288
C308
8208
8208
8208
8208
8208
8208
8208
8208
8208
8208
ENDCHAR
STARTCHAR uni1E40
ENCODING 7744
SWIDTH 602 0
DWIDTH 14 0
BBX 12 20 1 0
BITMAP
0600
0600
0000
C030
E070
E070
A050
A050
B0D0
9090
9090
9090
8910
8910
8910
8910
8610
8610
8610
8010
ENDCHAR
STARTCHAR uni1E41
ENCODING 7745
SWIDTH 602 0
DWIDTH 14 0
BBX 13 16 1 0
BITMAP
0600
0600
0000
9C70
A288
C308
8208
8208
8208
8208
8208
8208
8208
8208
8208
8208
ENDCHAR
STARTCHAR uni1E42
ENCODING 7746
SWIDTH 602 0
DWIDTH 14 0
BBX 12 20 1 -3
BITMAP
C030
E070
E070
A050
A050
B0D0
9090
9090
9090
8910
8910
8910
8910
8610
8610
8610
8010
0000
0600
0600
ENDCHAR
STARTCHAR uni1E43
ENCODING 7747
SWIDTH 602 0
DWIDTH 14 0
BBX 13 16 1 -3
BITMAP
9C70
A288
C308
8208
8208
8208
8208
8208
8208
8208
8208
8208
8208
0000
0300
0300
ENDCHAR
STARTCHAR uni1E44
ENCODING 7748
SWIDTH 602 0
DWIDTH 14 0
BBX 11 20 2 0
BITMAP
1800
1800
0000
C020
E020
E020
F020
B020
9820
9820
8C20
8E20
8620
8320
8320
81A0
81E0
80E0
8060
8060
ENDCHAR
STARTCHAR uni1E45
ENCODING 7749
SWIDTH 602 0
DWIDTH 14 0
BBX 10 16 2 0
BITMAP
0C00
0C00
0000
CF00
DF80
F1C0
E0C0
C0C0
C0C0
C0C0
C0C0
C0C0
C0C0
C0C0
C0C0
C0C0
ENDCHAR
STARTCHAR uni1E46
ENCODING 7750
SWIDTH 602 0
DWIDTH 14 0
BBX 11 20 2 -3
BITMAP
C020
E020
E020
F020
B020
9820
9820
8C20
8E20
8620
8320
8320
81A0
81E0
80E0
8060
8060
0000
0300
0300
ENDCHAR
STARTCHAR uni1E47
ENCODING 7751
SWIDTH 602 0
DWIDTH 14 0
BBX 10 16 2 -3
BITMAP
CF00
DF80
F1C0
E0C0
C0C0
C0C0
C0C0
C0C0
C0C0
C0C0
C0C0
C0C0
C0C0
0000
0C00
0C00
ENDCHAR
STARTCHAR uni1E48
ENCODING 7752
SWIDTH 602 0
DWIDTH 14 0
BBX 11 19 2 -2
BITMAP
C020
E020
E020
F020
B020
9820
9820
8C20
8E20
8620
8320
8320
81A0
81E0
80E0
8060
8060
0000
1FC0
ENDCHAR
STARTCHAR uni1E49
ENCODING 7753
SWIDTH 602 0
DWIDTH 14 0
BBX 10 15 2 -2
BITMAP
CF00
DF80
F1C0
E0C0
C0C0
C0C0
C0C0
C0C0
C0C0
C0C0
C0C0
C0C0
C0C0
0000
3F80
ENDCHAR
STARTCHAR uni1E4A
ENCODING 7754
SWIDTH 602 0
DWIDTH 14 0
BBX 11 21 2 -4
BITMAP
C020
E020
E020
F020
B020
9820
9820
8C20
8E20
8620
8320
8320
81A0
81E0
80E0
8060
8060
0000
0780
0FC0
1CE0
ENDCHAR
STARTCHAR uni1E4B
ENCODING 7755
SWIDTH 602 0
DWIDTH 14 0
BBX 10 17 2 -4
BITMAP
CF00
DF80
F1C0
E0C0
C0C0
C0C0
C0C0
C0C0
C0C0
C0C0
C0C0
C0C0
C0C0
0000
1E00
3F00
7380
ENDCHAR
STARTCHAR uni1E4C
ENCODING 7756
SWIDTH 602 0
DWIDTH 14 0
BBX 13 24 1 0
BITMAP
01C0
0300
0600
0000
0F60
1BC0
0000
0F80
38E0
3060
6030
6030
C018
C018
C018
C018
C018
C018
C018
6030
6030
3060
38E0
0F80
ENDCHAR
STARTCHAR uni1E4D
ENCODING 7757
SWIDTH 602 0
DWIDTH 14 0
BBX 12 20 1 0
BITMAP
01C0
0300
0600
0000
1EC0
3780
0000
1F80
30C0
6060
6060
C030
C030
C030
C030
C030
6060
6060
30C0
1F80
ENDCHAR
STARTCHAR uni1E4E
ENCODING 7758
SWIDTH 602 0
DWIDTH 14 0
BBX 13 22 1 0
BITMAP
18C0
0000
0F60
1BC0
0000
0F80
38E0
3060
6030
6030
C018
C018
C018
C018
C018
C018
C018
6030
6030
3060
38E0
0F80
ENDCHAR
STARTCHAR uni1E4F
ENCODING 7759
SWIDTH 602 0
DWIDTH 14 0
BBX 12 18 1 0
BITMAP
18C0
0000
1EC0
3780
0000
1F80
30C0
6060
6060
C030
C030
C030
C030
C030
6060
6060
30C0
1F80
ENDCHAR
STARTCHAR uni1E50
ENCODING 7760
SWIDTH 602 0
DWIDTH 14 0
BBX 13 23 1 0
BITMAP
1C00
0600
0300
0000
1FC0
0000
0F80
38E0
3060
6030
6030
C018
C018
C018
C018
C018
C018
C018
6030
6030
3060
38E0
0F80
ENDCHAR
STARTCHAR uni1E51
ENCODING 7761
SWIDTH 602 0
DWIDTH 14 0
BBX 12 19 1 0
BITMAP
1C00
0600
0300
0000
1FC0
0000
1F80
30C0
6060
6060
C030
C030
C030
C030
C030
6060
6060
30C0
1F80
ENDCHAR
STARTCHAR uni1E52
ENCODING 7762
SWIDTH 602 0
DWIDTH 14 0
BBX 13 23 1 0
BITMAP
01C0
0300
0600
0000
1FC0
0000
0F80
38E0
3060
6030
6030
C018
C018
C018
C018
C018
C018
C018
6030
6030
3060
38E0
0F80
ENDCHAR
STARTCHAR uni1E53
ENCODING 7763
SWIDTH 602 0
DWIDTH 14 0
BBX 12 19 1 0
BITMAP
01C0
0300
0600
0000
1FC0
0000
1F80
30C0
6060
6060
C030
C030
C030
C030
C030
6060
6060
30C0
1F80
ENDCHAR
STARTCHAR uni1E54
ENCODING 7764
SWIDTH 602 0
DWIDTH 14 0
BBX 11 21 3 0
BITMAP
0380
0600
0C00
0000
FF80
C0C0
C060
C060
C060
C060
C060
C0C0
C180
FE00
C000
C000
C000
C000
C000
C000
C000
ENDCHAR
STARTCHAR uni1E55
ENCODING 7765
SWIDTH 602 0
DWIDTH 14 0
BBX 11 22 2 -5
BITMAP
0380
0600
0C00
0000
CF00
F1C0
E0C0
C060
C060
C060
C060
C060
C060
C0C0
C0C0
F180
DF00
C000
C000
C000
C000
C000
ENDCHAR
STARTCHAR uni1E56
ENCODING 7766
SWIDTH 602 0
DWIDTH 14 0
BBX 11 20 3 0
BITMAP
0C00
0C00
0000
FF80
C0C0
C060
C060
C060
C060
C060
C0C0
C180
FE00
C000
C000
C000
C000
C000
C000
C000
ENDCHAR
STARTCHAR uni1E57
ENCODING 7767
SWIDTH 602 0
DWIDTH 14 0
BBX 11 21 2 -5
BITMAP
0C00
0C00
0000
CF00
F1C0
E0C0
C060
C060
C060
C060
C060
C060
C0C0
C0C0
F180
DF00
C000
C000
C000
C000
C000
ENDCHAR
STARTCHAR uni1E58
ENCODING 7768
SWIDTH 602 0
DWIDTH 14 0
BBX 12 20 2 0
BITMAP
0C00
0C00
0000
FF00
C180
C0C0
C0C0
C0C0
C0C0
C1C0
C380
FF00
C600
C700
C300
C180
C1C0
C0C0
C0E0
C070
ENDCHAR
STARTCHAR uni1E59
ENCODING 7769
SWIDTH 602 0
DWIDTH 14 0
BBX 9 16 4 0
BITMAP
1800
1800
0000
CF80
F880
E080
C000
C000
C000
C000
C000
C000
C000
C000
C000
C000
ENDCHAR
STARTCHAR uni1E5A
ENCODING 7770
SWIDTH 602 0
DWIDTH 14 0
BBX 12 20 2 -3
BITMAP
FF00
C180
C0C0
C0C0
C0C0
C0C0
C1C0
C380
FF00
C600
C700
C300
C180
C1C0
C0C0
C0E0
C070
0000
0600
0600
ENDCHAR
STARTCHAR uni1E5B
ENCODING 7771
SWIDTH 602 0
DWIDTH 14 0
BBX 9 16 4 -3
BITMAP
CF80
F880
E080
C000
C000
C000
C000
C000
C000
C000
C000
C000
C000
0000
6000
6000
ENDCHAR
STARTCHAR uni1E5C
ENCODING 7772
SWIDTH 602 0
DWIDTH 14 0
BBX 12 22 2 -3
BITMAP
3F80
0000
FF00
C180
C0C0
C0C0
C0C0
C0C0
C1C0
C380
FF00
C600
C700
C300
C180
C1C0
C0C0
C0E0
C070
0000
0600
0600
ENDCHAR
STARTCHAR uni1E5D
ENCODING 7773
SWIDTH 602 0
DWIDTH 14 0
BBX 9 18 4 -3
BITMAP
FE00
0000
CF80
F880
E080
C000
C000
C000
C000
C000
C000
C000
C000
C000
C000
0000
6000
6000
ENDCHAR
STARTCHAR uni1E5E
ENCODING 7774
SWIDTH 602 0
DWIDTH 14 0
BBX 12 19 2 -2
BITMAP
FF00
C180
C0C0
C0C0
C0C0
C0C0
C1C0
C380
FF00
C600
C700
C300
C180
C1C0
C0C0
C0E0
C070
0000
3F80
ENDCHAR
STARTCHAR uni1E5F
ENCODING 7775
SWIDTH 602 0
DWIDTH 14 0
BBX 10 15 3 -2
BITMAP
67C0
7C40
7040
6000
6000
6000
6000
6000
6000
6000
6000
6000
6000
0000
FE00
ENDCHAR
STARTCHAR uni1E60
ENCODING 7776
SWIDTH 602 0
DWIDTH 14 0
BBX 11 20 2 0
BITMAP
0C00
0C00
0000
1FC0
6040
C000
C000
C000
E000
7000
3C00
0F00
03C0
00E0
0060
0060
0060
0040
80C0
7F00
ENDCHAR
STARTCHAR uni1E61
ENCODING 7777
SWIDTH 602 0
DWIDTH 14 0
BBX 10 16 2 0
BITMAP
1800
1800
0000
3F80
6080
C000
C000
E000
7C00
3F00
07C0
00C0
00C0
00C0
C180
FE00
ENDCHAR
STARTCHAR uni1E62
ENCODING 7778
SWIDTH 602 0
DWIDTH 14 0
BBX 11 20 2 -3
BITMAP
1FC0
6040
C000
C000
C000
E000
7000
3C00
0F00
03C0
00E0
0060
0060
0060
0040
80C0
7F00
0000
0600
0600
ENDCHAR
STARTCHAR uni1E63
ENCODING 7779
SWIDTH 602 0
DWIDTH 14 0
BBX 10 16 2 -3
BITMAP
3F80
6080
C000
C000
E000
7C00
3F00
07C0
00C0
00C0
00C0
C180
FE00
0000
0C00
0C00
ENDCHAR
STARTCHAR uni1E64
ENCODING 7780
SWIDTH 602 0
DWIDTH 14 0
BBX 11 24 2 0
BITMAP
0600
0600
0000
0700
0C00
1800
0000
1FC0
6040
C000
C000
C000
E000
7000
3C00
0F00
03C0
00E0
0060
0060
0060
0040
80C0
7F00
ENDCHAR
STARTCHAR uni1E65
ENCODING 7781
SWIDTH 602 0
DWIDTH 14 0
BBX 10 20 2 0
BITMAP
0C00
0C00
0000
0700
0C00
1800
0000
3F80
6080
C000
C000
E000
7C00
3F00
07C0
00C0
00C0
00C0
C180
FE00
ENDCHAR
STARTCHAR uni1E66
ENCODING 7782
SWIDTH 602 0
DWIDTH 14 0
BBX 11 24 2 0
BITMAP
0C00
0C00
0000
7380
3F00
1E00
0000
1FC0
6040
C000
C000
C000
E000
7000
3C00
0F00
03C0
00E0
0060
0060
0060
0040
80C0
7F00
ENDCHAR
STARTCHAR uni1E67
ENCODING 7783
SWIDTH 602 0
DWIDTH 14 0
BBX 10 20 2 0
BITMAP
0C00
0C00
0000
7380
3F00
1E00
0000
3F80
6080
C000
C000
E000
7C00
3F00
07C0
00C0
00C0
00C0
C180
FE00
ENDCHAR
STARTCHAR uni1E68
ENCODING 7784
SWIDTH 602 0
DWIDTH 14 0
BBX 11 23 2 -3
BITMAP
1800
1800
0000
1FC0
6040
C000
C000
C000
E000
7000
3C00
0F00
03C0
00E0
0060
0060
0060
0040
80C0
7F00
0000
0600
0600
ENDCHAR
STARTCHAR uni1E69
ENCODING 7785
SWIDTH 602 0
DWIDTH 14 0
BBX 10 19 2 -3
BITMAP
1800
1800
0000
3F80
6080
C000
C000
E000
7C00
3F00
07C0
00C0
00C0
00C0
C180
FE00
0000
0C00
0C00
ENDCHAR
STARTCHAR uni1E6A
ENCODING 7786
SWIDTH 602 0
DWIDTH 14 0
BBX 14 20 0 0
BITMAP
0300
0300
0000
FFFC
0300
0300
0300
0300
0300
0300
0300
0300
0300
0300
0300
0300
0300
0300
0300
0300
ENDCHAR
STARTCHAR uni1E6B
ENCODING 7787
SWIDTH 602 0
DWIDTH 14 0
BBX 11 18 2 0
BITMAP
0C00
0C00
0000
1800
1800
FFE0
1800
1800
1800
1800
1800
1800
1800
1800
1800
1800
0C00
07E0
ENDCHAR
STARTCHAR uni1E6C
ENCODING 7788
SWIDTH 602 0
DWIDTH 14 0
BBX 14 20 0 -3
BITMAP
FFFC
0300
0300
0300
0300
0300
0300
0300
0300
0300
0300
0300
0300
0300
0300
0300
0300
0000
0300
0300
ENDCHAR
STARTCHAR uni1E6D
ENCODING 7789
SWIDTH 602 0
DWIDTH 14 0
BBX 11 18 2 -3
BITMAP
1800
1800
FFE0
1800
1800
1800
1800
1800
1800
1800
1800
1800
1800
0C00
07E0
0000
0600
0600
ENDCHAR
STARTCHAR uni1E6E
ENCODING 7790
SWIDTH 602 0
DWIDTH 14 0
BBX 14 19 0 -2
BITMAP
FFFC
0300
0300
0300
0300
0300
0300
0300
0300
0300
0300
0300
0300
0300
0300
0300
0300
0000
0FE0
ENDCHAR
STARTCHAR uni1E6F
ENCODING 7791
SWIDTH 602 0
DWIDTH 14 0
BBX 11 17 2 -2
BITMAP
1800
1800
FFE0
1800
1800
1800
1800
1800
1800
1800
1800
1800
1800
0C00
07E0
0000
3F80
ENDCHAR
STARTCHAR uni1E70
ENCODING 7792
SWIDTH 602 0
DWIDTH 14 0
BBX 14 21 0 -4
BITMAP
FFFC
0300
0300
0300
0300
0300
0300
0300
0300
0300
0300
0300
0300
0300
0300
0300
0300
0000
0780
0FC0
1CE0
ENDCHAR
STARTCHAR uni1E71
ENCODING 7793
SWIDTH 602 0
DWIDTH 14 0
BBX 11 19 2 -4
BITMAP
1800
1800
FFE0
1800
1800
1800
1800
1800
1800
1800
1800
1800
1800
0C00
07E0
0000
0F00
1F80
39C0
ENDCHAR
STARTCHAR uni1E72
ENCODING 7794
SWIDTH 602 0
DWIDTH 14 0
BBX 11 19 2 -2
BITMAP
C020
C020
C020
C020
C020
C020
C020
C020
C020
C020
C020
C020
C020
C020
4040
60C0
3F80
0000
3180
ENDCHAR
STARTCHAR uni1E73
ENCODING 7795
SWIDTH 602 0
DWIDTH 14 0
BBX 10 15 2 -2
BITMAP
C0C0
C0C0
C0C0
C0C0
C0C0
C0C0
C0C0
C0C0
C0C0
C1C0
C3C0
7EC0
3CC0
0000
3180
ENDCHAR
STARTCHAR uni1E74
ENCODING 7796
SWIDTH 602 0
DWIDTH 14 0
BBX 11 20 2 -3
BITMAP
C020
C020
C020
C020
C020
C020
C020
C020
C020
C020
C020
C020
C020
C020
4040
60C0
3F80
0000
3D80
6F00
ENDCHAR
STARTCHAR uni1E75
ENCODING 7797
SWIDTH 602 0
DWIDTH 14 0
BBX 10 16 2 -3
BITMAP
C0C0
C0C0
C0C0
C0C0
C0C0
C0C0
C0C0
C0C0
C0C0
C1C0
C3C0
7EC0
3CC0
0000
3D80
6F00
ENDCHAR
STARTCHAR uni1E76
ENCODING 7798
SWIDTH 602 0
DWIDTH 14 0
BBX 11 21 2 -4
BITMAP
C020
C020
C020
C020
C020
C020
C020
C020
C020
C020
C020
C020
C020
C020
4040
60C0
3F80
0000
1E00
3F00
7380
ENDCHAR
STARTCHAR uni1E77
ENCODING 7799
SWIDTH 602 0
DWIDTH 14 0
BBX 10 17 2 -4
BITMAP
C0C0
C0C0
C0C0
C0C0
C0C0
C0C0
C0C0
C0C0
C0C0
C1C0
C3C0
7EC0
3CC0
0000
1E00
3F00
7380
ENDCHAR
STARTCHAR uni1E78
ENCODING 7800
SWIDTH 602 0
DWIDTH 14 0
BBX 11 24 2 0
BITMAP
0700
0C00
1800
0000
3D80
6F00
0000
C020
C020
C020
C020
C020
C020
C020
C020
C020
C020
C020
C020
C020
C020
4040
60C0
3F80
ENDCHAR
STARTCHAR uni1E79
ENCODING 7801
SWIDTH 602 0
DWIDTH 14 0
BBX 10 20 2 0
BITMAP
0380
0600
0C00
0000
3D80
6F00
0000
C0C0
C0C0
C0C0
C0C0
C0C0
C0C0
C0C0
C0C0
C0C0
C1C0
C3C0
7EC0
3CC0
ENDCHAR
STARTCHAR uni1E7A
ENCODING 7802
SWIDTH 602 0
DWIDTH 14 0
BBX 11 21 2 0
BITMAP
6300
0000
7F00
0000
C020
C020
C020
C020
C020
C020
C020
C020
C020
C020
C020
C020
C020
C020
4040
60C0
3F80
ENDCHAR
STARTCHAR uni1E7B
ENCODING 7803
SWIDTH 602 0
DWIDTH 14 0
BBX 10 17 2 0
BITMAP
3180
0000
3F80
0000
C0C0
C0C0
C0C0
C0C0
C0C0
C0C0
C0C0
C0C0
C0C0
C1C0
C3C0
7EC0
3CC0
ENDCHAR
STARTCHAR uni1E7C
ENCODING 7804
SWIDTH 602 0
DWIDTH 14 0
BBX 14 20 0 0
BITMAP
1EC0
3780
0000
C00C
6008
6008
6010
3010
3010
3020
1820
1820
1840
0C40
0CC0
0E80
0680
0700
0700
0300
ENDCHAR
STARTCHAR uni1E7D
ENCODING 7805
SWIDTH 602 0
DWIDTH 14 0
BBX 13 16 1 0
BITMAP
1EC0
3780
0000
C018
6010
6020
3020
3020
3840
1840
1880
0C80
0D80
0F00
0700
0600
ENDCHAR
STARTCHAR uni1E7E
ENCODING 7806
SWIDTH 602 0
DWIDTH 14 0
BBX 14 20 0 -3
BITMAP
C00C
6008
6008
6010
3010
3010
3020
1820
1820
1840
0C40
0CC0
0E80
0680
0700
0700
0300
0000
0300
0300
ENDCHAR
STARTCHAR uni1E7F
ENCODING 7807
SWIDTH 602 0
DWIDTH 14 0
BBX 13 16 1 -3
BITMAP
C018
6010
6020
3020
3020
3840
1840
1880
0C80
0D80
0F00
0700
0600
0000
0600
0600
ENDCHAR
STARTCHAR Wgrave
ENCODING 7808
SWIDTH 602 0
DWIDTH 14 0
BBX 14 21 0 0
BITMAP
1C00
0600
0300
0000
8004
8604
860C
8708
CF08
CF08
CD08
C918
C998
5990
5890
5090
70F0
70F0
70E0
6060
6060
ENDCHAR
STARTCHAR wgrave
ENCODING 7809
SWIDTH 602 0
DWIDTH 14 0
BBX 14 17 0 0
BITMAP
1C00
0600
0300
0000
C004
C304
C308
6308
6488
6488
6498
6490
6890
3850
3870
3870
3060
ENDCHAR
STARTCHAR Wacute
ENCODING 7810
SWIDTH 602 0
DWIDTH 14 0
BBX 14 21 0 0
BITMAP
01C0
0300
0600
0000
8004
8604
860C
8708
CF08
CF08
CD08
C918
C998
5990
5890
5090
70F0
70F0
70E0
6060
6060
ENDCHAR
STARTCHAR wacute
ENCODING 7811
SWIDTH 602 0
DWIDTH 14 0
BBX 14 17 0 0
BITMAP
01C0
0300
0600
0000
C004
C304
C308
6308
6488
6488
6498
6490
6890
3850
3870
3870
3060
ENDCHAR
STARTCHAR Wdieresis
ENCODING 7812
SWIDTH 602 0
DWIDTH 14 0
BBX 14 19 0 0
BITMAP
18C0
0000
8004
8604
860C
8708
CF08
CF08
CD08
C918
C998
5990
5890
5090
70F0
70F0
70E0
6060
6060
ENDCHAR
STARTCHAR wdieresis
ENCODING 7813
SWIDTH 602 0
DWIDTH 14 0
BBX 14 15 0 0
BITMAP
18C0
0000
C004
C304
C308
6308
6488
6488
6498
6490
6890
3850
3870
3870
3060
ENDCHAR
STARTCHAR uni1E86
ENCODING 7814
SWIDTH 602 0
DWIDTH 14 0
BBX 14 20 0 0
BITMAP
0300
0300
0000
8004
8604
860C
8708
CF08
CF08
CD08
C918
C998
5990
5890
5090
70F0
70F0
70E0
6060
6060
ENDCHAR
STARTCHAR uni1E87
ENCODING 7815
SWIDTH 602 0
DWIDTH 14 0
BBX 14 16 0 0
BITMAP
0600
0600
0000
C004
C304
C308
6308
6488
6488
6498
6490
6890
3850
3870
3870
3060
ENDCHAR
STARTCHAR uni1E88
ENCODING 7816
SWIDTH 602 0
DWIDTH 14 0
BBX 14 20 0 -3
BITMAP
8004
8604
860C
8708
CF08
CF08
CD08
C918
C998
5990
5890
5090
70F0
70F0
70E0
6060
6060
0000
0300
0300
ENDCHAR
STARTCHAR uni1E89
ENCODING 7817
SWIDTH 602 0
DWIDTH 14 0
BBX 14 16 0 -3
BITMAP
C004
C304
C308
6308
6488
6488
6498
6490
6890
3850
3870
3870
3060
0000
0300
0300
ENDCHAR
STARTCHAR uni1E8A
ENCODING 7818
SWIDTH 602 0
DWIDTH 14 0
BBX 13 20 -1 0
BITMAP
0600
0600
0000
C010
6020
7060
3040
3880
1D80
0D00
0E00
0600
0700
0B80
1180
10C0
20E0
4060
4030
8038
ENDCHAR
STARTCHAR uni1E8B
ENCODING 7819
SWIDTH 602 0
DWIDTH 14 0
BBX 12 16 1 0
BITMAP
0C00
0C00
0000
E060
7040
3080
1880
1D00
0E00
0600
0F00
0B80
1180
30C0
20E0
4070
ENDCHAR
STARTCHAR uni1E8C
ENCODING 7820
SWIDTH 602 0
DWIDTH 14 0
BBX 13 19 -1 0
BITMAP
3180
0000
C010
6020
7060
3040
3880
1D80
0D00
0E00
0600
0700
0B80
1180
10C0
20E0
4060
4030
8038
ENDCHAR
STARTCHAR uni1E8D
ENCODING 7821
SWIDTH 602 0
DWIDTH 14 0
BBX 12 15 1 0
BITMAP
3180
0000
E060
7040
3080
1880
1D00
0E00
0600
0F00
0B80
1180
30C0
20E0
4070
ENDCHAR
STARTCHAR uni1E8E
ENCODING 7822
SWIDTH 602 0
DWIDTH 14 0
BBX 13 20 0 0
BITMAP
0600
0600
0000
E008
6018
3010
3820
1820
1C40
0CC0
0680
0700
0300
0300
0300
0300
0300
0300
0300
0300
ENDCHAR
STARTCHAR uni1E8F
ENCODING 7823
SWIDTH 602 0
DWIDTH 14 0
BBX 13 21 1 -5
BITMAP
0600
0600
0000
E018
6010
6030
3020
3020
3840
1840
1880
0C80
0D80
0F00
0700
0600
0200
0400
0400
0800
7000
ENDCHAR
STARTCHAR uni1E90
ENCODING 7824
SWIDTH 602 0
DWIDTH 14 0
BBX 12 21 1 0
BITMAP
0780
0FC0
1CE0
0000
7FF0
0070
0060
00C0
01C0
0180
0300
0700
0600
0E00
1C00
1800
3800
7000
6000
E000
FFF0
ENDCHAR
STARTCHAR uni1E91
ENCODING 7825
SWIDTH 602 0
DWIDTH 14 0
BBX 11 17 2 0
BITMAP
0F00
1F80
39C0
0000
FFE0
0040
0080
0100
0300
0200
0400
0800
1000
3000
6000
4000
FFE0
ENDCHAR
STARTCHAR uni1E92
ENCODING 7826
SWIDTH 602 0
DWIDTH 14 0
BBX 12 20 1 -3
BITMAP
7FF0
0070
0060
00C0
01C0
0180
0300
0700
0600
0E00
1C00
1800
3800
7000
6000
E000
FFF0
0000
0C00
0C00
ENDCHAR
STARTCHAR uni1E93
ENCODING 7827
SWIDTH 602 0
DWIDTH 14 0
BBX 11 16 2 -3
BITMAP
FFE0
0040
0080
0100
0300
0200
0400
0800
1000
3000
6000
4000
FFE0
0000
0C00
0C00
ENDCHAR
STARTCHAR uni1E94
ENCODING 7828
SWIDTH 602 0
DWIDTH 14 0
BBX 12 19 1 -2
BITMAP
7FF0
0070
0060
00C0
01C0
0180
0300
0700
0600
0E00
1C00
1800
3800
7000
6000
E000
FFF0
0000
7F00
ENDCHAR
STARTCHAR uni1E95
ENCODING 7829
SWIDTH 602 0
DWIDTH 14 0
BBX 11 15 2 -2
BITMAP
FFE0
0040
0080
0100
0300
0200
0400
0800
1000
3000
6000
4000
FFE0
0000
7F00
ENDCHAR
STARTCHAR uni1E96
ENCODING 7830
SWIDTH 602 0
DWIDTH 14 0
BBX 10 19 2 -2
BITMAP
C000
C000
C000
C000
CF00
DF80
F1C0
E0C0
C0C0
C0C0
C0C0
C0C0
C0C0
C0C0
C0C0
C0C0
C0C0
0000
3F80
ENDCHAR
STARTCHAR uni1E97
ENCODING 7831
SWIDTH 602 0
DWIDTH 14 0
BBX 11 17 2 0
BITMAP
3180
0000
1800
1800
FFE0
1800
1800
1800
1800
1800
1800
1800
1800
1800
1800
0C00
07E0
ENDCHAR
STARTCHAR uni1E98
ENCODING 7832
SWIDTH 602 0
DWIDTH 14 0
BBX 14 18 0 0
BITMAP
0600
0900
0900
0600
0000
C004
C304
C308
6308
6488
6488
6498
6490
6890
3850
3870
3870
3060
ENDCHAR
STARTCHAR uni1E99
ENCODING 7833
SWIDTH 602 0
DWIDTH 14 0
BBX 13 23 1 -5
BITMAP
0600
0900
0900
0600
0000
E018
6010
6030
3020
3020
3840
1840
1880
0C80
0D80
0F00
0700
0600
0200
0400
0400
0800
7000
ENDCHAR
STARTCHAR uni1EA0
ENCODING 7840
SWIDTH 602 0
DWIDTH 14 0
BBX 13 20 -1 -3
BITMAP
0600
0700
0B00
0B00
0980
1180
1180
10C0
30C0
20C0
20E0
7FE0
4060
4030
8030
8030
8018
0000
0300
0300
ENDCHAR
STARTCHAR uni1EA1
ENCODING 7841
SWIDTH 602 0
DWIDTH 14 0
BBX 12 16 2 -3
BITMAP
3F80
41C0
00C0
00C0
00C0
1FC0
70C0
60C0
C0C0
C0C0
C0C0
63C0
3EF0
0000
0600
0600
ENDCHAR
STARTCHAR uni1EA4
ENCODING 7844
SWIDTH 602 0
DWIDTH 14 0
BBX 13 25 -1 0
BITMAP
01C0
0300
0600
0000
0F00
1F80
39C0
0000
0600
0700
0B00
0B00
0980
1180
1180
10C0
30C0
20C0
20E0
7FE0
4060
4030
8030
8030
8018
ENDCHAR
STARTCHAR uni1EA5
ENCODING 7845
SWIDTH 602 0
DWIDTH 14 0
BBX 12 21 2 0
BITMAP
0380
0600
0C00
0000
0F00
1F80
39C0
0000
3F80
41C0
00C0
00C0
00C0
1FC0
70C0
60C0
C0C0
C0C0
C0C0
63C0
3EF0
ENDCHAR
STARTCHAR uni1EA6
ENCODING 7846
SWIDTH 602 0
DWIDTH 14 0
BBX 13 25 -1 0
BITMAP
1C00
0600
0300
0000
0F00
1F80
39C0
0000
0600
0700
0B00
0B00
0980
1180
1180
10C0
30C0
20C0
20E0
7FE0
4060
4030
8030
8030
8018
ENDCHAR
STARTCHAR uni1EA7
ENCODING 7847
SWIDTH 602 0
DWIDTH 14 0
BBX 12 21 2 0
BITMAP
3800
0C00
0600
0000
0F00
1F80
39C0
0000
3F80
41C0
00C0
00C0
00C0
1FC0
70C0
60C0
C0C0
C0C0
C0C0
63C0
3EF0
ENDCHAR
STARTCHAR uni1EAA
ENCODING 7850
SWIDTH 602 0
DWIDTH 14 0
BBX 13 24 -1 0
BITMAP
1EC0
3780
0000
0F00
1F80
39C0
0000
0600
0700
0B00
0B00
0980
1180
1180
10C0
30C0
20C0
20E0
7FE0
4060
4030
8030
8030
8018
ENDCHAR
STARTCHAR uni1EAB
ENCODING 7851
SWIDTH 602 0
DWIDTH 14 0
BBX 12 20 2 0
BITMAP
1EC0
3780
0000
0F00
1F80
39C0
0000
3F80
41C0
00C0
00C0
00C0
1FC0
70C0
60C0
C0C0
C0C0
C0C0
63C0
3EF0
ENDCHAR
STARTCHAR uni1EAC
ENCODING 7852
SWIDTH 602 0
DWIDTH 14 0
BBX 13 24 -1 -3
BITMAP
0F00
1F80
39C0
0000
0600
0700
0B00
0B00
0980
1180
1180
10C0
30C0
20C0
20E0
7FE0
4060
4030
8030
8030
8018
0000
0300
0300
ENDCHAR
STARTCHAR uni1EAD
ENCODING 7853
SWIDTH 602 0
DWIDTH 14 0
BBX 12 20 2 -3
BITMAP
0780
0FC0
1CE0
0000
3F80
41C0
00C0
00C0
00C0
1FC0
70C0
60C0
C0C0
C0C0
C0C0
63C0
3EF0
0000
0600
0600
ENDCHAR
STARTCHAR uni1EAE
ENCODING 7854
SWIDTH 602 0
DWIDTH 14 0
BBX 13 25 -1 0
BITMAP
01C0
0300
0600
0000
30C0
1980
0F00
0000
0600
0700
0B00
0B00
0980
1180
1180
10C0
30C0
20C0
20E0
7FE0
4060
4030
8030
8030
8018
ENDCHAR
STARTCHAR uni1EAF
ENCODING 7855
SWIDTH 602 0
DWIDTH 14 0
BBX 12 21 2 0
BITMAP
01C0
0300
0600
0000
1860
0CC0
0780
0000
3F80
41C0
00C0
00C0
00C0
1FC0
70C0
60C0
C0C0
C0C0
C0C0
63C0
3EF0
ENDCHAR
STARTCHAR uni1EB0
ENCODING 7856
SWIDTH 602 0
DWIDTH 14 0
BBX 13 25 -1 0
BITMAP
1C00
0600
0300
0000
30C0
1980
0F00
0000
0600
0700
0B00
0B00
0980
1180
1180
10C0
30C0
20C0
20E0
7FE0
4060
4030
8030
8030
8018
ENDCHAR
STARTCHAR uni1EB1
ENCODING 7857
SWIDTH 602 0
DWIDTH 14 0
BBX 12 21 2 0
BITMAP
1C00
0600
0300
0000
1860
0CC0
0780
0000
3F80
41C0
00C0
00C0
00C0
1FC0
70C0
60C0
C0C0
C0C0
C0C0
63C0
3EF0
ENDCHAR
STARTCHAR uni1EB4
ENCODING 7860
SWIDTH 602 0
DWIDTH 14 0
BBX 13 24 -1 0
BITMAP
1EC0
3780
0000
30C0
1980
0F00
0000
0600
0700
0B00
0B00
0980
1180
1180
10C0
30C0
20C0
20E0
7FE0
4060
4030
8030
8030
8018
ENDCHAR
STARTCHAR uni1EB5
ENCODING 7861
SWIDTH 602 0
DWIDTH 14 0
BBX 12 20 2 0
BITMAP
0F60
1BC0
0000
1860
0CC0
0780
0000
3F80
41C0
00C0
00C0
00C0
1FC0
70C0
60C0
C0C0
C0C0
C0C0
63C0
3EF0
ENDCHAR
STARTCHAR uni1EB6
ENCODING 7862
SWIDTH 602 0
DWIDTH 14 0
BBX 13 24 -1 -3
BITMAP
30C0
1980
0F00
0000
0600
0700
0B00
0B00
0980
1180
1180
10C0
30C0
20C0
20E0
7FE0
4060
4030
8030
8030
8018
0000
0300
0300
ENDCHAR
STARTCHAR uni1EB7
ENCODING 7863
SWIDTH 602 0
DWIDTH 14 0
BBX 12 20 2 -3
BITMAP
1860
0CC0
0780
0000
3F80
41C0
00C0
00C0
00C0
1FC0
70C0
60C0
C0C0
C0C0
C0C0
63C0
3EF0
0000
0600
0600
ENDCHAR
STARTCHAR uni1EB8
ENCODING 7864
SWIDTH 602 0
DWIDTH 14 0
BBX 10 20 3 -3
BITMAP
FF80
C000
C000
C000
C000
C000
C000
FF00
C000
C000
C000
C000
C000
C000
C000
C000
FFC0
0000
1800
1800
ENDCHAR
STARTCHAR uni1EB9
ENCODING 7865
SWIDTH 602 0
DWIDTH 14 0
BBX 11 16 2 -3
BITMAP
1F80
31C0
60C0
6060
C060
C060
FFE0
C000
C000
4000
6000
3020
0FE0
0000
0600
0600
ENDCHAR
STARTCHAR uni1EBC
ENCODING 7868
SWIDTH 602 0
DWIDTH 14 0
BBX 10 20 3 0
BITMAP
7B00
DE00
0000
FF80
C000
C000
C000
C000
C000
C000
FF00
C000
C000
C000
C000
C000
C000
C000
C000
FFC0
ENDCHAR
STARTCHAR uni1EBD
ENCODING 7869
SWIDTH 602 0
DWIDTH 14 0
BBX 11 16 2 0
BITMAP
1EC0
3780
0000
1F80
31C0
60C0
6060
C060
C060
FFE0
C000
C000
4000
6000
3020
0FE0
ENDCHAR
STARTCHAR uni1EBE
ENCODING 7870
SWIDTH 602 0
DWIDTH 14 0
BBX 10 25 3 0
BITMAP
0700
0C00
1800
0000
1E00
3F00
7380
0000
FF80
C000
C000
C000
C000
C000
C000
FF00
C000
C000
C000
C000
C000
C000
C000
C000
FFC0
ENDCHAR
STARTCHAR uni1EBF
ENCODING 7871
SWIDTH 602 0
DWIDTH 14 0
BBX 11 21 2 0
BITMAP
0380
0600
0C00
0000
1E00
3F00
7380
0000
1F80
31C0
60C0
6060
C060
C060
FFE0
C000
C000
4000
6000
3020
0FE0
ENDCHAR
STARTCHAR uni1EC0
ENCODING 7872
SWIDTH 602 0
DWIDTH 14 0
BBX 10 25 3 0
BITMAP
7000
1800
0C00
0000
1E00
3F00
7380
0000
FF80
C000
C000
C000
C000
C000
C000
FF00
C000
C000
C000
C000
C000
C000
C000
C000
FFC0
ENDCHAR
STARTCHAR uni1EC1
ENCODING 7873
SWIDTH 602 0
DWIDTH 14 0
BBX 11 21 2 0
BITMAP
3800
0C00
0600
0000
1E00
3F00
7380
0000
1F80
31C0
60C0
6060
C060
C060
FFE0
C000
C000
4000
6000
3020
0FE0
ENDCHAR
STARTCHAR uni1EC4
ENCODING 7876
SWIDTH 602 0
DWIDTH 14 0
BBX 10 24 3 0
BITMAP
3D80
6F00
0000
1E00
3F00
7380
0000
FF80
C000
C000
C000
C000
C000
C000
FF00
C000
C000
C000
C000
C000
C000
C000
C000
FFC0
ENDCHAR
STARTCHAR uni1EC5
ENCODING 7877
SWIDTH 602 0
DWIDTH 14 0
BBX 11 20 2 0
BITMAP
1EC0
3780
0000
1E00
3F00
7380
0000
1F80
31C0
60C0
6060
C060
C060
FFE0
C000
C000
4000
6000
3020
0FE0
ENDCHAR
STARTCHAR uni1EC6
ENCODING 7878
SWIDTH 602 0
DWIDTH 14 0
BBX 11 24 2 -3
BITMAP
3C00
7E00
E700
0000
7FC0
6000
6000
6000
6000
6000
6000
7F80
6000
6000
6000
6000
6000
6000
6000
6000
7FE0
0000
0C00
0C00
ENDCHAR
STARTCHAR uni1EC7
ENCODING 7879
SWIDTH 602 0
DWIDTH 14 0
BBX 11 20 2 -3
BITMAP
0F00
1F80
39C0
0000
1F80
31C0
60C0
6060
C060
C060
FFE0
C000
C000
4000
6000
3020
0FE0
0000
0600
0600
ENDCHAR
STARTCHAR uni1ECA
ENCODING 7882
SWIDTH 602 0
DWIDTH 14 0
BBX 10 20 2 -3
BITMAP
FFC0
0C00
0C00
0C00
0C00
0C00
0C00
0C00
0C00
0C00
0C00
0C00
0C00
0C00
0C00
0C00
FFC0
0000
0C00
0C00
ENDCHAR
STARTCHAR uni1ECB
ENCODING 7883
SWIDTH 602 0
DWIDTH 14 0
BBX 7 20 2 -3
BITMAP
06
06
00
00
FE
06
06
06
06
06
06
06
06
06
06
06
06
00
0C
0C
ENDCHAR
STARTCHAR uni1ECC
ENCODING 7884
SWIDTH 602 0
DWIDTH 14 0
BBX 13 20 1 -3
BITMAP
0F80
38E0
3060
6030
6030
C018
C018
C018
C018
C018
C018
C018
6030
6030
3060
38E0
0F80
0000
0300
0300
ENDCHAR
STARTCHAR uni1ECD
ENCODING 7885
SWIDTH 602 0
DWIDTH 14 0
BBX 12 16 1 -3
BITMAP
1F80
30C0
6060
6060
C030
C030
C030
C030
C030
6060
6060
30C0
1F80
0000
0600
0600
ENDCHAR
STARTCHAR uni1ED0
ENCODING 7888
SWIDTH 602 0
DWIDTH 14 0
BBX 13 25 1 0
BITMAP
01C0
0300
0600
0000
0780
0FC0
1CE0
0000
0F80
38E0
3060
6030
6030
C018
C018
C018
C018
C018
C018
C018
6030
6030
3060
38E0
0F80
ENDCHAR
STARTCHAR uni1ED1
ENCODING 7889
SWIDTH 602 0
DWIDTH 14 0
BBX 12 21 1 0
BITMAP
01C0
0300
0600
0000
0F00
1F80
39C0
0000
1F80
30C0
6060
6060
C030
C030
C030
C030
C030
6060
6060
30C0
1F80
ENDCHAR
STARTCHAR uni1ED2
ENCODING 7890
SWIDTH 602 0
DWIDTH 14 0
BBX 13 25 1 0
BITMAP
1C00
0600
0300
0000
0780
0FC0
1CE0
0000
0F80
38E0
3060
6030
6030
C018
C018
C018
C018
C018
C018
C018
6030
6030
3060
38E0
0F80
ENDCHAR
STARTCHAR uni1ED3
ENCODING 7891
SWIDTH 602 0
DWIDTH 14 0
BBX 12 21 1 0
BITMAP
1C00
0600
0300
0000
0F00
1F80
39C0
0000
1F80
30C0
6060
6060
C030
C030
C030
C030
C030
6060
6060
30C0
1F80
ENDCHAR
STARTCHAR uni1ED6
ENCODING 7894
SWIDTH 602 0
DWIDTH 14 0
BBX 13 24 1 0
BITMAP
0F60
1BC0
0000
0780
0FC0
1CE0
0000
0F80
38E0
3060
6030
6030
C018
C018
C018
C018
C018
C018
C018
6030
6030
3060
38E0
0F80
ENDCHAR
STARTCHAR uni1ED7
ENCODING 7895
SWIDTH 602 0
DWIDTH 14 0
BBX 12 20 1 0
BITMAP
1EC0
3780
0000
0F00
1F80
39C0
0000
1F80
30C0
6060
6060
C030
C030
C030
C030
C030
6060
6060
30C0
1F80
ENDCHAR
STARTCHAR uni1ED8
ENCODING 7896
SWIDTH 602 0
DWIDTH 14 0
BBX 13 24 1 -3
BITMAP
0780
0FC0
1CE0
0000
0F80
38E0
3060
6030
6030
C018
C018
C018
C018
C018
C018
C018
6030
6030
3060
38E0
0F80
0000
0300
0300
ENDCHAR
STARTCHAR uni1ED9
ENCODING 7897
SWIDTH 602 0
DWIDTH 14 0
BBX 12 20 1 -3
BITMAP
0F00
1F80
39C0
0000
1F80
30C0
6060
6060
C030
C030
C030
C030
C030
6060
6060
30C0
1F80
0000
0600
0600
ENDCHAR
STARTCHAR uni1EDA
ENCODING 7898
SWIDTH 602 0
DWIDTH 14 0
BBX 15 21 1 0
BITMAP
0070
00C0
0180
0000
0F8E
38EE
3062
6036
603C
C018
C018
C018
C018
C018
C018
C018
6030
6030
3060
38E0
0F80
ENDCHAR
STARTCHAR uni1EDB
ENCODING 7899
SWIDTH 602 0
DWIDTH 14 0
BBX 14 17 1 0
BITMAP
00E0
0180
0300
0000
1F9C
30DC
6064
606C
C038
C030
C030
C030
C030
6060
6060
30C0
1F80
ENDCHAR
STARTCHAR uni1EDC
ENCODING 7900
SWIDTH 602 0
DWIDTH 14 0
BBX 15 21 1 0
BITMAP
0700
0180
00C0
0000
0F8E
38EE
3062
6036
603C
C018
C018
C018
C018
C018
C018
C018
6030
6030
3060
38E0
0F80
ENDCHAR
STARTCHAR uni1EDD
ENCODING 7901
SWIDTH 602 0
DWIDTH 14 0
BBX 14 17 1 0
BITMAP
0E00
0300
0180
0000
1F9C
30DC
6064
606C
C038
C030
C030
C030
C030
6060
6060
30C0
1F80
ENDCHAR
STARTCHAR uni1EE0
ENCODING 7904
SWIDTH 602 0
DWIDTH 14 0
BBX 15 20 1 0
BITMAP
03D8
06F0
0000
0F8E
38EE
3062
6036
603C
C018
C018
C018
C018
C018
C018
C018
6030
6030
3060
38E0
0F80
ENDCHAR
STARTCHAR uni1EE1
ENCODING 7905
SWIDTH 602 0
DWIDTH 14 0
BBX 14 16 1 0
BITMAP
07B0
0DE0
0000
1F9C
30DC
6064
606C
C038
C030
C030
C030
C030
6060
6060
30C0
1F80
ENDCHAR
STARTCHAR uni1EE2
ENCODING 7906
SWIDTH 602 0
DWIDTH 14 0
BBX 15 20 1 -3
BITMAP
0F8E
38EE
3062
6036
603C
C018
C018
C018
C018
C018
C018
C018
6030
6030
3060
38E0
0F80
0000
0300
0300
ENDCHAR
STARTCHAR uni1EE3
ENCODING 7907
SWIDTH 602 0
DWIDTH 14 0
BBX 14 16 1 -3
BITMAP
1F9C
30DC
6064
606C
C038
C030
C030
C030
C030
6060
6060
30C0
1F80
0000
0600
0600
ENDCHAR
STARTCHAR uni1EE4
ENCODING 7908
SWIDTH 602 0
DWIDTH 14 0
BBX 11 20 2 -3
BITMAP
C020
C020
C020
C020
C020
C020
C020
C020
C020
C020
C020
C020
C020
C020
4040
60C0
3F80
0000
0C00
0C00
ENDCHAR
STARTCHAR uni1EE5
ENCODING 7909
SWIDTH 602 0
DWIDTH 14 0
BBX 10 16 2 -3
BITMAP
C0C0
C0C0
C0C0
C0C0
C0C0
C0C0
C0C0
C0C0
C0C0
C1C0
C3C0
7EC0
3CC0
0000
0C00
0C00
ENDCHAR
STARTCHAR uni1EE8
ENCODING 7912
SWIDTH 602 0
DWIDTH 14 0
BBX 13 21 2 0
BITMAP
01C0
0300
0600
0000
C038
C038
C028
C038
C030
C020
C020
C020
C020
C020
C020
C020
C020
C020
4040
60C0
3F80
ENDCHAR
STARTCHAR uni1EE9
ENCODING 7913
SWIDTH 602 0
DWIDTH 14 0
BBX 12 17 2 0
BITMAP
01C0
0300
0600
0000
C0F0
C0F0
C0D0
C0F0
C0E0
C0C0
C0C0
C0C0
C0C0
C1C0
C3C0
7EC0
3CC0
ENDCHAR
STARTCHAR uni1EEA
ENCODING 7914
SWIDTH 602 0
DWIDTH 14 0
BBX 13 21 2 0
BITMAP
1C00
0600
0300
0000
C038
C038
C028
C038
C030
C020
C020
C020
C020
C020
C020
C020
C020
C020
4040
60C0
3F80
ENDCHAR
STARTCHAR uni1EEB
ENCODING 7915
SWIDTH 602 0
DWIDTH 14 0
BBX 12 17 2 0
BITMAP
1C00
0600
0300
0000
C0F0
C0F0
C0D0
C0F0
C0E0
C0C0
C0C0
C0C0
C0C0
C1C0
C3C0
7EC0
3CC0
ENDCHAR
STARTCHAR uni1EEE
ENCODING 7918
SWIDTH 602 0
DWIDTH 14 0
BBX 13 20 2 0
BITMAP
0F60
1BC0
0000
C038
C038
C028
C038
C030
C020
C020
C020
C020
C020
C020
C020
C020
C020
4040
60C0
3F80
ENDCHAR
STARTCHAR uni1EEF
ENCODING 7919
SWIDTH 602 0
DWIDTH 14 0
BBX 12 16 2 0
BITMAP
0F60
1BC0
0000
C0F0
C0F0
C0D0
C0F0
C0E0
C0C0
C0C0
C0C0
C0C0
C1C0
C3C0
7EC0
3CC0
ENDCHAR
STARTCHAR uni1EF0
ENCODING 7920
SWIDTH 602 0
DWIDTH 14 0
BBX 13 20 2 -3
BITMAP
C038
C038
C028
C038
C030
C020
C020
C020
C020
C020
C020
C020
C020
C020
4040
60C0
3F80
0000
0600
0600
ENDCHAR
STARTCHAR uni1EF1
ENCODING 7921
SWIDTH 602 0
DWIDTH 14 0
BBX 12 16 2 -3
BITMAP
C0F0
C0F0
C0D0
C0F0
C0E0
C0C0
C0C0
C0C0
C0C0
C1C0
C3C0
7EC0
3CC0
0000
0600
0600
ENDCHAR
STARTCHAR Ygrave
ENCODING 7922
SWIDTH 602 0
DWIDTH 14 0
BBX 13 21 0 0
BITMAP
3800
0C00
0600
0000
E008
6018
3010
3820
1820
1C40
0CC0
0680
0700
0300
0300
0300
0300
0300
0300
0300
0300
ENDCHAR
STARTCHAR ygrave
ENCODING 7923
SWIDTH 602 0
DWIDTH 14 0
BBX 13 22 1 -5
BITMAP
3800
0C00
0600
0000
E018
6010
6030
3020
3020
3840
1840
1880
0C80
0D80
0F00
0700
0600
0200
0400
0400
0800
7000
ENDCHAR
STARTCHAR uni1EF4
ENCODING 7924
SWIDTH 602 0
DWIDTH 14 0
BBX 13 20 0 -3
BITMAP
E008
6018
3010
3820
1820
1C40
0CC0
0680
0700
0300
0300
0300
0300
0300
0300
0300
0300
0000
0300
0300
ENDCHAR
STARTCHAR uni1EF5
ENCODING 7925
SWIDTH 602 0
DWIDTH 14 0
BBX 13 21 1 -8
BITMAP
E018
6010
6030
3020
3020
3840
1840
1880
0C80
0D80
0F00
0700
0600
0200
0400
0400
0800
7000
0000
0C00
0C00
ENDCHAR
STARTCHAR uni1EF8
ENCODING 7928
SWIDTH 602 0
DWIDTH 14 0
BBX 13 20 0 0
BITMAP
1EC0
3780
0000
E008
6018
3010
3820
1820
1C40
0CC0
0680
0700
0300
0300
0300
0300
0300
0300
0300
0300
ENDCHAR
STARTCHAR uni1EF9
ENCODING 7929
SWIDTH 602 0
DWIDTH 14 0
BBX 13 21 1 -5
BITMAP
1EC0
3780
0000
E018
6010
6030
3020
3020
3840
1840
1880
0C80
0D80
0F00
0700
0600
0200
0400
0400
0800
7000
ENDCHAR
STARTCHAR uni2000
ENCODING 8192
SWIDTH 602 0
DWIDTH 14 0
BBX 1 1 0 0
BITMAP
00
ENDCHAR
STARTCHAR uni2001
ENCODING 8193
SWIDTH 602 0
DWIDTH 14 0
BBX 1 1 0 0
BITMAP
00
ENDCHAR
STARTCHAR uni2002
ENCODING 8194
SWIDTH 602 0
DWIDTH 14 0
BBX 1 1 0 0
BITMAP
00
ENDCHAR
STARTCHAR uni2003
ENCODING 8195
SWIDTH 602 0
DWIDTH 14 0
BBX 1 1 0 0
BITMAP
00
ENDCHAR
STARTCHAR uni2004
ENCODING 8196
SWIDTH 602 0
DWIDTH 14 0
BBX 1 1 0 0
BITMAP
00
ENDCHAR
STARTCHAR uni2005
ENCODING 8197
SWIDTH 602 0
DWIDTH 14 0
BBX 1 1 0 0
BITMAP
00
ENDCHAR
STARTCHAR uni2006
ENCODING 8198
SWIDTH 602 0
DWIDTH 14 0
BBX 1 1 0 0
BITMAP
00
ENDCHAR
STARTCHAR uni2007
ENCODING 8199
SWIDTH 602 0
DWIDTH 14 0
BBX 1 1 0 0
BITMAP
00
ENDCHAR
STARTCHAR uni2008
ENCODING 8200
SWIDTH 602 0
DWIDTH 14 0
BBX 1 1 0 0
BITMAP
00
ENDCHAR
STARTCHAR uni2009
ENCODING 8201
SWIDTH 602 0
DWIDTH 14 0
BBX 1 1 0 0
BITMAP
00
ENDCHAR
STARTCHAR uni200A
ENCODING 8202
SWIDTH 602 0
DWIDTH 14 0
BBX 1 1 0 0
BITMAP
00
ENDCHAR
STARTCHAR uni2010
ENCODING 8208
SWIDTH 602 0
DWIDTH 14 0
BBX 10 1 2 8
BITMAP
FFC0
ENDCHAR
STARTCHAR uni2011
ENCODING 8209
SWIDTH 602 0
DWIDTH 14 0
BBX 10 1 2 8
BITMAP
FFC0
ENDCHAR
STARTCHAR figuredash
ENCODING 8210
SWIDTH 602 0
DWIDTH 14 0
BBX 11 1 2 7
BITMAP
FFE0
ENDCHAR
STARTCHAR endash
ENCODING 8211
SWIDTH 602 0
DWIDTH 14 0
BBX 11 1 2 7
BITMAP
FFE0
ENDCHAR
STARTCHAR emdash
ENCODING 8212
SWIDTH 602 0
DWIDTH 14 0
BBX 13 1 1 7
BITMAP
FFF8
ENDCHAR
STARTCHAR afii00208
ENCODING 8213
SWIDTH 602 0
DWIDTH 14 0
BBX 13 1 1 7
BITMAP
FFF8
ENDCHAR
STARTCHAR quoteleft
ENCODING 8216
SWIDTH 602 0
DWIDTH 14 0
BBX 3 6 6 11
BITMAP
60
C0
80
E0
E0
E0
ENDCHAR
STARTCHAR quoteright
ENCODING 8217
SWIDTH 602 0
DWIDTH 14 0
BBX 3 6 6 11
BITMAP
E0
E0
20
60
C0
80
ENDCHAR
STARTCHAR quotesinglbase
ENCODING 8218
SWIDTH 602 0
DWIDTH 14 0
BBX 3 8 6 -4
BITMAP
E0
E0
E0
E0
20
60
40
C0
ENDCHAR
STARTCHAR quotereversed
ENCODING 8219
SWIDTH 602 0
DWIDTH 14 0
BBX 3 6 6 11
BITMAP
E0
E0
80
C0
60
20
ENDCHAR
STARTCHAR quotedblleft
ENCODING 8220
SWIDTH 602 0
DWIDTH 14 0
BBX 9 5 3 12
BITMAP
C180
8100
8100
C180
C180
ENDCHAR
STARTCHAR quotedblright
ENCODING 8221
SWIDTH 602 0
DWIDTH 14 0
BBX 9 5 3 12
BITMAP
C180
C180
4080
4080
C180
ENDCHAR
STARTCHAR quotedblbase
ENCODING 8222
SWIDTH 602 0
DWIDTH 14 0
BBX 9 7 3 -4
BITMAP
C180
C180
4080
4080
4080
4080
8100
ENDCHAR
STARTCHAR uni201F
ENCODING 8223
SWIDTH 602 0
DWIDTH 14 0
BBX 9 5 3 12
BITMAP
C180
C180
8100
8100
C180
ENDCHAR
STARTCHAR dagger
ENCODING 8224
SWIDTH 602 0
DWIDTH 14 0
BBX 9 21 3 -4
BITMAP
0800
0800
0800
0800
0800
0800
FF80
0800
0800
0800
0800
0800
0800
0800
0800
0800
0800
0800
0800
0800
0800
ENDCHAR
STARTCHAR daggerdbl
ENCODING 8225
SWIDTH 602 0
DWIDTH 14 0
BBX 9 21 3 -4
BITMAP
0800
0800
0800
0800
0800
0800
0800
FF80
0800
0800
0800
0800
0800
0800
FF80
0800
0800
0800
0800
0800
0800
ENDCHAR
STARTCHAR bullet
ENCODING 8226
SWIDTH 602 0
DWIDTH 14 0
BBX 7 7 4 2
BITMAP
FE
FE
FE
FE
FE
FE
FE
ENDCHAR
STARTCHAR ellipsis
ENCODING 8230
SWIDTH 602 0
DWIDTH 14 0
BBX 12 2 1 0
BITMAP
C630
C630
ENDCHAR
STARTCHAR perthousand
ENCODING 8240
SWIDTH 602 0
DWIDTH 14 0
BBX 13 17 1 0
BITMAP
6100
9200
9200
9400
9400
9400
9800
6800
1800
1000
1630
2948
2948
6948
4948
4948
8630
ENDCHAR
STARTCHAR guilsinglleft
ENCODING 8249
SWIDTH 602 0
DWIDTH 14 0
BBX 6 11 4 1
BITMAP
04
08
10
30
60
C0
60
30
10
08
04
ENDCHAR
STARTCHAR guilsinglright
ENCODING 8250
SWIDTH 602 0
DWIDTH 14 0
BBX 6 11 4 1
BITMAP
80
40
20
30
18
0C
18
30
20
40
80
ENDCHAR
STARTCHAR uni203D
ENCODING 8253
SWIDTH 602 0
DWIDTH 14 0
BBX 10 17 2 0
BITMAP
FF00
8780
86C0
06C0
06C0
0780
0700
0600
0C00
0C00
1C00
1C00
0000
0000
0000
0E00
0E00
ENDCHAR
STARTCHAR fraction
ENCODING 8260
SWIDTH 602 0
DWIDTH 14 0
BBX 14 17 0 0
BITMAP
000C
0018
0010
0020
0040
00C0
0080
0100
0300
0200
0400
0800
0800
1000
2000
6000
C000
ENDCHAR
STARTCHAR oneinferior
ENCODING 8321
SWIDTH 602 0
DWIDTH 14 0
BBX 5 9 -2 -5
BITMAP
60
E0
20
20
20
20
20
20
F8
ENDCHAR
STARTCHAR twoinferior
ENCODING 8322
SWIDTH 602 0
DWIDTH 14 0
BBX 5 9 -2 -5
BITMAP
F0
88
08
08
10
20
40
C0
F8
ENDCHAR
STARTCHAR threeinferior
ENCODING 8323
SWIDTH 602 0
DWIDTH 14 0
BBX 5 9 -2 -5
BITMAP
F0
08
08
08
70
18
08
08
F0
ENDCHAR
STARTCHAR uni20A5
ENCODING 8357
SWIDTH 602 0
DWIDTH 14 0
BBX 13 21 1 -4
BITMAP
0018
0010
0020
0020
9C70
A2C8
C388
8388
8308
8308
8208
8608
8608
8E08
8A08
9208
9208
2000
2000
4000
C000
ENDCHAR
STARTCHAR uni20A6
ENCODING 8358
SWIDTH 602 0
DWIDTH 14 0
BBX 12 17 2 0
BITMAP
C020
E020
E020
F020
B020
FFF0
9820
8C20
8E20
8620
8320
FFF0
81A0
81E0
80E0
8060
8060
ENDCHAR
STARTCHAR uni20A9
ENCODING 8361
SWIDTH 602 0
DWIDTH 14 0
BBX 14 17 0 0
BITMAP
8004
8604
860C
8708
CF08
FFF8
CD08
C918
C998
5990
5890
7FF8
70F0
70F0
70E0
6060
6060
ENDCHAR
STARTCHAR Euro
ENCODING 8364
SWIDTH 602 0
DWIDTH 14 0
BBX 16 17 -3 0
BITMAP
007F
0183
0300
0600
0600
FFF0
0C00
0C00
0C00
0C00
0C00
FFF0
0600
0600
0300
01C1
007F
ENDCHAR
STARTCHAR uni20AD
ENCODING 8365
SWIDTH 602 0
DWIDTH 14 0
BBX 12 17 2 0
BITMAP
C040
C080
C100
C300
C200
C400
C800
D000
FFF0
DC00
CC00
C600
C300
C380
C1C0
C0E0
C070
ENDCHAR
STARTCHAR trademark
ENCODING 8482
SWIDTH 602 0
DWIDTH 14 0
BBX 14 9 0 8
BITMAP
FF8C
239C
23DC
23FC
22F4
22F4
2264
2204
2204
ENDCHAR
STARTCHAR uni212A
ENCODING 8490
SWIDTH 602 0
DWIDTH 14 0
BBX 12 17 2 0
BITMAP
C040
C080
C100
C300
C200
C400
C800
D000
F800
DC00
CC00
C600
C300
C380
C1C0
C0E0
C070
ENDCHAR
STARTCHAR uni212B
ENCODING 8491
SWIDTH 602 0
DWIDTH 14 0
BBX 13 22 -1 0
BITMAP
0600
0900
0900
0600
0000
0600
0700
0B00
0B00
0980
1180
1180
10C0
30C0
20C0
20E0
7FE0
4060
4030
8030
8030
8018
ENDCHAR
STARTCHAR uni2132
ENCODING 8498
SWIDTH 602 0
DWIDTH 14 0
BBX 10 17 3 0
BITMAP
00C0
00C0
00C0
00C0
00C0
00C0
00C0
00C0
7FC0
00C0
00C0
00C0
00C0
00C0
00C0
00C0
FFC0
ENDCHAR
STARTCHAR universal
ENCODING 8704
SWIDTH 602 0
DWIDTH 14 0
BBX 13 17 -1 0
BITMAP
8018
8030
8030
4030
4060
7FE0
20E0
20C0
30C0
10C0
1180
1180
0980
0B00
0B00
0700
0600
ENDCHAR
STARTCHAR existential
ENCODING 8707
SWIDTH 602 0
DWIDTH 14 0
BBX 10 17 3 0
BITMAP
7FC0
00C0
00C0
00C0
00C0
00C0
00C0
3FC0
00C0
00C0
00C0
00C0
00C0
00C0
00C0
00C0
FFC0
ENDCHAR
STARTCHAR uni2204
ENCODING 8708
SWIDTH 602 0
DWIDTH 14 0
BBX 13 21 2 -2
BITMAP
0018
0010
3FE0
0060
0060
0060
00E0
01E0
0160
1FE0
0260
0660
0460
0C60
0860
1060
1060
2060
7FE0
4000
C000
ENDCHAR
STARTCHAR minus
ENCODING 8722
SWIDTH 602 0
DWIDTH 14 0
BBX 12 1 1 5
BITMAP
FFF0
ENDCHAR
STARTCHAR fraction
ENCODING 8725
SWIDTH 602 0
DWIDTH 14 0
BBX 14 17 0 0
BITMAP
000C
0018
0010
0020
0040
00C0
0080
0100
0300
0200
0400
0800
0800
1000
2000
6000
C000
ENDCHAR
STARTCHAR periodcentered
ENCODING 8729
SWIDTH 602 0
DWIDTH 14 0
BBX 3 2 6 6
BITMAP
E0
E0
ENDCHAR
STARTCHAR uni2236
ENCODING 8758
SWIDTH 602 0
DWIDTH 14 0
BBX 3 13 6 0
BITMAP
E0
E0
E0
00
00
00
00
00
00
00
E0
E0
E0
ENDCHAR
STARTCHAR uni2259
ENCODING 8793
SWIDTH 602 0
DWIDTH 14 0
BBX 12 11 1 3
BITMAP
0F00
1F80
39C0
0000
FFF0
0000
0000
0000
0000
0000
FFF0
ENDCHAR
STARTCHAR uni225A
ENCODING 8794
SWIDTH 602 0
DWIDTH 14 0
BBX 12 11 1 3
BITMAP
39C0
1F80
0F00
0000
FFF0
0000
0000
0000
0000
0000
FFF0
ENDCHAR
STARTCHAR notequal
ENCODING 8800
SWIDTH 602 0
DWIDTH 14 0
BBX 13 21 1 -4
BITMAP
0018
0010
0020
0020
0040
0040
0080
FFF0
0100
0300
0200
0600
0400
FFF0
0800
1000
1000
2000
2000
4000
C000
ENDCHAR
STARTCHAR equivalence
ENCODING 8801
SWIDTH 602 0
DWIDTH 14 0
BBX 12 5 0 4
BITMAP
FFF0
0000
FFF0
0000
FFF0
ENDCHAR
STARTCHAR uni2262
ENCODING 8802
SWIDTH 602 0
DWIDTH 14 0
BBX 13 21 0 -4
BITMAP
0018
0010
0020
0020
0040
0040
0080
0180
FFF0
0300
FFF0
0600
FFF0
0C00
0800
1000
1000
2000
2000
4000
C000
ENDCHAR
STARTCHAR lessequal
ENCODING 8804
SWIDTH 602 0
DWIDTH 14 0
BBX 11 15 0 -2
BITMAP
0020
0060
0180
0600
0C00
3000
C000
3000
0C00
0600
0180
0060
0020
0000
FFE0
ENDCHAR
STARTCHAR greaterequal
ENCODING 8805
SWIDTH 602 0
DWIDTH 14 0
BBX 11 15 1 -2
BITMAP
8000
C000
3000
0C00
0600
0180
0060
0180
0600
0C00
3000
C000
8000
0000
FFE0
ENDCHAR
STARTCHAR uni226E
ENCODING 8814
SWIDTH 602 0
DWIDTH 14 0
BBX 13 21 -1 -4
BITMAP
0018
0010
0020
0020
0050
0070
00C0
0380
0700
1B00
6200
1E00
0600
0F00
08C0
1030
1010
2000
2000
4000
C000
ENDCHAR
STARTCHAR uni226F
ENCODING 8815
SWIDTH 602 0
DWIDTH 14 0
BBX 13 21 0 -4
BITMAP
0018
0010
0020
0020
4040
6040
1880
0780
0300
03C0
0230
06C0
0700
0E00
1800
7000
5000
2000
2000
4000
C000
ENDCHAR
STARTCHAR uni2270
ENCODING 8816
SWIDTH 602 0
DWIDTH 14 0
BBX 13 21 -1 -5
BITMAP
0018
0010
0020
0030
0070
00C0
0380
0780
1900
6300
1A00
0600
0700
0CC0
0830
1010
1000
7FF0
2000
4000
C000
ENDCHAR
STARTCHAR uni2271
ENCODING 8817
SWIDTH 602 0
DWIDTH 14 0
BBX 13 21 0 -5
BITMAP
0018
0010
0020
4020
6040
1840
0680
0380
01C0
0330
02C0
0700
0600
1C00
6800
5000
1000
7FF0
2000
4000
C000
ENDCHAR
STARTCHAR SF100000
ENCODING 9472
SWIDTH 602 0
DWIDTH 14 0
BBX 14 1 0 8
BITMAP
FFFC
ENDCHAR
STARTCHAR uni2501
ENCODING 9473
SWIDTH 602 0
DWIDTH 14 0
BBX 14 3 0 7
BITMAP
FFFC
FFFC
FFFC
ENDCHAR
STARTCHAR SF110000
ENCODING 9474
SWIDTH 602 0
DWIDTH 14 0
BBX 1 27 6 -5
BITMAP
80
80
80
80
80
80
80
80
80
80
80
80
80
80
80
80
80
80
80
80
80
80
80
80
80
80
80
ENDCHAR
STARTCHAR uni2503
ENCODING 9475
SWIDTH 602 0
DWIDTH 14 0
BBX 3 27 5 -5
BITMAP
E0
E0
E0
E0
E0
E0
E0
E0
E0
E0
E0
E0
E0
E0
E0
E0
E0
E0
E0
E0
E0
E0
E0
E0
E0
E0
E0
ENDCHAR
STARTCHAR SF010000
ENCODING 9484
SWIDTH 602 0
DWIDTH 14 0
BBX 8 14 6 -5
BITMAP
FF
80
80
80
80
80
80
80
80
80
80
80
80
80
ENDCHAR
STARTCHAR uni250D
ENCODING 9485
SWIDTH 602 0
DWIDTH 14 0
BBX 9 15 5 -5
BITMAP
FF80
FF80
FF80
4000
4000
4000
4000
4000
4000
4000
4000
4000
4000
4000
4000
ENDCHAR
STARTCHAR uni250E
ENCODING 9486
SWIDTH 602 0
DWIDTH 14 0
BBX 9 15 5 -5
BITMAP
E000
FF80
E000
E000
E000
E000
E000
E000
E000
E000
E000
E000
E000
E000
E000
ENDCHAR
STARTCHAR uni250F
ENCODING 9487
SWIDTH 602 0
DWIDTH 14 0
BBX 9 15 5 -5
BITMAP
FF80
FF80
FF80
E000
E000
E000
E000
E000
E000
E000
E000
E000
E000
E000
E000
ENDCHAR
STARTCHAR SF030000
ENCODING 9488
SWIDTH 602 0
DWIDTH 14 0
BBX 7 14 0 -5
BITMAP
FE
02
02
02
02
02
02
02
02
02
02
02
02
02
ENDCHAR
STARTCHAR uni2511
ENCODING 9489
SWIDTH 602 0
DWIDTH 14 0
BBX 8 15 0 -5
BITMAP
FF
FF
FF
02
02
02
02
02
02
02
02
02
02
02
02
ENDCHAR
STARTCHAR uni2512
ENCODING 9490
SWIDTH 602 0
DWIDTH 14 0
BBX 8 15 0 -5
BITMAP
07
FF
07
07
07
07
07
07
07
07
07
07
07
07
07
ENDCHAR
STARTCHAR uni2513
ENCODING 9491
SWIDTH 602 0
DWIDTH 14 0
BBX 8 15 0 -5
BITMAP
FF
FF
FF
07
07
07
07
07
07
07
07
07
07
07
07
ENDCHAR
STARTCHAR SF020000
ENCODING 9492
SWIDTH 602 0
DWIDTH 14 0
BBX 8 14 6 8
BITMAP
80
80
80
80
80
80
80
80
80
80
80
80
80
FF
ENDCHAR
STARTCHAR uni2515
ENCODING 9493
SWIDTH 602 0
DWIDTH 14 0
BBX 9 15 5 7
BITMAP
4000
4000
4000
4000
4000
4000
4000
4000
4000
4000
4000
4000
FF80
FF80
FF80
ENDCHAR
STARTCHAR uni2516
ENCODING 9494
SWIDTH 602 0
DWIDTH 14 0
BBX 9 15 5 7
BITMAP
E000
E000
E000
E000
E000
E000
E000
E000
E000
E000
E000
E000
E000
FF80
E000
ENDCHAR
STARTCHAR uni2517
ENCODING 9495
SWIDTH 602 0
DWIDTH 14 0
BBX 9 15 5 7
BITMAP
E000
E000
E000
E000
E000
E000
E000
E000
E000
E000
E000
E000
FF80
FF80
FF80
ENDCHAR
STARTCHAR SF040000
ENCODING 9496
SWIDTH 602 0
DWIDTH 14 0
BBX 7 14 0 8
BITMAP
02
02
02
02
02
02
02
02
02
02
02
02
02
FE
ENDCHAR
STARTCHAR uni2519
ENCODING 9497
SWIDTH 602 0
DWIDTH 14 0
BBX 8 15 0 7
BITMAP
02
02
02
02
02
02
02
02
02
02
02
02
FF
FF
FF
ENDCHAR
STARTCHAR uni251A
ENCODING 9498
SWIDTH 602 0
DWIDTH 14 0
BBX 8 15 0 7
BITMAP
07
07
07
07
07
07
07
07
07
07
07
07
07
FF
07
ENDCHAR
STARTCHAR uni251B
ENCODING 9499
SWIDTH 602 0
DWIDTH 14 0
BBX 8 15 0 7
BITMAP
07
07
07
07
07
07
07
07
07
07
07
07
FF
FF
FF
ENDCHAR
STARTCHAR SF080000
ENCODING 9500
SWIDTH 602 0
DWIDTH 14 0
BBX 8 27 6 -5
BITMAP
80
80
80
80
80
80
80
80
80
80
80
80
80
FF
80
80
80
80
80
80
80
80
80
80
80
80
80
ENDCHAR
STARTCHAR uni251D
ENCODING 9501
SWIDTH 602 0
DWIDTH 14 0
BBX 9 27 5 -5
BITMAP
4000
4000
4000
4000
4000
4000
4000
4000
4000
4000
4000
4000
FF80
FF80
FF80
4000
4000
4000
4000
4000
4000
4000
4000
4000
4000
4000
4000
ENDCHAR
STARTCHAR uni251E
ENCODING 9502
SWIDTH 602 0
DWIDTH 14 0
BBX 9 27 5 -5
BITMAP
E000
E000
E000
E000
E000
E000
E000
E000
E000
E000
E000
E000
E000
FF80
E000
4000
4000
4000
4000
4000
4000
4000
4000
4000
4000
4000
4000
ENDCHAR
STARTCHAR uni251F
ENCODING 9503
SWIDTH 602 0
DWIDTH 14 0
BBX 9 27 5 -5
BITMAP
4000
4000
4000
4000
4000
4000
4000
4000
4000
4000
4000
4000
E000
FF80
E000
E000
E000
E000
E000
E000
E000
E000
E000
E000
E000
E000
E000
ENDCHAR
STARTCHAR uni2520
ENCODING 9504
SWIDTH 602 0
DWIDTH 14 0
BBX 9 27 5 -5
BITMAP
E000
E000
E000
E000
E000
E000
E000
E000
E000
E000
E000
E000
E000
FF80
E000
E000
E000
E000
E000
E000
E000
E000
E000
E000
E000
E000
E000
ENDCHAR
STARTCHAR uni2521
ENCODING 9505
SWIDTH 602 0
DWIDTH 14 0
BBX 9 27 5 -5
BITMAP
E000
E000
E000
E000
E000
E000
E000
E000
E000
E000
E000
E000
FF80
FF80
FF80
4000
4000
4000
4000
4000
4000
4000
4000
4000
4000
4000
4000
ENDCHAR
STARTCHAR uni2522
ENCODING 9506
SWIDTH 602 0
DWIDTH 14 0
BBX 9 27 5 -5
BITMAP
4000
4000
4000
4000
4000
4000
4000
4000
4000
4000
4000
4000
FF80
FF80
FF80
E000
E000
E000
E000
E000
E000
E000
E000
E000
E000
E000
E000
ENDCHAR
STARTCHAR uni2523
ENCODING 9507
SWIDTH 602 0
DWIDTH 14 0
BBX 9 27 5 -5
BITMAP
E000
E000
E000
E000
E000
E000
E000
E000
E000
E000
E000
E000
FF80
FF80
FF80
E000
E000
E000
E000
E000
E000
E000
E000
E000
E000
E000
E000
ENDCHAR
STARTCHAR SF090000
ENCODING 9508
SWIDTH 602 0
DWIDTH 14 0
BBX 7 27 0 -5
BITMAP
02
02
02
02
02
02
02
02
02
02
02
02
02
FE
02
02
02
02
02
02
02
02
02
02
02
02
02
ENDCHAR
STARTCHAR uni2525
ENCODING 9509
SWIDTH 602 0
DWIDTH 14 0
BBX 8 27 0 -5
BITMAP
02
02
02
02
02
02
02
02
02
02
02
02
FF
FF
FF
02
02
02
02
02
02
02
02
02
02
02
02
ENDCHAR
STARTCHAR uni2526
ENCODING 9510
SWIDTH 602 0
DWIDTH 14 0
BBX 8 27 0 -5
BITMAP
07
07
07
07
07
07
07
07
07
07
07
07
07
FF
07
02
02
02
02
02
02
02
02
02
02
02
02
ENDCHAR
STARTCHAR uni2527
ENCODING 9511
SWIDTH 602 0
DWIDTH 14 0
BBX 8 27 0 -5
BITMAP
02
02
02
02
02
02
02
02
02
02
02
02
07
FF
07
07
07
07
07
07
07
07
07
07
07
07
07
ENDCHAR
STARTCHAR uni2528
ENCODING 9512
SWIDTH 602 0
DWIDTH 14 0
BBX 8 27 0 -5
BITMAP
07
07
07
07
07
07
07
07
07
07
07
07
07
FF
07
07
07
07
07
07
07
07
07
07
07
07
07
ENDCHAR
STARTCHAR uni2529
ENCODING 9513
SWIDTH 602 0
DWIDTH 14 0
BBX 8 27 0 -5
BITMAP
07
07
07
07
07
07
07
07
07
07
07
07
FF
FF
FF
02
02
02
02
02
02
02
02
02
02
02
02
ENDCHAR
STARTCHAR uni252A
ENCODING 9514
SWIDTH 602 0
DWIDTH 14 0
BBX 8 27 0 -5
BITMAP
02
02
02
02
02
02
02
02
02
02
02
02
FF
FF
FF
07
07
07
07
07
07
07
07
07
07
07
07
ENDCHAR
STARTCHAR uni252B
ENCODING 9515
SWIDTH 602 0
DWIDTH 14 0
BBX 8 27 0 -5
BITMAP
07
07
07
07
07
07
07
07
07
07
07
07
FF
FF
FF
07
07
07
07
07
07
07
07
07
07
07
07
ENDCHAR
STARTCHAR SF060000
ENCODING 9516
SWIDTH 602 0
DWIDTH 14 0
BBX 14 14 0 -5
BITMAP
FFFC
0200
0200
0200
0200
0200
0200
0200
0200
0200
0200
0200
0200
0200
ENDCHAR
STARTCHAR uni252D
ENCODING 9517
SWIDTH 602 0
DWIDTH 14 0
BBX 14 15 0 -5
BITMAP
FF00
FFFC
FF00
0200
0200
0200
0200
0200
0200
0200
0200
0200
0200
0200
0200
ENDCHAR
STARTCHAR uni252E
ENCODING 9518
SWIDTH 602 0
DWIDTH 14 0
BBX 14 15 0 -5
BITMAP
07FC
FFFC
07FC
0200
0200
0200
0200
0200
0200
0200
0200
0200
0200
0200
0200
ENDCHAR
STARTCHAR uni252F
ENCODING 9519
SWIDTH 602 0
DWIDTH 14 0
BBX 14 15 0 -5
BITMAP
FFFC
FFFC
FFFC
0200
0200
0200
0200
0200
0200
0200
0200
0200
0200
0200
0200
ENDCHAR
STARTCHAR uni2530
ENCODING 9520
SWIDTH 602 0
DWIDTH 14 0
BBX 14 15 0 -5
BITMAP
0700
FFFC
0700
0700
0700
0700
0700
0700
0700
0700
0700
0700
0700
0700
0700
ENDCHAR
STARTCHAR uni2531
ENCODING 9521
SWIDTH 602 0
DWIDTH 14 0
BBX 14 15 0 -5
BITMAP
FF00
FFFC
FF00
0700
0700
0700
0700
0700
0700
0700
0700
0700
0700
0700
0700
ENDCHAR
STARTCHAR uni2532
ENCODING 9522
SWIDTH 602 0
DWIDTH 14 0
BBX 14 15 0 -5
BITMAP
07FC
FFFC
07FC
0700
0700
0700
0700
0700
0700
0700
0700
0700
0700
0700
0700
ENDCHAR
STARTCHAR uni2533
ENCODING 9523
SWIDTH 602 0
DWIDTH 14 0
BBX 14 15 0 -5
BITMAP
FFFC
FFFC
FFFC
0700
0700
0700
0700
0700
0700
0700
0700
0700
0700
0700
0700
ENDCHAR
STARTCHAR SF070000
ENCODING 9524
SWIDTH 602 0
DWIDTH 14 0
BBX 14 14 0 8
BITMAP
0200
0200
0200
0200
0200
0200
0200
0200
0200
0200
0200
0200
0200
FFFC
ENDCHAR
STARTCHAR uni2535
ENCODING 9525
SWIDTH 602 0
DWIDTH 14 0
BBX 14 15 0 7
BITMAP
0200
0200
0200
0200
0200
0200
0200
0200
0200
0200
0200
0200
FF00
FFFC
FF00
ENDCHAR
STARTCHAR uni2536
ENCODING 9526
SWIDTH 602 0
DWIDTH 14 0
BBX 14 15 0 7
BITMAP
0200
0200
0200
0200
0200
0200
0200
0200
0200
0200
0200
0200
07FC
FFFC
07FC
ENDCHAR
STARTCHAR uni2537
ENCODING 9527
SWIDTH 602 0
DWIDTH 14 0
BBX 14 15 0 7
BITMAP
0200
0200
0200
0200
0200
0200
0200
0200
0200
0200
0200
0200
FFFC
FFFC
FFFC
ENDCHAR
STARTCHAR uni2538
ENCODING 9528
SWIDTH 602 0
DWIDTH 14 0
BBX 14 15 0 7
BITMAP
0700
0700
0700
0700
0700
0700
0700
0700
0700
0700
0700
0700
0700
FFFC
0700
ENDCHAR
STARTCHAR uni2539
ENCODING 9529
SWIDTH 602 0
DWIDTH 14 0
BBX 14 15 0 7
BITMAP
0700
0700
0700
0700
0700
0700
0700
0700
0700
0700
0700
0700
FF00
FFFC
FF00
ENDCHAR
STARTCHAR uni253A
ENCODING 9530
SWIDTH 602 0
DWIDTH 14 0
BBX 14 15 0 7
BITMAP
0700
0700
0700
0700
0700
0700
0700
0700
0700
0700
0700
0700
07FC
FFFC
07FC
ENDCHAR
STARTCHAR uni253B
ENCODING 9531
SWIDTH 602 0
DWIDTH 14 0
BBX 14 15 0 7
BITMAP
0700
0700
0700
0700
0700
0700
0700
0700
0700
0700
0700
0700
FFFC
FFFC
FFFC
ENDCHAR
STARTCHAR SF050000
ENCODING 9532
SWIDTH 602 0
DWIDTH 14 0
BBX 14 27 0 -5
BITMAP
0200
0200
0200
0200
0200
0200
0200
0200
0200
0200
0200
0200
0200
FFFC
0200
0200
0200
0200
0200
0200
0200
0200
0200
0200
0200
0200
0200
ENDCHAR
STARTCHAR uni253D
ENCODING 9533
SWIDTH 602 0
DWIDTH 14 0
BBX 14 27 0 -5
BITMAP
0200
0200
0200
0200
0200
0200
0200
0200
0200
0200
0200
0200
FF00
FFFC
FF00
0200
0200
0200
0200
0200
0200
0200
0200
0200
0200
0200
0200
ENDCHAR
STARTCHAR uni253E
ENCODING 9534
SWIDTH 602 0
DWIDTH 14 0
BBX 14 27 0 -5
BITMAP
0200
0200
0200
0200
0200
0200
0200
0200
0200
0200
0200
0200
07FC
FFFC
07FC
0200
0200
0200
0200
0200
0200
0200
0200
0200
0200
0200
0200
ENDCHAR
STARTCHAR uni253F
ENCODING 9535
SWIDTH 602 0
DWIDTH 14 0
BBX 14 27 0 -5
BITMAP
0200
0200
0200
0200
0200
0200
0200
0200
0200
0200
0200
0200
FFFC
FFFC
FFFC
0200
0200
0200
0200
0200
0200
0200
0200
0200
0200
0200
0200
ENDCHAR
STARTCHAR uni2540
ENCODING 9536
SWIDTH 602 0
DWIDTH 14 0
BBX 14 27 0 -5
BITMAP
0700
0700
0700
0700
0700
0700
0700
0700
0700
0700
0700
0700
0700
FFFC
0700
0200
0200
0200
0200
0200
0200
0200
0200
0200
0200
0200
0200
ENDCHAR
STARTCHAR uni2541
ENCODING 9537
SWIDTH 602 0
DWIDTH 14 0
BBX 14 27 0 -5
BITMAP
0200
0200
0200
0200
0200
0200
0200
0200
0200
0200
0200
0200
0700
FFFC
0700
0700
0700
0700
0700
0700
0700
0700
0700
0700
0700
0700
0700
ENDCHAR
STARTCHAR uni2542
ENCODING 9538
SWIDTH 602 0
DWIDTH 14 0
BBX 14 27 0 -5
BITMAP
0700
0700
0700
0700
0700
0700
0700
0700
0700
0700
0700
0700
0700
FFFC
0700
0700
0700
0700
0700
0700
0700
0700
0700
0700
0700
0700
0700
ENDCHAR
STARTCHAR uni2543
ENCODING 9539
SWIDTH 602 0
DWIDTH 14 0
BBX 14 27 0 -5
BITMAP
0700
0700
0700
0700
0700
0700
0700
0700
0700
0700
0700
0700
FF00
FFFC
FF00
0200
0200
0200
0200
0200
0200
0200
0200
0200
0200
0200
0200
ENDCHAR
STARTCHAR uni2544
ENCODING 9540
SWIDTH 602 0
DWIDTH 14 0
BBX 14 27 0 -5
BITMAP
0700
0700
0700
0700
0700
0700
0700
0700
0700
0700
0700
0700
07FC
FFFC
07FC
0200
0200
0200
0200
0200
0200
0200
0200
0200
0200
0200
0200
ENDCHAR
STARTCHAR uni2545
ENCODING 9541
SWIDTH 602 0
DWIDTH 14 0
BBX 14 27 0 -5
BITMAP
0200
0200
0200
0200
0200
0200
0200
0200
0200
0200
0200
0200
FF00
FFFC
FF00
0700
0700
0700
0700
0700
0700
0700
0700
0700
0700
0700
0700
ENDCHAR
STARTCHAR uni2546
ENCODING 9542
SWIDTH 602 0
DWIDTH 14 0
BBX 14 27 0 -5
BITMAP
0200
0200
0200
0200
0200
0200
0200
0200
0200
0200
0200
0200
07FC
FFFC
07FC
0700
0700
0700
0700
0700
0700
0700
0700
0700
0700
0700
0700
ENDCHAR
STARTCHAR uni2547
ENCODING 9543
SWIDTH 602 0
DWIDTH 14 0
BBX 14 27 0 -5
BITMAP
0700
0700
0700
0700
0700
0700
0700
0700
0700
0700
0700
0700
FFFC
FFFC
FFFC
0200
0200
0200
0200
0200
0200
0200
0200
0200
0200
0200
0200
ENDCHAR
STARTCHAR uni2548
ENCODING 9544
SWIDTH 602 0
DWIDTH 14 0
BBX 14 27 0 -5
BITMAP
0200
0200
0200
0200
0200
0200
0200
0200
0200
0200
0200
0200
FFFC
FFFC
FFFC
0700
0700
0700
0700
0700
0700
0700
0700
0700
0700
0700
0700
ENDCHAR
STARTCHAR uni2549
ENCODING 9545
SWIDTH 602 0
DWIDTH 14 0
BBX 14 27 0 -5
BITMAP
0700
0700
0700
0700
0700
0700
0700
0700
0700
0700
0700
0700
FF00
FFFC
FF00
0700
0700
0700
0700
0700
0700
0700
0700
0700
0700
0700
0700
ENDCHAR
STARTCHAR uni254A
ENCODING 9546
SWIDTH 602 0
DWIDTH 14 0
BBX 14 27 0 -5
BITMAP
0700
0700
0700
0700
0700
0700
0700
0700
0700
0700
0700
0700
07FC
FFFC
07FC
0700
0700
0700
0700
0700
0700
0700
0700
0700
0700
0700
0700
ENDCHAR
STARTCHAR uni254B
ENCODING 9547
SWIDTH 602 0
DWIDTH 14 0
BBX 14 27 0 -5
BITMAP
0700
0700
0700
0700
0700
0700
0700
0700
0700
0700
0700
0700
FFFC
FFFC
FFFC
0700
0700
0700
0700
0700
0700
0700
0700
0700
0700
0700
0700
ENDCHAR
STARTCHAR uni254C
ENCODING 9548
SWIDTH 602 0
DWIDTH 14 0
BBX 14 27 0 -5
BITMAP
0000
0000
0000
0000
0000
0000
0000
0000
0000
0000
0000
0000
0000
FDFC
0000
0000
0000
0000
0000
0000
0000
0000
0000
0000
0000
0000
0000
ENDCHAR
STARTCHAR uni254D
ENCODING 9549
SWIDTH 602 0
DWIDTH 14 0
BBX 14 27 0 -5
BITMAP
0000
0000
0000
0000
0000
0000
0000
0000
0000
0000
0000
0000
FDFC
FDFC
FDFC
0000
0000
0000
0000
0000
0000
0000
0000
0000
0000
0000
0000
ENDCHAR
STARTCHAR uni254E
ENCODING 9550
SWIDTH 602 0
DWIDTH 14 0
BBX 14 27 0 -5
BITMAP
0200
0200
0200
0200
0200
0200
0200
0200
0200
0200
0200
0200
0200
0000
0200
0200
0200
0200
0200
0200
0200
0200
0200
0200
0200
0200
0200
ENDCHAR
STARTCHAR uni254F
ENCODING 9551
SWIDTH 602 0
DWIDTH 14 0
BBX 14 27 0 -5
BITMAP
0700
0700
0700
0700
0700
0700
0700
0700
0700
0700
0700
0700
0700
0000
0700
0700
0700
0700
0700
0700
0700
0700
0700
0700
0700
0700
0700
ENDCHAR
STARTCHAR SF430000
ENCODING 9552
SWIDTH 602 0
DWIDTH 14 0
BBX 14 3 0 7
BITMAP
FFFC
0000
FFFC
ENDCHAR
STARTCHAR SF240000
ENCODING 9553
SWIDTH 602 0
DWIDTH 14 0
BBX 3 27 5 -5
BITMAP
A0
A0
A0
A0
A0
A0
A0
A0
A0
A0
A0
A0
A0
A0
A0
A0
A0
A0
A0
A0
A0
A0
A0
A0
A0
A0
A0
ENDCHAR
STARTCHAR SF390000
ENCODING 9556
SWIDTH 602 0
DWIDTH 14 0
BBX 9 15 5 -5
BITMAP
FF80
8000
BF80
A000
A000
A000
A000
A000
A000
A000
A000
A000
A000
A000
A000
ENDCHAR
STARTCHAR SF250000
ENCODING 9559
SWIDTH 602 0
DWIDTH 14 0
BBX 8 15 0 -5
BITMAP
FF
01
FD
05
05
05
05
05
05
05
05
05
05
05
05
ENDCHAR
STARTCHAR SF380000
ENCODING 9562
SWIDTH 602 0
DWIDTH 14 0
BBX 9 15 5 7
BITMAP
A000
A000
A000
A000
A000
A000
A000
A000
A000
A000
A000
A000
BF80
8000
FF80
ENDCHAR
STARTCHAR SF260000
ENCODING 9565
SWIDTH 602 0
DWIDTH 14 0
BBX 8 15 0 7
BITMAP
05
05
05
05
05
05
05
05
05
05
05
05
FD
01
FF
ENDCHAR
STARTCHAR SF420000
ENCODING 9568
SWIDTH 602 0
DWIDTH 14 0
BBX 9 27 5 -5
BITMAP
A000
A000
A000
A000
A000
A000
A000
A000
A000
A000
A000
A000
BF80
8000
BF80
A000
A000
A000
A000
A000
A000
A000
A000
A000
A000
A000
A000
ENDCHAR
STARTCHAR SF230000
ENCODING 9571
SWIDTH 602 0
DWIDTH 14 0
BBX 8 27 0 -5
BITMAP
05
05
05
05
05
05
05
05
05
05
05
05
FD
01
FD
05
05
05
05
05
05
05
05
05
05
05
05
ENDCHAR
STARTCHAR SF410000
ENCODING 9574
SWIDTH 602 0
DWIDTH 14 0
BBX 14 15 0 -5
BITMAP
FFFC
0000
FDFC
0500
0500
0500
0500
0500
0500
0500
0500
0500
0500
0500
0500
ENDCHAR
STARTCHAR SF400000
ENCODING 9577
SWIDTH 602 0
DWIDTH 14 0
BBX 14 15 0 7
BITMAP
0500
0500
0500
0500
0500
0500
0500
0500
0500
0500
0500
0500
FDFC
0000
FFFC
ENDCHAR
STARTCHAR SF540000
ENCODING 9578
SWIDTH 602 0
DWIDTH 14 0
BBX 14 27 0 -5
BITMAP
0200
0200
0200
0200
0200
0200
0200
0200
0200
0200
0200
0200
FFFC
0200
FFFC
0200
0200
0200
0200
0200
0200
0200
0200
0200
0200
0200
0200
ENDCHAR
STARTCHAR SF530000
ENCODING 9579
SWIDTH 602 0
DWIDTH 14 0
BBX 14 27 0 -5
BITMAP
0500
0500
0500
0500
0500
0500
0500
0500
0500
0500
0500
0500
0500
FFFC
0500
0500
0500
0500
0500
0500
0500
0500
0500
0500
0500
0500
0500
ENDCHAR
STARTCHAR SF440000
ENCODING 9580
SWIDTH 602 0
DWIDTH 14 0
BBX 14 27 0 -5
BITMAP
0500
0500
0500
0500
0500
0500
0500
0500
0500
0500
0500
0500
FDFC
0000
FDFC
0500
0500
0500
0500
0500
0500
0500
0500
0500
0500
0500
0500
ENDCHAR
STARTCHAR uni2574
ENCODING 9588
SWIDTH 602 0
DWIDTH 14 0
BBX 7 1 0 8
BITMAP
FE
ENDCHAR
STARTCHAR uni2575
ENCODING 9589
SWIDTH 602 0
DWIDTH 14 0
BBX 1 14 6 8
BITMAP
80
80
80
80
80
80
80
80
80
80
80
80
80
80
ENDCHAR
STARTCHAR uni2576
ENCODING 9590
SWIDTH 602 0
DWIDTH 14 0
BBX 8 1 6 8
BITMAP
FF
ENDCHAR
STARTCHAR uni2577
ENCODING 9591
SWIDTH 602 0
DWIDTH 14 0
BBX 1 14 6 -5
BITMAP
80
80
80
80
80
80
80
80
80
80
80
80
80
80
ENDCHAR
STARTCHAR uni2578
ENCODING 9592
SWIDTH 602 0
DWIDTH 14 0
BBX 8 3 0 7
BITMAP
FF
FF
FF
ENDCHAR
STARTCHAR uni2579
ENCODING 9593
SWIDTH 602 0
DWIDTH 14 0
BBX 3 15 5 7
BITMAP
E0
E0
E0
E0
E0
E0
E0
E0
E0
E0
E0
E0
E0
E0
E0
ENDCHAR
STARTCHAR uni257A
ENCODING 9594
SWIDTH 602 0
DWIDTH 14 0
BBX 9 3 5 7
BITMAP
FF80
FF80
FF80
ENDCHAR
STARTCHAR uni257B
ENCODING 9595
SWIDTH 602 0
DWIDTH 14 0
BBX 3 15 5 -5
BITMAP
E0
E0
E0
E0
E0
E0
E0
E0
E0
E0
E0
E0
E0
E0
E0
ENDCHAR
STARTCHAR uni257C
ENCODING 9596
SWIDTH 602 0
DWIDTH 14 0
BBX 14 3 0 7
BITMAP
07FC
FFFC
07FC
ENDCHAR
STARTCHAR uni257D
ENCODING 9597
SWIDTH 602 0
DWIDTH 14 0
BBX 3 27 5 -5
BITMAP
40
40
40
40
40
40
40
40
40
40
40
40
E0
E0
E0
E0
E0
E0
E0
E0
E0
E0
E0
E0
E0
E0
E0
ENDCHAR
STARTCHAR uni257E
ENCODING 9598
SWIDTH 602 0
DWIDTH 14 0
BBX 14 3 0 7
BITMAP
FF00
FFFC
FF00
ENDCHAR
STARTCHAR uni257F
ENCODING 9599
SWIDTH 602 0
DWIDTH 14 0
BBX 3 27 5 -5
BITMAP
E0
E0
E0
E0
E0
E0
E0
E0
E0
E0
E0
E0
E0
E0
E0
40
40
40
40
40
40
40
40
40
40
40
40
ENDCHAR
STARTCHAR upblock
ENCODING 9600
SWIDTH 602 0
DWIDTH 14 0
BBX 14 28 0 -5
BITMAP
FFFC
FFFC
FFFC
FFFC
FFFC
FFFC
FFFC
FFFC
FFFC
FFFC
FFFC
FFFC
FFFC
FFFC
0000
0000
0000
0000
0000
0000
0000
0000
0000
0000
0000
0000
0000
0000
ENDCHAR
STARTCHAR uni2581
ENCODING 9601
SWIDTH 602 0
DWIDTH 14 0
BBX 14 4 0 -5
BITMAP
FFFC
FFFC
FFFC
FFFC
ENDCHAR
STARTCHAR uni2582
ENCODING 9602
SWIDTH 602 0
DWIDTH 14 0
BBX 14 7 0 -5
BITMAP
FFFC
FFFC
FFFC
FFFC
FFFC
FFFC
FFFC
ENDCHAR
STARTCHAR uni2583
ENCODING 9603
SWIDTH 602 0
DWIDTH 14 0
BBX 14 11 0 -5
BITMAP
FFFC
FFFC
FFFC
FFFC
FFFC
FFFC
FFFC
FFFC
FFFC
FFFC
FFFC
ENDCHAR
STARTCHAR dnblock
ENCODING 9604
SWIDTH 602 0
DWIDTH 14 0
BBX 14 14 0 -5
BITMAP
FFFC
FFFC
FFFC
FFFC
FFFC
FFFC
FFFC
FFFC
FFFC
FFFC
FFFC
FFFC
FFFC
FFFC
ENDCHAR
STARTCHAR uni2585
ENCODING 9605
SWIDTH 602 0
DWIDTH 14 0
BBX 14 18 0 -5
BITMAP
FFFC
FFFC
FFFC
FFFC
FFFC
FFFC
FFFC
FFFC
FFFC
FFFC
FFFC
FFFC
FFFC
FFFC
FFFC
FFFC
FFFC
FFFC
ENDCHAR
STARTCHAR uni2586
ENCODING 9606
SWIDTH 602 0
DWIDTH 14 0
BBX 14 21 0 -5
BITMAP
FFFC
FFFC
FFFC
FFFC
FFFC
FFFC
FFFC
FFFC
FFFC
FFFC
FFFC
FFFC
FFFC
FFFC
FFFC
FFFC
FFFC
FFFC
FFFC
FFFC
FFFC
ENDCHAR
STARTCHAR uni2587
ENCODING 9607
SWIDTH 602 0
DWIDTH 14 0
BBX 14 25 0 -5
BITMAP
FFFC
FFFC
FFFC
FFFC
FFFC
FFFC
FFFC
FFFC
FFFC
FFFC
FFFC
FFFC
FFFC
FFFC
FFFC
FFFC
FFFC
FFFC
FFFC
FFFC
FFFC
FFFC
FFFC
FFFC
FFFC
ENDCHAR
STARTCHAR block
ENCODING 9608
SWIDTH 602 0
DWIDTH 14 0
BBX 14 28 0 -5
BITMAP
FFFC
FFFC
FFFC
FFFC
FFFC
FFFC
FFFC
FFFC
FFFC
FFFC
FFFC
FFFC
FFFC
FFFC
FFFC
FFFC
FFFC
FFFC
FFFC
FFFC
FFFC
FFFC
FFFC
FFFC
FFFC
FFFC
FFFC
FFFC
ENDCHAR
STARTCHAR uni2589
ENCODING 9609
SWIDTH 602 0
DWIDTH 14 0
BBX 12 28 0 -5
BITMAP
FFF0
FFF0
FFF0
FFF0
FFF0
FFF0
FFF0
FFF0
FFF0
FFF0
FFF0
FFF0
FFF0
FFF0
FFF0
FFF0
FFF0
FFF0
FFF0
FFF0
FFF0
FFF0
FFF0
FFF0
FFF0
FFF0
FFF0
FFF0
ENDCHAR
STARTCHAR uni258A
ENCODING 9610
SWIDTH 602 0
DWIDTH 14 0
BBX 11 28 0 -5
BITMAP
FFE0
FFE0
FFE0
FFE0
FFE0
FFE0
FFE0
FFE0
FFE0
FFE0
FFE0
FFE0
FFE0
FFE0
FFE0
FFE0
FFE0
FFE0
FFE0
FFE0
FFE0
FFE0
FFE0
FFE0
FFE0
FFE0
FFE0
FFE0
ENDCHAR
STARTCHAR uni258B
ENCODING 9611
SWIDTH 602 0
DWIDTH 14 0
BBX 9 28 0 -5
BITMAP
FF80
FF80
FF80
FF80
FF80
FF80
FF80
FF80
FF80
FF80
FF80
FF80
FF80
FF80
FF80
FF80
FF80
FF80
FF80
FF80
FF80
FF80
FF80
FF80
FF80
FF80
FF80
FF80
ENDCHAR
STARTCHAR lfblock
ENCODING 9612
SWIDTH 602 0
DWIDTH 14 0
BBX 7 28 0 -5
BITMAP
FE
FE
FE
FE
FE
FE
FE
FE
FE
FE
FE
FE
FE
FE
FE
FE
FE
FE
FE
FE
FE
FE
FE
FE
FE
FE
FE
FE
ENDCHAR
STARTCHAR uni258D
ENCODING 9613
SWIDTH 602 0
DWIDTH 14 0
BBX 5 28 0 -5
BITMAP
F8
F8
F8
F8
F8
F8
F8
F8
F8
F8
F8
F8
F8
F8
F8
F8
F8
F8
F8
F8
F8
F8
F8
F8
F8
F8
F8
F8
ENDCHAR
STARTCHAR uni258E
ENCODING 9614
SWIDTH 602 0
DWIDTH 14 0
BBX 4 28 0 -5
BITMAP
F0
F0
F0
F0
F0
F0
F0
F0
F0
F0
F0
F0
F0
F0
F0
F0
F0
F0
F0
F0
F0
F0
F0
F0
F0
F0
F0
F0
ENDCHAR
STARTCHAR uni258F
ENCODING 9615
SWIDTH 602 0
DWIDTH 14 0
BBX 2 28 0 -5
BITMAP
C0
C0
C0
C0
C0
C0
C0
C0
C0
C0
C0
C0
C0
C0
C0
C0
C0
C0
C0
C0
C0
C0
C0
C0
C0
C0
C0
C0
ENDCHAR
STARTCHAR rtblock
ENCODING 9616
SWIDTH 602 0
DWIDTH 14 0
BBX 14 28 0 -5
BITMAP
01FC
01FC
01FC
01FC
01FC
01FC
01FC
01FC
01FC
01FC
01FC
01FC
01FC
01FC
01FC
01FC
01FC
01FC
01FC
01FC
01FC
01FC
01FC
01FC
01FC
01FC
01FC
01FC
ENDCHAR
STARTCHAR ltshade
ENCODING 9617
SWIDTH 602 0
DWIDTH 14 0
BBX 14 28 0 -5
BITMAP
0000
5554
0000
AAA8
0000
5554
0000
AAA8
0000
5554
0000
AAA8
0000
5554
0000
AAA8
0000
5554
0000
AAA8
0000
5554
0000
AAA8
0000
5554
0000
AAA8
ENDCHAR
STARTCHAR shade
ENCODING 9618
SWIDTH 602 0
DWIDTH 14 0
BBX 14 28 0 -5
BITMAP
5554
AAA8
5554
AAA8
5554
AAA8
5554
AAA8
5554
AAA8
5554
AAA8
5554
AAA8
5554
AAA8
5554
AAA8
5554
AAA8
5554
AAA8
5554
AAA8
5554
AAA8
5554
AAA8
ENDCHAR
STARTCHAR dkshade
ENCODING 9619
SWIDTH 602 0
DWIDTH 14 0
BBX 14 28 0 -5
BITMAP
FFFC
AAA8
FFFC
5554
FFFC
AAA8
FFFC
5554
FFFC
AAA8
FFFC
5554
FFFC
AAA8
FFFC
5554
FFFC
AAA8
FFFC
5554
FFFC
AAA8
FFFC
5554
FFFC
AAA8
FFFC
5554
ENDCHAR
STARTCHAR uni2594
ENCODING 9620
SWIDTH 602 0
DWIDTH 14 0
BBX 14 28 0 -5
BITMAP
FFFC
FFFC
FFFC
0000
0000
0000
0000
0000
0000
0000
0000
0000
0000
0000
0000
0000
0000
0000
0000
0000
0000
0000
0000
0000
0000
0000
0000
0000
ENDCHAR
STARTCHAR uni2595
ENCODING 9621
SWIDTH 602 0
DWIDTH 14 0
BBX 14 28 0 -5
BITMAP
001C
001C
001C
001C
001C
001C
001C
001C
001C
001C
001C
001C
001C
001C
001C
001C
001C
001C
001C
001C
001C
001C
001C
001C
001C
001C
001C
001C
ENDCHAR
STARTCHAR fi
ENCODING -1
SWIDTH 602 0
DWIDTH 14 0
BBX 11 19 1 0
BITMAP
0E00
1E00
3F60
3060
3000
3000
FFE0
3060
3060
3060
3060
3060
3060
3060
3060
3060
3060
3060
3060
ENDCHAR
STARTCHAR fl
ENCODING -1
SWIDTH 602 0
DWIDTH 14 0
BBX 11 19 1 0
BITMAP
1FE0
3060
3060
3060
3060
3060
FE60
3060
3060
3060
3060
3060
3060
3060
3060
3060
3060
3060
3060
ENDCHAR
ENDFONT
